<?xml version="1.0" standalone="no"?>
<!DOCTYPE svg PUBLIC "-//W3C//DTD SVG 1.1//EN" "http://www.w3.org/Graphics/SVG/1.1/DTD/svg11.dtd" >
<svg xmlns="http://www.w3.org/2000/svg">
<metadata></metadata>
<defs>
<font id="als_storyregular" horiz-adv-x="1126" >
<font-face units-per-em="2048" ascent="1638" descent="-410" />
<missing-glyph horiz-adv-x="471" />
<glyph horiz-adv-x="0" />
<glyph unicode="&#xd;" horiz-adv-x="681" />
<glyph unicode=" "  horiz-adv-x="471" />
<glyph unicode="&#x09;" horiz-adv-x="471" />
<glyph unicode="&#xa0;" horiz-adv-x="471" />
<glyph unicode="!" horiz-adv-x="614" d="M172 115q0 135 135 135t135 -135t-135 -135t-135 135zM193 1434h225l-41 -1035h-144z" />
<glyph unicode="&#x22;" horiz-adv-x="671" d="M133 1434h160l-33 -461h-96zM379 1434h160l-33 -461h-96z" />
<glyph unicode="#" horiz-adv-x="1153" d="M111 426v129h157l41 328h-198v129h213l53 422h135l-53 -422h256l53 422h135l-53 -422h154v-129h-168l-41 -328h209v-129h-226l-53 -426h-135l53 426h-256l-53 -426h-135l53 426h-141zM403 555h256l41 328h-256z" />
<glyph unicode="$" horiz-adv-x="1290" d="M111 125l63 121q6 -4 60.5 -34t80 -41t76.5 -28.5t98 -25.5v538q-70 23 -121 48.5t-105 73.5t-83.5 129t-29.5 190q0 152 92 239.5t247 112.5v133h156v-125q35 -2 65.5 -6t62.5 -13.5t51.5 -14.5t51 -20.5t41 -19.5t43 -21.5t35.5 -19.5l-63 -124l-49 24.5t-56.5 27.5 t-52.5 21.5t-63.5 19.5t-65.5 9v-514q92 -31 148.5 -57.5t116 -76.5t87 -128t27.5 -189q0 -344 -379 -374v-195h-156v195q-186 18 -378 145zM332 1096q0 -96 33.5 -146.5t123.5 -89.5v445q-157 -47 -157 -209zM645 119q193 28 193 229q0 106 -39 160.5t-154 97.5v-487z" />
<glyph unicode="%" horiz-adv-x="1490" d="M113 1083q0 193 51 282t201 89q68 0 115.5 -20.5t74.5 -51t42 -83t19.5 -99.5t4.5 -117q0 -197 -49.5 -282.5t-206.5 -85.5q-66 0 -112 19.5t-73.5 50t-42 80.5t-19.5 99t-5 119zM246 1081q0 -147 20.5 -205.5t98.5 -58.5q80 0 100 50.5t20 183.5v30q0 63 -1 95t-7 72 t-18.5 59.5t-36 33t-57.5 13.5q-78 0 -98.5 -64t-20.5 -209zM250 0l825 1434h156l-825 -1434h-156zM870 348q0 193 51.5 282t200.5 89q68 0 116 -20.5t74.5 -51.5t42 -83t19.5 -99t4 -117q0 -197 -49 -282.5t-207 -85.5q-66 0 -111.5 19t-73.5 50t-42 81t-19.5 99t-5.5 119z M1004 346q0 -147 20 -205.5t98 -58.5q80 0 100.5 50t20.5 183v31q0 63 -1 95t-7 72t-18.5 59.5t-36 32.5t-58.5 13q-78 0 -98 -63.5t-20 -208.5z" />
<glyph unicode="&#x26;" horiz-adv-x="1208" d="M76 373q0 63 11 117.5t35.5 98.5t46 75.5t61.5 63.5t61.5 47.5t67 42t55.5 34.5q-43 59 -66.5 94t-52.5 105.5t-29 132.5q0 266 338 266t338 -266q0 -45 -11 -85t-36 -73t-47.5 -58.5t-60 -52t-57 -39t-60.5 -34t-47 -25.5l290 -444q47 106 48 254q0 35 -3 51l150 20 q4 -20 4 -63q0 -94 -31.5 -199.5t-85.5 -177.5l201 -258h-227l-82 125q-49 -61 -137 -105.5t-197 -44.5q-244 0 -360.5 104.5t-116.5 293.5zM260 373q0 -119 73 -195t220 -76q80 0 153.5 41t108.5 88l-338 523q-59 -41 -83.5 -60.5t-63.5 -65.5t-54.5 -107.5t-15.5 -147.5z M436 1184q0 -33 10.5 -67t26.5 -65.5t30.5 -54t33 -47t22.5 -28.5q8 6 43 28.5t50.5 33.5t43 35.5t41 45t24.5 52.5t11 67q0 156 -168 155.5t-168 -155.5z" />
<glyph unicode="'" horiz-adv-x="425" d="M133 1434h160l-33 -461h-96z" />
<glyph unicode="(" horiz-adv-x="671" d="M154 569q0 150 32.5 293.5t93 267t108.5 202.5t112 169l86 -57q-98 -160 -169 -394.5t-71 -480.5q0 -240 76 -485.5t164 -390.5l-86 -49q-346 469 -346 925z" />
<glyph unicode=")" horiz-adv-x="657" d="M74 -307q88 145 163.5 391t75.5 485q0 246 -70.5 480.5t-168.5 394.5l86 57q63 -90 111 -169t108.5 -202.5t93.5 -267t33 -293.5q0 -456 -346 -925z" />
<glyph unicode="*" horiz-adv-x="927" d="M53 1071l53 176l287 -137l-39 324h191l-37 -320l287 135l55 -174l-303 -71l227 -222l-147 -125l-174 277l-170 -279l-148 123l225 223z" />
<glyph unicode="+" d="M29 680v129h471v469h129v-469h471v-129h-471v-473h-129v473h-471z" />
<glyph unicode="," horiz-adv-x="425" d="M78 115q0 135 135 135q76 0 104.5 -35t30.5 -98v-15q0 -92 -60.5 -228t-107.5 -173l-57 25q63 106 90 272q-4 0 -13.5 -1t-13.5 -1q-109 0 -108 119z" />
<glyph unicode="-" horiz-adv-x="735" d="M117 528v150h501v-150h-501z" />
<glyph unicode="." horiz-adv-x="417" d="M74 112.5q0 135.5 135 135.5t135 -135.5t-135 -135.5t-135 135.5z" />
<glyph unicode="/" horiz-adv-x="1095" d="M23 -410l845 1909h156l-846 -1909h-155z" />
<glyph unicode="0" d="M92 714.5q0 739.5 469 739.5q471 0 471 -739.5t-471 -739.5q-469 0 -469 739.5zM287 715q0 -150 11 -251.5t40 -184t84 -122.5t139 -40t139.5 40t85 122.5t41 184t11.5 251.5q0 303 -57.5 446.5t-219.5 143.5t-218 -143.5t-56 -446.5z" />
<glyph unicode="1" horiz-adv-x="1085" d="M150 979l483 455h143v-1434h-184v1184l-354 -305z" />
<glyph unicode="2" d="M164 0v152q0 117 64.5 225t156.5 191t183 163t155.5 172t64.5 187q0 90 -53 160.5t-160 70.5q-180 0 -356 -107l-51 132q225 113 403 112q205 0 307.5 -95t102.5 -273q0 -82 -35 -159t-91 -137.5t-124.5 -120t-137.5 -118.5t-125 -119.5t-91 -136.5t-35 -156h664v-143 h-842z" />
<glyph unicode="3" d="M113 1395q172 63 348 63q201 0 310.5 -88t109.5 -248q0 -117 -72 -189.5t-180 -101.5q63 -10 111 -27.5t102.5 -56t84 -112.5t29.5 -178q0 -150 -120.5 -262.5t-299 -166t-376.5 -53.5l-23 142q96 0 196.5 17.5t202 53t165 107.5t63.5 166q0 150 -73 213t-232 63h-135 v125h127q113 0 177 74t64 186q0 104 -65.5 153.5t-165.5 49.5q-147 0 -303 -59z" />
<glyph unicode="4" d="M74 391v107l665 936h166v-910h137l-20 -133h-117v-391h-184v391h-647zM258 524h463v660z" />
<glyph unicode="5" d="M137 115q115 0 222.5 20.5t201.5 61.5t151.5 115.5t57.5 172.5q0 139 -78 211t-190 72q-72 0 -156 -18l-133 28l45 656h700v-138h-540l-33 -407q47 18 166 18q178 0 295 -111.5t117 -308.5q0 -236 -230.5 -374t-572.5 -138z" />
<glyph unicode="6" d="M123 621q0 403 155.5 620t442.5 217q74 1 174 -22l-35 -136q-76 14 -139 15q-182 0 -293 -134t-115 -413q41 55 122 103.5t200 48.5q188 0 297.5 -118t109.5 -331q0 -221 -120.5 -358.5t-333.5 -137.5q-465 0 -465 646zM317 604q0 -272 66 -380.5t213 -108.5 q254 0 254 354q0 317 -236 317q-158 0 -297 -182z" />
<glyph unicode="7" d="M150 1290v144h860v-121q-195 -184 -306.5 -518t-111.5 -795h-207q0 696 412 1290h-647z" />
<glyph unicode="8" d="M121 358q0 80 29.5 148.5t72.5 112t87 74t75 44.5l29 13q-246 139 -246 376q0 61 18.5 116.5t61.5 106t123.5 80t191.5 29.5q115 0 196 -30.5t120 -83t54 -105.5t15 -113q0 -61 -26.5 -120.5t-65.5 -99.5t-78 -71.5t-65 -48.5l-27 -14q51 -20 101.5 -50t105.5 -79 t90 -123t35 -162q0 -193 -130 -288t-325 -95q-193 0 -317.5 94.5t-124.5 288.5zM291 358q0 -104 70.5 -172.5t201.5 -68.5q133 0 196.5 66.5t63.5 174.5q0 88 -72.5 173.5t-187.5 144.5q-117 -57 -194.5 -145.5t-77.5 -172.5zM348 1116q0 -84 67.5 -158.5t147.5 -121.5 q90 43 154.5 121.5t64.5 158.5q0 209 -219 209q-215 0 -215 -209z" />
<glyph unicode="9" d="M96 963q0 223 118 360t341 137q459 0 459 -647q0 -406 -152.5 -622t-445.5 -216q-114 0 -180 23l34 135q57 -10 146 -10q184 0 293.5 129t109.5 405q-41 -51 -117.5 -97t-185.5 -46q-201 0 -310.5 117t-109.5 332zM289 965q0 -164 68.5 -241t174.5 -77q160 0 287 152 q0 276 -63.5 398t-200.5 122q-266 0 -266 -354z" />
<glyph unicode=":" horiz-adv-x="536" d="M133 112.5q0 135.5 135 135.5t135 -135.5t-135 -135.5t-135 135.5zM133 940q0 135 135 135t135 -135t-135 -135t-135 135z" />
<glyph unicode=";" horiz-adv-x="536" d="M133 115q0 135 135 135q76 0 104.5 -35t30.5 -98v-15q0 -92 -60 -228t-107 -173l-58 25q63 106 90 272q-4 0 -13 -1t-13 -1q-109 0 -109 119zM133 940q0 135 135 135t135 -135t-135 -135t-135 135z" />
<glyph unicode="&#x3c;" d="M68 676v82l915 391v-162l-690 -266l690 -275v-165z" />
<glyph unicode="=" d="M29 446v129h1071v-129h-1071zM29 836v129h1071v-129h-1071z" />
<glyph unicode="&#x3e;" d="M143 281v165l691 275l-691 266v162l916 -391v-82z" />
<glyph unicode="?" horiz-adv-x="962" d="M113 1376q211 82 364 82q190 0 276.5 -76.5t86.5 -251.5q0 -82 -28 -146t-69 -102t-90 -78t-90 -72t-68.5 -82t-27.5 -111l-2 -113h-121q-16 137 -16 154q0 66 33.5 122t82 98t96.5 85t81.5 103.5t33.5 129.5q0 211 -204 211q-100 0 -306 -72zM297 115q0 135 135 135 t135 -135t-135 -135t-135 135z" />
<glyph unicode="@" horiz-adv-x="2119" d="M133 514q0 453 217 690.5t711 237.5q250 0 432 -63.5t287.5 -181.5t156 -266.5t50.5 -334.5q0 -133 -26 -228.5t-64.5 -149.5t-99 -86t-117 -41t-130.5 -9q-147 0 -205.5 47t-105.5 156q-88 -188 -246 -189q-182 0 -255.5 110.5t-73.5 348.5q0 438 354 438q49 0 92 -22.5 t65.5 -47t47 -57.5t28.5 -37l54 144h90v-565q0 -109 33.5 -159t130.5 -50q141 0 207.5 78.5t66.5 318.5q0 156 -37 277.5t-120 223t-238.5 157t-376.5 55.5q-178 0 -313.5 -39t-222.5 -106.5t-141 -170t-75.5 -218.5t-21.5 -261q0 -182 36.5 -319.5t121.5 -248t240 -168 t376 -57.5q102 0 192 8.5t145.5 16.5t121 28.5t86 28t73.5 31.5l54 25q4 -6 25.5 -49t29.5 -54q-72 -47 -136.5 -76.5t-222 -60.5t-368.5 -31q-928 0 -928 926zM846 555q0 -80 5 -134t19.5 -108.5t46 -82t80.5 -27.5q137 0 224 207v288q-2 4 -19.5 36t-31 52.5t-37 47 t-53 40t-62.5 13.5q-98 0 -135 -87t-37 -245z" />
<glyph unicode="A" horiz-adv-x="1150" d="M37 0l440 1434h197l440 -1434h-184l-125 432h-461l-123 -432h-184zM385 575h379l-162 570l-22 160h-9l-22 -160z" />
<glyph unicode="B" horiz-adv-x="1181" d="M184 0v1434h424q379 0 379 -351q0 -115 -62.5 -192.5t-150.5 -104.5q295 -74 295 -391q0 -193 -120 -294t-296 -101h-469zM369 133h249q133 0 197 71.5t64 190.5q0 137 -54.5 219t-203.5 82h-252v-563zM369 819h202q123 0 177.5 75t54.5 189q0 121 -52.5 169t-166.5 48 h-215v-481z" />
<glyph unicode="C" horiz-adv-x="1107" d="M113 717q0 741 540 741q222 0 361 -100l-53 -137q-156 100 -308 100q-84 0 -146.5 -32t-99 -85t-60 -134t-32 -164t-8.5 -189q0 -135 14.5 -234.5t51.5 -188.5t108.5 -135t177.5 -46q82 0 171.5 32.5t142.5 69.5l49 -137q-152 -102 -373 -103q-272 0 -404 191.5 t-132 550.5z" />
<glyph unicode="D" horiz-adv-x="1243" d="M186 0l4 1434h428q307 0 421 -168t114 -549q0 -115 -16.5 -216.5t-55.5 -194.5t-98 -159.5t-152.5 -106.5t-212.5 -40h-432zM373 133h248q186 0 261.5 144.5t75.5 439.5q0 287 -75.5 435t-259.5 148h-250v-1167z" />
<glyph unicode="E" horiz-adv-x="1075" d="M184 0v1434h770v-144h-585v-469h524v-143h-524v-535h585v-143h-770z" />
<glyph unicode="F" horiz-adv-x="1046" d="M184 0v1434h770v-144h-585v-489h524v-144h-524v-657h-185z" />
<glyph unicode="G" horiz-adv-x="1292" d="M104 716.5q0 741.5 576 741.5q288 0 438 -96l-63 -125q-158 84 -375 84q-94 0 -162.5 -33t-110.5 -85t-67 -133t-33 -164t-8 -189q0 -135 14.5 -234.5t52 -188.5t111.5 -135t182 -46q150 0 285 53v418h-369l-22 143h575v-637l-2 -2q-53 -35 -189 -74t-278 -39 q-555 0 -555 741.5z" />
<glyph unicode="H" horiz-adv-x="1363" d="M184 0v1434h185v-613h626v613h185v-1434h-185v678h-626v-678h-185z" />
<glyph unicode="I" horiz-adv-x="552" d="M184 0v1434h185v-1434h-185z" />
<glyph unicode="J" horiz-adv-x="675" d="M-20 41l47 125q92 -49 161 -49q80 0 104.5 39t24.5 120v1158h185v-1137q0 -178 -65.5 -247.5t-231.5 -69.5q-127 0 -225 61z" />
<glyph unicode="K" horiz-adv-x="1212" d="M184 0v1434h185v-658h28l537 658h225l-577 -670l598 -764h-246l-537 733h-28v-733h-185z" />
<glyph unicode="L" horiz-adv-x="974" d="M184 0v1434h185v-1297h647l-21 -137h-811z" />
<glyph unicode="M" horiz-adv-x="1681" d="M164 0l92 1434h285l297 -1141l10 -121h10l16 121l332 1141h252l60 -1434h-189l-29 1114l5 127h-11l-28 -125l-330 -1116h-188l-304 1118l-24 123h-12l2 -127l-58 -1114h-188z" />
<glyph unicode="N" horiz-adv-x="1320" d="M178 0v1434h172l621 -1119v1119h172v-1434h-172l-621 1116v-1116h-172z" />
<glyph unicode="O" horiz-adv-x="1282" d="M109 716.5q0 364.5 123.5 551t406.5 186.5t407.5 -187.5t124.5 -549.5q0 -365 -124.5 -553.5t-407.5 -188.5q-281 0 -405.5 188.5t-124.5 553zM303 716.5q0 -110.5 6 -190.5t25.5 -166t55.5 -138t98.5 -86t150.5 -34t150.5 34t99.5 87t57.5 137t26.5 165t6 191.5 t-6 190.5t-26.5 164t-57.5 136.5t-99.5 86t-150.5 33.5t-150.5 -33.5t-98.5 -85t-55.5 -136.5t-25.5 -165t-6 -190.5z" />
<glyph unicode="P" d="M184 0v1434h420q225 0 332.5 -98.5t107.5 -342.5q0 -195 -114.5 -313.5t-325.5 -118.5h-235v-561h-185zM369 694h206q156 0 215.5 77t59.5 222q0 152 -55.5 229.5t-219.5 77.5h-206v-606z" />
<glyph unicode="Q" horiz-adv-x="1273" d="M109 717q0 365 123.5 551t406.5 186t407.5 -187.5t124.5 -549.5q0 -332 -102 -517.5t-332 -215.5q2 -47 33 -85t60.5 -54.5t84.5 -41.5l281 -112l-59 -140l-320 140q-76 33 -142.5 103.5t-74.5 182.5q-260 12 -375.5 200t-115.5 540zM303 716.5q0 -110.5 6 -190.5 t25.5 -166t55.5 -138t98.5 -86t150.5 -34t150.5 34t99.5 87t57.5 137t26.5 165t6 191.5t-6 190.5t-26.5 164t-57.5 136.5t-99.5 86t-150.5 33.5t-150.5 -33.5t-98.5 -85t-55.5 -136.5t-25.5 -165t-6 -190.5z" />
<glyph unicode="R" horiz-adv-x="1187" d="M184 0v1434h449q213 0 314.5 -92.5t101.5 -307.5q0 -199 -106.5 -297t-262.5 -104v-6q51 -18 88 -74l338 -553h-213l-367 625h-157v-625h-185zM369 758h233q150 0 201 66.5t51 209.5q0 125 -51.5 195.5t-196.5 70.5h-237v-542z" />
<glyph unicode="S" horiz-adv-x="1146" d="M111 125l63 121q8 -4 73.5 -39t96.5 -48.5t96.5 -29.5t128.5 -16q268 0 269 235q0 123 -54.5 179.5t-226.5 107.5q-49 14 -58.5 17t-58.5 20.5t-63.5 27t-55 33t-57 44t-44 55t-39 71.5t-21.5 86t-10 107q0 82 34 157q96 205 426 205q35 0 68 -3t58.5 -7t55 -14.5 t46 -15.5t45 -18.5t39 -18.5t39 -20.5t34.5 -19.5l-63 -124q-10 6 -44 23t-49.5 24.5t-47 20.5t-56 19.5t-57.5 11.5t-66 5q-125 0 -202.5 -56.5t-77.5 -168.5q0 -123 59.5 -175.5t247.5 -113.5q76 -25 123 -44.5t102.5 -55t86 -79.5t52 -114t21.5 -160q0 -379 -455 -379 q-104 0 -203.5 29t-143.5 53.5t-111 67.5z" />
<glyph unicode="T" horiz-adv-x="1083" d="M63 1290v144h955v-144h-381v-1290h-184v1290h-390z" />
<glyph unicode="U" horiz-adv-x="1312" d="M184 442v992h185v-1039q0 -147 70.5 -214.5t224.5 -67.5q158 0 230 58q71 56 71 196v8v1059h163v-992q0 -254 -102 -360.5t-362 -106.5q-270 0 -375 105.5t-105 361.5z" />
<glyph unicode="V" horiz-adv-x="1208" d="M63 1434h197l320 -1149l18 -150h8l19 150l319 1149h197l-441 -1434h-196z" />
<glyph unicode="W" horiz-adv-x="1720" d="M63 1434h177l235 -1112l12 -177h13l14 177l242 1112h192l242 -1106l14 -174h13l12 174l241 1106h170l-337 -1434h-193l-236 1126l-18 170h-8l-19 -170l-235 -1126h-193z" />
<glyph unicode="X" horiz-adv-x="1118" d="M61 0l396 696l-396 738h205l293 -594l313 594h185l-395 -697l395 -737h-205l-293 592l-313 -592h-185z" />
<glyph unicode="Y" horiz-adv-x="1097" d="M49 1434h187l286 -631l23 -109h8l22 109l283 631h186l-403 -840v-594h-184v594z" />
<glyph unicode="Z" horiz-adv-x="1118" d="M63 0v137l701 1166l-59 -13h-625v144h889v-134l-711 -1171l70 14h673v-143h-938z" />
<glyph unicode="[" horiz-adv-x="722" d="M184 -356v1857h447v-119h-275v-1620h275v-118h-447z" />
<glyph unicode="\" horiz-adv-x="1185" d="M90 1499h156l846 -1909h-156z" />
<glyph unicode="]" horiz-adv-x="753" d="M154 -238h274v1620h-274v119h446v-1857h-446v118z" />
<glyph unicode="^" d="M125 518l391 916h82l395 -916h-166l-274 690l-266 -690h-162z" />
<glyph unicode="_" horiz-adv-x="1091" d="M10 0h1071v-129h-1071v129z" />
<glyph unicode="`" horiz-adv-x="407" d="M-61 1632l141 66l178 -420l-98 -45z" />
<glyph unicode="a" horiz-adv-x="1091" d="M109 266q0 150 88 223.5t266 92.5q39 4 293 16v174q0 92 -54.5 149.5t-148.5 57.5q-176 0 -360 -107l-43 127q174 100 403 101q375 0 375 -373v-727h-107l-28 139q-168 -164 -330 -164q-170 0 -262 64.5t-92 226.5zM293 266q0 -96 39 -134t131 -38q160 0 293 133v273 q-154 -10 -293 -35q-92 -16 -131 -59.5t-39 -139.5z" />
<glyph unicode="b" horiz-adv-x="1161" d="M164 0v1581h172v-620q49 57 135 98t191 41q121 0 201.5 -41t122.5 -123t57.5 -178t15.5 -229.5t-15.5 -226.5t-57.5 -171t-123 -117t-201 -39q-207 0 -351 158l-30 -133h-117zM336 219q154 -121 326 -121q112 0 162 104q49 103 50 330q0 445 -212 445q-164 0 -326 -127 v-631z" />
<glyph unicode="c" horiz-adv-x="985" d="M102 532q0 262 107.5 415t341.5 153q209 -1 344 -101l-45 -129q-145 100 -299 101q-139 0 -200.5 -106.5t-61.5 -332.5q0 -428 262 -428q154 0 299 101l45 -129q-133 -100 -344 -101q-449 0 -449 557z" />
<glyph unicode="d" horiz-adv-x="1181" d="M117 528q0 272 92 422t326 150q201 0 305 -139v620h172v-1581h-117l-31 133q-49 -70 -135 -114t-194 -44q-123 0 -206 39t-129 116t-64.5 172t-18.5 226zM301 528q0 -430 234 -430q182 0 305 121v631q-139 127 -305 127q-113 0 -173.5 -113.5t-60.5 -335.5z" />
<glyph unicode="e" horiz-adv-x="1112" d="M109 528q0 260 116.5 416t356.5 156q242 0 329.5 -132t87.5 -446h-704v-51q0 -193 85 -283t204 -90q203 0 352 86l47 -129q-147 -80 -399 -80q-475 0 -475 553zM295 629h534q0 178 -52 267t-195.5 89t-215 -102.5t-71.5 -253.5z" />
<glyph unicode="f" horiz-adv-x="823" d="M70 963v112h180v180q0 182 80 254t248 72q94 0 256 -63l-54 -117q-8 2 -39.5 15.5t-52 20.5t-52.5 14t-58 7q-86 0 -121 -39t-35 -147v-197h350v-112h-350v-963h-172v963h-180z" />
<glyph unicode="g" horiz-adv-x="1208" d="M84 -121q0 100 57.5 169t157.5 91q-2 0 -12.5 5.5t-15.5 8.5t-16 10t-19.5 14t-17.5 17.5t-14 22.5t-9.5 27.5t-4.5 34t3.5 34t13.5 28.5t16 22.5t22.5 21.5t23.5 16.5t27.5 16.5t25.5 14q-76 29 -122 111t-46 188q0 369 421 369q188 0 302 -80q25 14 105.5 36.5 t141.5 30.5l41 -143l-209 -18q43 -82 43 -195q0 -190 -105.5 -267t-318.5 -77q-59 0 -110 6q-4 -4 -24.5 -18.5t-33 -24.5t-23.5 -30.5t-11 -43.5q0 -106 205 -106q507 0 507 -290q0 -179 -127 -256t-383 -77q-254 0 -372.5 77t-118.5 255zM266 -119q0 -106 64.5 -162.5 t245 -56.5t254 57.5t73.5 161.5q0 82 -72.5 127t-255.5 45q-180 0 -244.5 -44t-64.5 -128zM338 731q0 -127 51 -184.5t186 -57.5q137 0 188.5 51.5t51.5 190.5q0 129 -53 192.5t-187 63.5q-127 0 -182 -64.5t-55 -191.5z" />
<glyph unicode="h" horiz-adv-x="1173" d="M164 0v1581h172v-620q131 139 328 139q346 0 346 -283v-817h-172v793q0 184 -174 184q-168 0 -328 -127v-850h-172z" />
<glyph unicode="i" horiz-adv-x="557" d="M154 1421q0 125 124.5 125t124.5 -125t-124.5 -125t-124.5 125zM193 0v1075h172v-1075h-172z" />
<glyph unicode="j" horiz-adv-x="550" d="M-94 -424l35 117q74 -23 116 -23q72 0 104 45t32 162v1198h172v-1202q0 -162 -80 -244t-228 -82q-70 0 -151 29zM152 1421q0 125 124.5 125t124.5 -125t-124.5 -125t-124.5 125z" />
<glyph unicode="k" horiz-adv-x="1054" d="M164 0v1581h172v-1008h18l410 502h219l-457 -506l469 -569h-223l-420 557h-16v-557h-172z" />
<glyph unicode="l" horiz-adv-x="618" d="M164 289v1282h172v-1288q0 -184 125 -185q47 0 151 33l29 -115q-82 -41 -192 -41q-285 1 -285 314z" />
<glyph unicode="m" horiz-adv-x="1753" d="M164 0v1075h115l26 -114q121 139 320 139q244 0 301 -139q135 139 325 139q88 0 158 -20.5t125 -87t55 -175.5v-817h-172v793q0 88 -51 141t-137 53q-154 0 -266 -137v-850h-172v793q0 88 -50.5 141t-136.5 53q-156 0 -268 -137v-850h-172z" />
<glyph unicode="n" horiz-adv-x="1173" d="M164 0v1075h115l32 -114q55 45 88 67.5t106 47t159 24.5q346 0 346 -283v-817h-172v793q0 184 -174 184q-168 0 -328 -127v-850h-172z" />
<glyph unicode="o" horiz-adv-x="1140" d="M96 528q0 571 473 572q475 0 475 -572q0 -264 -108.5 -408.5t-366.5 -144.5t-365.5 143.5t-107.5 409.5zM281 528q0 -100 11 -172.5t40.5 -137t89 -97.5t147.5 -33q174 0 232.5 105.5t58.5 334.5q0 233 -59.5 346t-231.5 113q-88 0 -147.5 -36t-89 -104.5t-40.5 -142.5 t-11 -176z" />
<glyph unicode="p" horiz-adv-x="1173" d="M164 -453v1528h117l30 -133q147 158 353 158q121 0 201.5 -41t121.5 -124t56.5 -177t15.5 -230q0 -133 -15.5 -226t-56.5 -171t-122 -117t-201 -39q-184 0 -328 119v-547h-172zM336 205q135 -107 328 -107q111 0 160.5 103.5t49.5 326.5q0 227 -50 338t-160 111 q-170 0 -328 -123v-649z" />
<glyph unicode="q" horiz-adv-x="1157" d="M94 528.5q0 135.5 15.5 229.5t55.5 177t120 124t200 41q209 0 357 -158l30 133h117v-1528h-172v564q-152 -135 -332 -136q-121 0 -200.5 38t-120.5 117t-55.5 171t-14.5 227.5zM279 528q0 -225 47.5 -327.5t158.5 -102.5q160 0 332 123v633q-158 123 -332 123 q-111 0 -158.5 -110.5t-47.5 -338.5z" />
<glyph unicode="r" horiz-adv-x="788" d="M164 0v1075h117l30 -133q127 158 277 158q92 0 162 -33l-39 -141q-74 37 -138 37q-66 0 -129 -46.5t-108 -115.5v-801h-172z" />
<glyph unicode="s" horiz-adv-x="978" d="M106 55l44 125q180 -82 323 -82q104 0 165.5 39t61.5 117q0 76 -43 114t-184 81q-57 18 -90 29t-88 42t-85 64.5t-54.5 92t-24.5 130.5q0 156 104.5 224.5t247.5 68.5q205 0 363 -72l-51 -125q-147 74 -283 74q-215 0 -215 -162q0 -76 46 -114.5t198 -88.5 q57 -18 87.5 -29.5t75 -33t69 -44t50 -57t35.5 -80.5t10 -106q0 -287 -395 -287q-203 0 -367 80z" />
<glyph unicode="t" horiz-adv-x="823" d="M45 963v112h195l36 359h132v-359h340v-112h-340v-662q0 -115 34.5 -159t102.5 -44q76 0 196 56l39 -113q-119 -66 -235 -66q-309 0 -309 330v658h-191z" />
<glyph unicode="u" horiz-adv-x="1173" d="M164 258v817h172v-792q0 -185 174 -185q168 0 328 127v850h172v-1075h-115l-33 115q-55 -45 -88 -67.5t-105.5 -47.5t-158.5 -25q-346 0 -346 283z" />
<glyph unicode="v" horiz-adv-x="1024" d="M47 1075h189l264 -864l16 -107h12l17 107l239 864h179l-342 -1075h-207z" />
<glyph unicode="w" horiz-adv-x="1476" d="M51 1075h172l178 -790l9 -133h16l14 133l217 790h185l213 -790l14 -133h16l13 133l174 790h151l-249 -1075h-185l-231 844l-13 147h-12l-12 -147l-229 -844h-179z" />
<glyph unicode="x" horiz-adv-x="1060" d="M72 0l348 532l-328 543h184l252 -432l248 432h185l-330 -528l350 -547h-184l-267 432l-274 -432h-184z" />
<glyph unicode="y" horiz-adv-x="1085" d="M66 1075h190l274 -825l25 -133h10l23 133l231 825h189l-295 -887q-20 -66 -45 -151.5t-44.5 -147t-43.5 -122.5q-41 -109 -103.5 -164.5t-165.5 -55.5q-113 0 -219 54l43 114q90 -45 162 -45q47 0 74.5 23.5t54.5 79.5l55 166z" />
<glyph unicode="z" horiz-adv-x="968" d="M84 0v141l588 822l-119 -11h-453v123h758v-133l-600 -829l111 10h522v-123h-807z" />
<glyph unicode="{" horiz-adv-x="831" d="M154 512v123h61q53 0 75.5 66.5t22.5 140.5v452q0 100 60.5 153.5t165.5 53.5h139v-119h-70q-31 0 -49 -3t-36.5 -14t-28 -38t-9.5 -67v-463q0 -96 -52 -154.5t-111 -69.5q61 -10 112 -69.5t51 -175.5v-430q0 -88 28 -112t95 -24h70v-118h-139q-94 0 -160 51t-66 137v471 q0 209 -106 209h-53z" />
<glyph unicode="|" horiz-adv-x="471" d="M164 -412v1911h143v-1911h-143z" />
<glyph unicode="}" horiz-adv-x="831" d="M154 -238h69q45 0 67.5 6.5t39 37t16.5 92.5v430q0 117 51.5 176t112.5 69q-59 10 -111.5 68.5t-52.5 155.5v463q0 41 -9 67.5t-27.5 37.5t-37 14t-49.5 3h-69v119h139q104 0 164.5 -53t60.5 -154v-452q0 -74 22.5 -140.5t75.5 -66.5h62v-123h-53q-106 0 -107 -209v-471 q0 -86 -65.5 -137t-159.5 -51h-139v118z" />
<glyph unicode="~" d="M45 854l84 86q2 -4 18.5 -21.5t24.5 -26.5t25.5 -25.5t31 -27t30.5 -21.5t35.5 -16t35.5 -5q47 0 126 59t170 118.5t167 59.5q88 0 161.5 -58.5t118.5 -121.5l-72 -94q-8 6 -39.5 35.5t-53 47t-54.5 34t-61 16.5q-35 0 -90.5 -38t-106.5 -82t-125 -82t-141 -38 q-84 0 -160 64.5t-125 136.5z" />
<glyph unicode="&#xa5;" horiz-adv-x="1290" d="M59 1434h187l286 -631l9 -21h37l8 21l282 631h187l-314 -652h316v-129h-377l-29 -59v-68h404v-129h-404v-397h-184v397h-401v129h401v68l-29 59h-370v129h307z" />
<glyph unicode="&#xa8;" horiz-adv-x="681" d="M0 1360q0 123 123 123t123 -123t-123 -123t-123 123zM436 1360q0 123 123 123t123 -123t-123 -123t-123 123z" />
<glyph unicode="&#xa9;" horiz-adv-x="1910" d="M0 542.5q0 194.5 46 351.5t146.5 283t279.5 195.5t427 69.5t427 -69.5t279.5 -195.5t146.5 -283t46 -351.5t-46 -351t-146.5 -282.5t-279.5 -195.5t-427 -69.5t-427 69.5t-279.5 195.5t-146.5 282.5t-46 351zM166 543q0 -170 30.5 -296t106.5 -234.5t226.5 -166 t369.5 -57.5t369.5 57.5t226.5 166t106.5 234.5t30.5 296t-30.5 296t-106.5 234.5t-226.5 165.5t-369.5 57t-369.5 -57t-226.5 -165.5t-106.5 -234.5t-30.5 -296zM512 561q0 66 7 126.5t34 138t71 133t125.5 94.5t192.5 39q104 0 223 -70l-20 -127q-129 55 -205 55 q-158 0 -214 -94t-56 -291q0 -76 3 -124t17.5 -114.5t42 -106.5t80.5 -68.5t129 -28.5q90 0 223 70l27 -125q-119 -82 -264 -82q-127 0 -211 40t-128 120.5t-60.5 178t-16.5 236.5z" />
<glyph unicode="&#xab;" horiz-adv-x="935" d="M102 557l220 412h163l-198 -412l198 -420h-163zM451 557l219 412h164l-199 -412l199 -420h-164z" />
<glyph unicode="&#xad;" horiz-adv-x="735" d="M117 528v150h501v-150h-501z" />
<glyph unicode="&#xae;" horiz-adv-x="1155" d="M57 991q0 213 123 347.5t369 134.5t368.5 -134.5t122.5 -347.5t-122.5 -347t-368.5 -134t-369 134t-123 347zM172 991q0 -166 97.5 -274.5t279.5 -108.5t279.5 108.5t97.5 274.5t-96.5 274.5t-280.5 108.5t-280.5 -108.5t-96.5 -274.5zM399 725v535h168q154 0 154 -150 q0 -61 -29.5 -103t-66.5 -49l28 -30l90 -203h-98l-98 231h-58v-231h-90zM489 1018q4 0 15.5 -3t30.5 -3q94 0 94 98q0 90 -92 90q-14 0 -28.5 -1t-19.5 -1v-180z" />
<glyph unicode="&#xb4;" horiz-adv-x="317" d="M39 1278l178 420l141 -66l-221 -399z" />
<glyph unicode="&#xbb;" horiz-adv-x="976" d="M123 137l199 420l-199 412h164l219 -412l-219 -420h-164zM471 137l199 420l-199 412h164l219 -412l-219 -420h-164z" />
<glyph unicode="&#xd6;" horiz-adv-x="1282" d="M109 716.5q0 364.5 123.5 551t406.5 186.5t407.5 -187.5t124.5 -549.5q0 -365 -124.5 -553.5t-407.5 -188.5q-281 0 -405.5 188.5t-124.5 553zM301 1704q0 123 123 123t123 -123t-123 -123t-123 123zM303 716.5q0 -110.5 6 -190.5t25.5 -166t55.5 -138t98.5 -86 t150.5 -34t150.5 34t99.5 87t57.5 137t26.5 165t6 191.5t-6 190.5t-26.5 164t-57.5 136.5t-99.5 86t-150.5 33.5t-150.5 -33.5t-98.5 -85t-55.5 -136.5t-25.5 -165t-6 -190.5zM737 1704q0 123 123 123t123 -123t-123 -123t-123 123z" />
<glyph unicode="&#xdc;" horiz-adv-x="1312" d="M184 442v992h185v-1039q0 -147 70.5 -214.5t224.5 -67.5q158 0 230.5 58t70.5 204v1059h163v-992q0 -254 -102 -360.5t-362 -106.5q-270 0 -375 105.5t-105 361.5zM330 1704q0 123 122.5 123t122.5 -123t-122.5 -123t-122.5 123zM766 1704q0 123 123 123t123 -123 t-123 -123t-123 123z" />
<glyph unicode="&#xf6;" horiz-adv-x="1140" d="M96 528q0 571 473 572q475 0 475 -572q0 -264 -108.5 -408.5t-366.5 -144.5t-365.5 143.5t-107.5 409.5zM229 1360q0 123 123 123t123 -123t-123 -123t-123 123zM281 528q0 -100 11 -172.5t40.5 -137t89 -97.5t147.5 -33q174 0 232.5 105.5t58.5 334.5q0 233 -59.5 346 t-231.5 113q-88 0 -147.5 -36t-89 -104.5t-40.5 -142.5t-11 -176zM666 1360q0 123 122.5 123t122.5 -123t-122.5 -123t-122.5 123z" />
<glyph unicode="&#xfc;" horiz-adv-x="1173" d="M164 258v817h172v-792q0 -185 174 -185q168 0 328 127v850h172v-1075h-115l-33 115q-55 -45 -88 -67.5t-105.5 -47.5t-158.5 -25q-346 0 -346 283zM254 1360q0 123 123 123t123 -123t-123 -123t-123 123zM690 1360q0 123 123 123t123 -123t-123 -123t-123 123z" />
<glyph unicode="&#x131;" horiz-adv-x="557" d="M193 0v1075h172v-1075h-172z" />
<glyph unicode="&#x401;" horiz-adv-x="1073" d="M184 0v1434h770v-144h-585v-469h524v-143h-524v-535h585v-143h-770zM268 1704q0 123 123 123t123 -123t-123 -123t-123 123zM645 1704q0 123 123 123t123 -123t-123 -123t-123 123z" />
<glyph unicode="&#x402;" horiz-adv-x="1433" d="M31 1290l20 144h893l-20 -144h-340v-387q174 197 348 197q338 0 338 -344v-883q0 -162 -80 -244t-227 -82q-82 0 -164 29l24 125q6 -2 26.5 -10t40 -13.5t40.5 -5.5q86 0 120.5 44t34.5 163v842q0 135 -31.5 188.5t-150.5 53.5q-162 0 -319 -236v-727h-185v1290h-368z " />
<glyph unicode="&#x403;" horiz-adv-x="999" d="M184 0v1434h750l-21 -144h-544v-1290h-185zM500 1552l184 330h184l-243 -330h-125z" />
<glyph unicode="&#x404;" horiz-adv-x="1157" d="M121 717q0 365 129 553t426 188q184 0 356 -96l-47 -125q-2 0 -20.5 10t-30.5 15.5t-37 15.5t-47.5 16t-51 13.5t-59 10.5t-63.5 3q-188 0 -268 -135t-91 -375h553l-20 -143h-535q2 -127 17.5 -218.5t51.5 -172t105.5 -122.5t172.5 -42q29 0 56 3t47.5 7t45.5 11t40 12.5 t36.5 15.5t30 15t29 15.5t22.5 12.5l63 -121q-178 -109 -377 -109q-283 0 -408.5 189.5t-125.5 552.5z" />
<glyph unicode="&#x405;" horiz-adv-x="1056" d="M72 125l63 121q8 -4 73.5 -39t96.5 -48.5t96.5 -29.5t128.5 -16q268 0 269 235q0 123 -54.5 179.5t-226.5 107.5q-49 14 -58 17t-58.5 20.5t-63.5 27t-55 33t-57.5 44t-44 55t-39 71.5t-21.5 86t-10 107q0 180 129 271t331 91q35 0 68 -3t58.5 -7t55 -14.5t46 -15.5 t45 -18.5t39 -18.5t39 -20.5t34.5 -19.5l-63 -124q-10 6 -44 23t-49.5 24.5t-47 20.5t-56 19.5t-57.5 11.5t-66 5q-125 0 -202.5 -56.5t-77.5 -168.5q0 -123 59.5 -175.5t247.5 -113.5q76 -25 123 -44.5t102.5 -55t86 -79.5t52 -114t21.5 -160q0 -379 -455 -379 q-104 0 -203.5 29t-143.5 53.5t-111 67.5z" />
<glyph unicode="&#x406;" horiz-adv-x="512" d="M164 0v1434h184v-1434h-184z" />
<glyph unicode="&#x407;" horiz-adv-x="724" d="M61 1704q0 123 123 123t123 -123t-123 -123t-123 123zM268 0v1434h185v-1434h-185zM418 1704q0 123 123 123t123 -123t-123 -123t-123 123z" />
<glyph unicode="&#x408;" horiz-adv-x="696" d="M10 55l56 135q4 -4 17 -14t18 -14t16.5 -12.5t17.5 -11.5t17.5 -8t20.5 -7t22.5 -4t25.5 -2q86 0 111.5 39t25.5 120v1158h185v-1137q0 -180 -68 -248.5t-254 -68.5q-119 0 -211 75z" />
<glyph unicode="&#x409;" horiz-adv-x="1839" d="M31 119q25 0 46 3t32.5 6t28 13.5t20.5 13.5t21.5 20.5l19.5 19.5q55 51 85.5 374.5t30.5 864.5h768v-623h273q209 0 321.5 -84t112.5 -301q0 -242 -111.5 -334t-318.5 -92h-461v1290h-414q0 -928 -131 -1136q-111 -178 -276 -179h-15zM1083 143h238q150 0 212 68t62 215 q0 150 -57 196t-217 46h-238v-525z" />
<glyph unicode="&#x40a;" horiz-adv-x="1978" d="M184 0v1434h185v-623h626v623h185v-623h272q203 0 318.5 -95t115.5 -298q0 -418 -430 -418h-461v668h-626v-668h-185zM1180 143h237q147 0 211 69t64 206q0 141 -60.5 195.5t-214.5 54.5h-237v-525z" />
<glyph unicode="&#x40b;" horiz-adv-x="1419" d="M31 1290l20 144h893l-20 -144h-340v-387q174 197 348 197q338 0 338 -344v-756h-185v721q0 135 -31.5 188.5t-150.5 53.5q-162 0 -319 -236v-727h-185v1290h-368z" />
<glyph unicode="&#x40c;" horiz-adv-x="1185" d="M154 0v1434h184v-623h168q61 0 110.5 40t69.5 110l102 301q33 100 107 148t215 48l27 -131q-158 -16 -187 -108l-73 -232q-61 -188 -246 -239q72 -4 146.5 -60.5t96.5 -132.5l105 -326q39 -123 168 -123l-29 -131q-141 0 -216 55.5t-114 180.5l-88 276q-59 180 -198 181 h-164v-668h-184zM543 1552l184 330h184l-243 -330h-125z" />
<glyph unicode="&#x40e;" horiz-adv-x="1191" d="M66 1434h186l356 -883l27 -117h8l27 117l278 883h185l-414 -1174q-63 -168 -133 -226.5t-178 -58.5q-123 0 -238 64l41 129q104 -49 197 -49q35 0 59.5 10t41.5 35.5t25.5 43t24.5 58.5zM297 1751l109 64q0 -12 19 -41t72.5 -62t123 -33t122 33t72 62.5t19.5 40.5 l108 -64q0 -10 -10 -32.5t-36 -53.5t-60.5 -58.5t-92 -47t-125.5 -19.5q-70 0 -128 19.5t-93 47t-58.5 59.5t-32.5 53.5t-9 31.5z" />
<glyph unicode="&#x40f;" horiz-adv-x="1363" d="M184 0v1434h185v-1293h626v1293h185v-1434h-406v-356h-184v356h-406z" />
<glyph unicode="&#x410;" horiz-adv-x="1150" d="M37 0l440 1434h197l440 -1434h-184l-125 432h-461l-123 -432h-184zM385 575h379l-162 570l-22 160h-9l-22 -160z" />
<glyph unicode="&#x411;" horiz-adv-x="1185" d="M184 0v1434h768l-20 -144h-563v-422h227q238 0 355.5 -87t117.5 -335q0 -227 -116.5 -336.5t-360.5 -109.5h-408zM369 143h217q166 0 227 70t61 233q0 154 -60 216.5t-222 62.5h-223v-582z" />
<glyph unicode="&#x412;" horiz-adv-x="1173" d="M184 0v1434h449q377 0 377 -351q0 -117 -66.5 -193.5t-155.5 -96.5v-7q145 -33 213 -114.5t68 -276.5q0 -193 -120 -294t-296 -101h-469zM369 133h249q133 0 197 71.5t64 190.5q0 53 -4.5 91t-19.5 81t-42 69t-76 43t-116 17h-252v-563zM369 819h202q125 0 189.5 77 t64.5 187q0 121 -56 170.5t-171 49.5h-229v-484z" />
<glyph unicode="&#x413;" horiz-adv-x="999" d="M184 0v1434h750l-21 -144h-544v-1290h-185z" />
<glyph unicode="&#x414;" horiz-adv-x="1392" d="M49 143h121q74 88 113 219q84 287 84 1072h780v-1291h172l-21 -563h-163v420h-902l-20 -420h-164v563zM340 143h623v1147h-426q0 -307 -24.5 -571.5t-63.5 -368.5q-57 -152 -109 -207z" />
<glyph unicode="&#x415;" horiz-adv-x="1073" d="M184 0v1434h770v-144h-585v-469h524v-143h-524v-535h585v-143h-770z" />
<glyph unicode="&#x416;" horiz-adv-x="1789" d="M94 86q145 6 164 102l84 367q18 82 87 145.5t138 67.5q-98 27 -137 59q-61 53 -84 160l-53 242q-6 43 -61.5 77.5t-129.5 41.5l29 110q113 0 212 -50t116 -148l53 -299q10 -57 72.5 -103.5t117.5 -46.5h105v623h184v-623h105q55 0 117.5 46t72.5 104l53 301 q16 98 115.5 147t212.5 49l29 -110q-76 -6 -130.5 -40t-60.5 -77l-53 -244q-10 -51 -32.5 -90t-38 -58.5t-54.5 -37t-46 -19.5t-50 -14q70 -4 138.5 -67.5t86.5 -145.5l84 -367q18 -96 164 -102l-29 -111q-115 0 -208 59.5t-115 174.5l-52 278q-12 70 -73.5 138.5 t-124.5 68.5h-111v-694h-184v694h-111q-63 0 -124.5 -68.5t-73.5 -138.5l-52 -278q-20 -113 -114 -173.5t-209 -60.5z" />
<glyph unicode="&#x417;" horiz-adv-x="1079" d="M106 63l64 121q131 -76 285 -75q305 0 305 301q0 94 -54.5 156.5t-119 82t-131.5 19.5h-170l-21 143h191q100 0 182 70.5t82 197.5q0 129 -67.5 187.5t-170.5 58.5q-135 0 -278 -74l-58 121q172 86 336 86q428 0 428 -371q0 -109 -78.5 -200.5t-162.5 -112.5v-4v-2 q283 -80 282 -362q0 -223 -125 -327t-370 -104q-94 0 -191.5 26t-157.5 62z" />
<glyph unicode="&#x418;" horiz-adv-x="1439" d="M184 0v1434h178v-1084l-16 -141l10 -2l58 143l678 1084h163v-1434h-178v1083l21 142l-11 2l-61 -144l-657 -1083h-185z" />
<glyph unicode="&#x419;" horiz-adv-x="1439" d="M184 0v1434h178v-1084l-16 -141l10 -2l58 143l678 1084h163v-1434h-178v1083l21 142l-11 2l-61 -144l-657 -1083h-185zM397 1751l109 64q0 -12 19.5 -41t72.5 -62t123 -33t122 33t71.5 62.5t19.5 40.5l108 -64q0 -10 -10 -32.5t-35.5 -53.5t-60.5 -58.5t-92 -47 t-125 -19.5q-70 0 -128.5 19.5t-93 47t-58 59.5t-33 53.5t-9.5 31.5z" />
<glyph unicode="&#x41a;" horiz-adv-x="1263" d="M184 0v1434h185v-623h168q61 0 110 40t70 110l100 303q35 102 104.5 148t219.5 46l24 -133q-158 -16 -184 -106l-74 -232q-27 -84 -63.5 -132t-67.5 -65.5t-90 -35.5v-9q80 -8 138.5 -61t80.5 -129l105 -326q39 -123 168 -123l-29 -131q-145 0 -218 55.5t-112 180.5 l-88 276q-59 180 -199 181h-163v-668h-185z" />
<glyph unicode="&#x41b;" horiz-adv-x="1286" d="M45 113q109 14 160 71q135 150 135 1250h762v-1434h-184v1290h-426q0 -950 -125 -1149q-53 -88 -136.5 -123.5t-150.5 -35.5h-6z" />
<glyph unicode="&#x41c;" horiz-adv-x="1705" d="M170 0l98 1434h289l305 -1141l8 -131h13l14 131l340 1141h252l59 -1434h-188l-27 1114l8 127h-16l-29 -125l-335 -1116h-205l-299 1118l-25 125h-14l4 -129l-53 -1114h-199z" />
<glyph unicode="&#x41d;" horiz-adv-x="1363" d="M184 0v1434h185v-623h626v623h185v-1434h-185v668h-626v-668h-185z" />
<glyph unicode="&#x41e;" horiz-adv-x="1275" d="M102 716.5q0 364.5 124 551t406.5 186.5t407.5 -187.5t125 -549.5q0 -365 -125 -553.5t-407 -188.5q-281 0 -406 188.5t-125 553zM297 716.5q0 -110.5 6 -190.5t25.5 -166t55.5 -138t98.5 -86t150.5 -34t150.5 34t99.5 87t57.5 137t26.5 165t6 191.5t-6 190.5t-26.5 164 t-57.5 136.5t-99.5 86t-150.5 33.5t-150.5 -33.5t-98.5 -85t-55.5 -136.5t-25.5 -165t-6 -190.5z" />
<glyph unicode="&#x41f;" horiz-adv-x="1347" d="M184 0v1434h979v-1434h-184v1296h-610v-1296h-185z" />
<glyph unicode="&#x420;" horiz-adv-x="1134" d="M184 0v1434h420q225 0 332.5 -98.5t107.5 -342.5q0 -195 -114.5 -313.5t-325.5 -118.5h-235v-561h-185zM369 694h206q156 0 215.5 77t59.5 222q0 152 -55.5 229.5t-219.5 77.5h-206v-606z" />
<glyph unicode="&#x421;" d="M113 717q0 741 540 741q222 0 361 -100l-53 -137q-156 100 -308 100q-84 0 -146.5 -32t-99 -85t-60 -134t-32 -164t-8.5 -189q0 -135 14.5 -234.5t51.5 -188.5t108.5 -135t177.5 -46q82 0 171.5 32.5t142.5 69.5l49 -137q-152 -102 -373 -103q-272 0 -404 191.5 t-132 550.5z" />
<glyph unicode="&#x422;" horiz-adv-x="1052" d="M37 1290v144h954v-144h-381v-1290h-184v1290h-389z" />
<glyph unicode="&#x423;" horiz-adv-x="1191" d="M66 1434h186l356 -883l27 -117h8l25 117l280 883h185l-414 -1174q-63 -170 -130 -227.5t-175 -57.5q-129 0 -236 64l41 129q119 -49 189 -49q35 0 59.5 10t41.5 35.5t25.5 43t24.5 58.5z" />
<glyph unicode="&#x424;" horiz-adv-x="1525" d="M90 778q0 565 479 565q33 0 90 -4l3 177h184v-177q57 4 92 4q143 0 241.5 -44t147.5 -126.5t68.5 -176t19.5 -218.5q0 -565 -477 -565h-92v-213h-184l-3 213h-90q-143 0 -241.5 44t-148.5 127t-69.5 176t-19.5 218zM266 778q0 -438 303 -438q41 0 90 8v869h-90 q-94 0 -156.5 -34t-93 -99.5t-42 -136.5t-11.5 -169zM846 348q49 -8 92 -8q94 0 156.5 34t93.5 99.5t42 136t11 168.5q0 438 -303 439h-92v-869z" />
<glyph unicode="&#x425;" horiz-adv-x="1159" d="M72 0l395 713l-387 721h207l293 -588l307 588h190l-391 -689l397 -745h-211l-297 594l-315 -594h-188z" />
<glyph unicode="&#x426;" horiz-adv-x="1394" d="M184 0v1434h185v-1291h596v1291h184v-1291h164l-19 -563h-161l-3 420h-946z" />
<glyph unicode="&#x427;" horiz-adv-x="1214" d="M109 973v461h182v-492q0 -133 58.5 -188.5t197.5 -55.5q66 0 141.5 7.5t118.5 15.5l41 6v707h182v-1434h-184v602q-147 -45 -311 -45q-242 0 -334 101.5t-92 314.5z" />
<glyph unicode="&#x428;" horiz-adv-x="1859" d="M184 0v1434h185v-1291h469v1291h184v-1291h469v1291h184v-1434h-1491z" />
<glyph unicode="&#x429;" horiz-adv-x="1921" d="M184 0v1434h185v-1291h469v1291h184v-1291h469v1291h184v-1291h172l-20 -563h-164l-2 420h-1477z" />
<glyph unicode="&#x42a;" horiz-adv-x="1296" d="M-61 1290v144h573v-541h272q201 0 318 -105.5t117 -326.5q0 -223 -118 -342t-313 -119h-460v1290h-389zM512 143h238q150 0 212 78t62 240q0 158 -61.5 223.5t-212.5 65.5h-238v-607z" />
<glyph unicode="&#x42b;" horiz-adv-x="1665" d="M184 0v1434h185v-541h272q201 0 317.5 -105.5t116.5 -326.5q0 -223 -117.5 -342t-312.5 -119h-461zM369 139h241q150 0 213.5 79t63.5 243q0 158 -61.5 225.5t-215.5 67.5h-241v-615zM1296 0v1434h185v-1434h-185z" />
<glyph unicode="&#x42c;" horiz-adv-x="1167" d="M184 0v1434h185v-541h272q201 0 317.5 -105.5t116.5 -326.5q0 -223 -117.5 -342t-312.5 -119h-461zM369 143h237q150 0 212.5 78t62.5 240q0 158 -61.5 223.5t-213.5 65.5h-237v-607z" />
<glyph unicode="&#x42d;" horiz-adv-x="1128" d="M100 90l58 133q6 -4 38.5 -23.5t45 -26.5t46.5 -22.5t59.5 -20.5t66.5 -11t86 -6q307 0 317 555h-534l-21 143h553q-6 154 -33.5 260.5t-95.5 176t-174 69.5q-193 0 -356 -98l-43 139q172 100 397 100q502 0 502 -741q0 -354 -129 -548t-383 -194q-111 0 -201 24t-121 41 t-78 50z" />
<glyph unicode="&#x42e;" horiz-adv-x="1847" d="M184 0v1434h185v-623h305q14 317 139 480t389 163q283 0 408 -187.5t125 -549.5q0 -365 -125 -553.5t-408 -188.5q-272 0 -397 176.5t-133 516.5h-303v-668h-185zM866 716.5q0 -110.5 6.5 -190.5t26 -166t55 -138t98 -86t150.5 -34t150.5 34t99.5 87t57.5 137t26.5 165 t6 191.5t-6 190.5t-26.5 164t-57.5 136.5t-99.5 86t-150.5 33.5t-150.5 -33.5t-98 -85t-55 -136.5t-26 -165t-6.5 -190.5z" />
<glyph unicode="&#x42f;" horiz-adv-x="1234" d="M57 106q117 0 162 107l119 283q37 88 81 122.5t126 59.5q4 2 2 4t2 4h-23q-160 0 -248 86t-88 262q0 399 392 400h469v-1434h-185v639h-125q-150 0 -198 -121l-133 -334q-86 -209 -324 -209zM381 1034.5q0 -141.5 54 -197t198 -55.5h233v508h-233q-143 0 -197.5 -57 t-54.5 -198.5z" />
<glyph unicode="&#x430;" horiz-adv-x="1091" d="M109 266q0 150 88 223.5t266 92.5q39 4 293 16v174q0 92 -54.5 149.5t-148.5 57.5q-176 0 -360 -107l-43 127q174 100 403 101q375 0 375 -373v-727h-107l-28 139q-168 -164 -330 -164q-170 0 -262 64.5t-92 226.5zM293 266q0 -96 39 -134t131 -38q160 0 293 133v273 q-154 -10 -293 -35q-92 -16 -131 -59.5t-39 -139.5z" />
<glyph unicode="&#x431;" horiz-adv-x="1191" d="M127 528q0 430 84 639t313 271q41 10 162 36.5t172 45.5q51 16 51 61l138 -10q0 -170 -205 -219q-59 -14 -149.5 -33t-155.5 -37q-125 -35 -188.5 -151.5t-63.5 -290.5q39 86 130 142t224 56q236 0 336 -127t100 -383q0 -264 -108.5 -408.5t-366.5 -144.5t-365.5 143.5 t-107.5 409.5zM311 528q0 -209 59.5 -319.5t229.5 -110.5q174 0 232.5 100.5t58.5 329.5q0 199 -59.5 293t-231.5 94q-88 0 -148.5 -30.5t-89 -88t-40 -121t-11.5 -147.5z" />
<glyph unicode="&#x432;" horiz-adv-x="1085" d="M164 0v1075h438q326 0 326 -270q0 -158 -170 -203l-25 -2v-8h29q90 -18 161.5 -91t71.5 -196q0 -160 -85 -232.5t-289 -72.5h-457zM336 119h301q106 0 141 50t35 142q0 197 -209 197h-268v-389zM336 627h246q55 0 91 13t51 37.5t20.5 48.5t5.5 56q0 174 -158 174h-256 v-329z" />
<glyph unicode="&#x433;" horiz-adv-x="806" d="M164 0v1075h600v-133h-428v-942h-172z" />
<glyph unicode="&#x434;" horiz-adv-x="1183" d="M61 123h107q47 72 77.5 258t40 330.5t15.5 363.5h660v-952h151l-20 -440h-152v317h-723l-14 -317h-142v440zM334 123h454v829h-335q0 -217 -35 -483t-84 -346z" />
<glyph unicode="&#x435;" horiz-adv-x="1116" d="M109 528q0 260 116.5 416t356.5 156q242 0 329.5 -132t87.5 -446h-704v-51q0 -193 85 -283t204 -90q203 0 352 86l47 -129q-147 -80 -399 -80q-475 0 -475 553zM295 629h534q0 182 -52 269t-195.5 87t-215 -102.5t-71.5 -253.5z" />
<glyph unicode="&#x436;" horiz-adv-x="1589" d="M68 88q119 0 139 74l59 211q27 96 77 138t116 58v9q-41 8 -63.5 17t-53.5 44t-53 98l-62 166q-14 41 -55 60.5t-82 19.5l16 113q129 0 209 -58q57 -43 95 -161l28 -97q23 -70 71 -109.5t114 -39.5h88v444h172v-444h88q66 0 115 39t69 108l31 101q31 104 82 149 q74 68 219 68l16 -113q-39 0 -78 -18.5t-55 -57.5l-61 -164q-25 -66 -55.5 -102.5t-53 -45.5t-61.5 -17v-9q145 -31 192 -196l55 -205q23 -82 142 -82l-25 -109q-135 0 -202.5 48.5t-106.5 185.5l-45 162q-16 59 -63.5 99t-108.5 40h-94v-512h-172v512h-97q-61 0 -106 -40 t-62 -99l-45 -164q-39 -143 -107.5 -186t-203.5 -43z" />
<glyph unicode="&#x437;" horiz-adv-x="991" d="M70 72l45 106q174 -80 342 -80q240 0 239 193q0 129 -68.5 175t-213.5 46h-133v121h133q113 0 179 40t66 148q0 76 -56 116t-157 40q-155 0 -311 -59l-41 108q166 74 363 74q377 0 377 -279q0 -174 -238 -237q121 -16 203 -86t82 -205q0 -172 -100.5 -245t-323.5 -73 q-203 0 -387 97z" />
<glyph unicode="&#x438;" horiz-adv-x="1181" d="M160 0v1075h166v-713l-13 -149l6 -2l82 149l457 715h164v-1075h-166v731l14 156l-8 2l-74 -156l-469 -733h-159z" />
<glyph unicode="&#x439;" horiz-adv-x="1189" d="M164 0v1075h166v-713l-15 -151h9l82 149l456 715h164v-1075h-166v731l14 156l-8 2l-73 -156l-469 -733h-160zM311 1434l103 51q2 -2 12 -19.5t15 -23.5t17.5 -21.5t26 -22.5t32 -15.5t44 -12.5t56 -4t56 4t44 13.5t32 15.5t25.5 21.5t17.5 21.5t14.5 23.5t11 19.5 l105 -51q0 -10 -8.5 -31t-31 -50.5t-55 -55t-89 -44t-124 -18.5t-123 18.5t-87 45t-54 56t-31 50t-8.5 29.5z" />
<glyph unicode="&#x43a;" horiz-adv-x="1036" d="M164 0v1075h172v-444h67q147 0 201 129l47 117q59 154 162 192q55 20 143 21l13 -115q-100 0 -142 -98l-49 -117q-37 -90 -70.5 -131t-86.5 -49v-7q57 -12 88 -71q14 -25 55 -123l84 -201q33 -80 137 -80l-14 -118q-84 0 -140 14q-59 14 -99 67.5t-77 149.5l-67 178 q-47 119 -182 119h-70v-508h-172z" />
<glyph unicode="&#x43b;" horiz-adv-x="1110" d="M10 98h8q37 0 58.5 2t51.5 11.5t48.5 32t28.5 57.5q70 229 69 825v49h672v-1075h-172v952h-340q0 -596 -76 -786q-23 -55 -51 -92t-53 -56.5t-68 -28.5t-70.5 -11.5t-84.5 -2.5z" />
<glyph unicode="&#x43c;" horiz-adv-x="1486" d="M160 0l39 1075h256l270 -858l12 -115h11l14 115l270 858h250l45 -1075h-182l-19 836l9 116h-9l-301 -952h-190l-307 952h-11l11 -116l-17 -836h-151z" />
<glyph unicode="&#x43d;" horiz-adv-x="1173" d="M164 0v1075h172v-444h502v444h172v-1075h-172v518h-502v-518h-172z" />
<glyph unicode="&#x43e;" horiz-adv-x="1153" d="M102 528q0 571 473 572q475 0 476 -572q0 -264 -108.5 -408.5t-367 -144.5t-366 143.5t-107.5 409.5zM287 528q0 -100 11 -172.5t41 -137t89 -97.5t147 -33q174 0 232.5 105.5t58.5 334.5q0 233 -59 346t-232 113q-88 0 -147 -36t-89 -104.5t-41 -142.5t-11 -176z" />
<glyph unicode="&#x43f;" horiz-adv-x="1173" d="M164 0v1075h846v-1075h-172v952h-502v-952h-172z" />
<glyph unicode="&#x440;" horiz-adv-x="1175" d="M164 -453v1528h117l30 -133q147 158 353 158q121 0 201.5 -41t121.5 -124t56.5 -177t15.5 -230q0 -133 -15.5 -226t-56.5 -171t-122 -117t-201 -39q-184 0 -328 119v-547h-172zM336 205q135 -107 328 -107q111 0 160.5 103.5t49.5 326.5q0 227 -50 338t-160 111 q-170 0 -328 -123v-649z" />
<glyph unicode="&#x441;" horiz-adv-x="987" d="M102 532q0 262 107.5 415t341.5 153q209 -1 344 -101l-45 -129q-145 100 -299 101q-139 0 -200.5 -106.5t-61.5 -332.5q0 -428 262 -428q154 0 299 101l45 -129q-133 -100 -344 -101q-449 0 -449 557z" />
<glyph unicode="&#x442;" horiz-adv-x="935" d="M49 942v133h838v-133h-334v-942h-172v942h-332z" />
<glyph unicode="&#x443;" horiz-adv-x="1077" d="M74 1075h186l275 -825l30 -137h8l25 137l225 825h189l-295 -887q-102 -328 -139 -421q-84 -219 -273 -220q-111 0 -223 72l37 102q35 -18 95 -34.5t89 -16.5q72 0 121 103l61 166z" />
<glyph unicode="&#x444;" horiz-adv-x="1638" d="M102 545q0 272 99.5 413.5t279.5 141.5q117 0 248 -96v526h172v-533q135 102 256 103q180 0 279.5 -141.5t99.5 -413.5q0 -258 -103.5 -414t-283.5 -156q-119 0 -248 99v-527h-172v519q-123 -90 -240 -91q-180 0 -283.5 156t-103.5 414zM287 545q0 -233 46 -340t171 -107 q88 0 225 90v709q-131 84 -229 84q-125 0 -169 -106.5t-44 -329.5zM901 184q123 -86 234 -86q121 0 169 108.5t48 338.5q0 217 -48 326.5t-165 109.5q-100 0 -238 -92v-705z" />
<glyph unicode="&#x445;" horiz-adv-x="1030" d="M57 0l357 526l-336 549h184l252 -432l248 432h184l-330 -528l351 -547h-185l-266 432l-274 -432h-185z" />
<glyph unicode="&#x446;" horiz-adv-x="1216" d="M164 0v1075h172v-952h487v952h172v-952h172l-20 -440h-152v317h-831z" />
<glyph unicode="&#x447;" horiz-adv-x="1064" d="M111 748v327h172v-375q0 -82 39.5 -141t138.5 -59q84 0 266 35l2 540h172v-1075h-172v424q-188 -47 -272 -47q-184 0 -265 85t-81 286z" />
<glyph unicode="&#x448;" horiz-adv-x="1675" d="M164 0v1075h172v-952h416v952h172v-952h415v952h172v-1075h-1347z" />
<glyph unicode="&#x449;" horiz-adv-x="1736" d="M164 0v1075h172v-952h416v952h172v-952h415v952h172v-952h154l-20 -440h-152v317h-1329z" />
<glyph unicode="&#x44a;" horiz-adv-x="1163" d="M18 940v135h437v-383h233q203 0 292 -84t89 -246q0 -168 -91 -265t-290 -97h-405v940h-265zM455 113h250q176 0 176 249q0 90 -40 154t-139 64h-247v-467z" />
<glyph unicode="&#x44b;" horiz-adv-x="1460" d="M164 0v1075h172v-383h233q182 0 273 -71q98 -76 98 -259q0 -201 -111 -288q-92 -74 -260 -74h-405zM336 113h246q78 0 123 51q51 61 51 198q0 117 -51 170q-43 47 -125 48h-244v-467zM1124 0v1075h172v-1075h-172z" />
<glyph unicode="&#x44c;" horiz-adv-x="1042" d="M164 0v1075h172v-383h237q209 0 298.5 -83t89.5 -247q0 -362 -388 -362h-409zM336 113h250q186 0 186 249q0 90 -43 154t-145 64h-248v-467z" />
<glyph unicode="&#x44d;" horiz-adv-x="1009" d="M109 76l45 129q145 -100 299 -101q254 0 262 404h-445l-28 123h469q-10 174 -73 257t-185 83q-154 0 -299 -101l-45 129q135 100 344 101q233 0 340.5 -152.5t107.5 -415.5q0 -557 -448 -557q-211 0 -344 101z" />
<glyph unicode="&#x44e;" horiz-adv-x="1613" d="M164 0v1075h172v-444h231q39 469 469 469q475 0 475 -572q0 -264 -108.5 -408.5t-366.5 -144.5q-254 0 -361.5 138.5t-111.5 394.5h-227v-508h-172zM748 528q0 -100 11 -172.5t40.5 -137t89 -97.5t147.5 -33q174 0 232.5 105.5t58.5 334.5q0 233 -59.5 346t-231.5 113 q-88 0 -147.5 -36t-89 -104.5t-40.5 -142.5t-11 -176z" />
<glyph unicode="&#x44f;" horiz-adv-x="1130" d="M72 96q119 2 161 84l78 174q20 43 33.5 63.5t38.5 38t61 21.5v6q-123 0 -201.5 72t-78.5 203q0 162 75.5 239.5t278.5 77.5h449v-1075h-172v453h-154q-63 0 -99 -21.5t-57 -77.5l-82 -211q-66 -168 -309 -168zM369 768q0 -190 155 -190h269l2 374h-275 q-66 0 -101.5 -31.5t-42.5 -66.5t-7 -86z" />
<glyph unicode="&#x451;" horiz-adv-x="1116" d="M109 528q0 260 116.5 416t356.5 156q242 0 329.5 -132t87.5 -446h-704v-51q0 -193 85 -283t204 -90q203 0 352 86l47 -129q-147 -80 -399 -80q-475 0 -475 553zM258 1360q0 123 123 123t123 -123t-123 -123t-123 123zM295 629h534q0 182 -52 269t-195.5 87t-215 -102.5 t-71.5 -253.5zM694 1360q0 123 123 123t123 -123t-123 -123t-123 123z" />
<glyph unicode="&#x452;" horiz-adv-x="1179" d="M109 1399h61v182h172v-182h610l-20 -125h-590v-369q139 195 326 195q348 0 348 -344v-883q0 -162 -80 -244t-227 -82q-70 0 -152 29l25 125q6 -2 26.5 -10t40 -13.5t39.5 -5.5q86 0 121 44t35 163v866q0 129 -34 180.5t-146 51.5q-31 0 -61 -7t-57.5 -25.5t-48 -33 t-48 -42t-40 -42t-38 -45t-29.5 -37.5v-745h-172v1274h-41z" />
<glyph unicode="&#x453;" horiz-adv-x="806" d="M164 0v1075h600v-133h-428v-942h-172zM389 1278l178 420l142 -66l-222 -399z" />
<glyph unicode="&#x454;" horiz-adv-x="993" d="M109 532q0 272 111.5 419t336.5 147q170 0 326 -78l-45 -109q-18 6 -58.5 20.5t-65 23t-64.5 15.5t-79 7q-240 0 -264 -346h461l-29 -123h-436q4 -211 65.5 -310.5t198.5 -99.5q61 0 111.5 12.5t105 35t72.5 28.5l45 -100q-33 -29 -134 -63t-218 -34q-440 0 -440 555z " />
<glyph unicode="&#x455;" horiz-adv-x="962" d="M102 61l43 119q180 -82 328 -82q104 0 168 39t64 117q0 74 -44.5 111.5t-187.5 83.5q-59 18 -91 29t-88 42t-87 64.5t-55.5 92t-24.5 130.5q0 82 31.5 141.5t86 91t114 46t124.5 14.5q221 0 371 -86l-49 -113q-143 76 -293 76q-219 0 -219 -162q0 -76 48 -114.5 t200 -88.5q57 -18 86.5 -29.5t76 -33t71 -44t50 -57t36.5 -80.5t11 -106q0 -287 -399 -287q-195 0 -371 86z" />
<glyph unicode="&#x456;" horiz-adv-x="593" d="M172 1421q0 125 125 125t125 -125t-125 -125t-125 125zM211 0v1075h172v-1075h-172z" />
<glyph unicode="&#x457;" horiz-adv-x="624" d="M-29 1360q0 123 123 123t123 -123t-123 -123t-123 123zM227 0v1075h172v-1075h-172zM408 1360q0 123 122.5 123t122.5 -123t-122.5 -123t-122.5 123z" />
<glyph unicode="&#x458;" horiz-adv-x="550" d="M-94 -424l35 117q74 -23 116 -23q72 0 104 45t32 162v1198h172v-1202q0 -162 -80 -244t-228 -82q-70 0 -151 29zM152 1421q0 125 124.5 125t124.5 -125t-124.5 -125t-124.5 125z" />
<glyph unicode="&#x459;" horiz-adv-x="1632" d="M10 98h8q37 0 58.5 2t51.5 11.5t48.5 32t28.5 57.5q59 197 59 633v241h682v-446h234q203 0 292 -76t89 -223q0 -150 -91.5 -240t-289.5 -90h-406v952h-340q0 -66 -2 -168t-21.5 -315t-52.5 -303q-20 -55 -48.5 -93t-52.5 -56.5t-70 -27.5t-69.5 -11.5t-86.5 -2.5z M946 113h250q176 0 176 213q0 76 -41 134t-137 58h-248v-405z" />
<glyph unicode="&#x45a;" horiz-adv-x="1695" d="M164 0v1075h172v-444h502v444h172v-444h233q203 0 292 -77t89 -224q0 -150 -91 -240t-290 -90h-405v518h-502v-518h-172zM1010 113h250q176 0 176 213q0 76 -41 134t-138 58h-247v-405z" />
<glyph unicode="&#x45b;" horiz-adv-x="1206" d="M135 1399h62v182h172v-182h610l-21 -125h-589v-369q139 195 325 195q348 0 348 -344v-756h-172v745q0 129 -33.5 180.5t-146.5 51.5q-31 0 -60.5 -7t-57 -25.5t-48 -33t-48 -42t-40 -42t-38 -45t-29.5 -37.5v-745h-172v1274h-41z" />
<glyph unicode="&#x45c;" horiz-adv-x="1058" d="M133 0v1075h172v-444h129q137 0 191 129l47 117q45 113 112.5 168t190.5 55l24 -123q-37 0 -57 -4t-46 -26.5t-46 -69.5l-51 -117q-33 -78 -99.5 -125t-126.5 -55v-2q141 -35 211 -199l84 -201q33 -82 146 -82l-23 -121q-61 0 -139 21q-104 25 -176 215l-68 178 q-47 119 -172 119h-131v-508h-172zM459 1278l178 420l141 -66l-221 -399z" />
<glyph unicode="&#x45e;" horiz-adv-x="1077" d="M74 1075h186l275 -825l30 -137h8l25 137l225 825h189l-295 -887q-102 -328 -139 -421q-84 -219 -273 -220q-111 0 -223 72l37 102q35 -18 95 -34.5t89 -16.5q72 0 121 103l61 166zM240 1434l102 51q2 -2 12.5 -19.5t15.5 -23.5t17 -21.5t25.5 -22.5t32 -15.5t44 -12.5 t56 -4t56.5 4t44.5 13.5t31.5 15.5t25.5 21.5t17.5 21.5t14 23.5t11 19.5l105 -51q0 -10 -8 -31t-31 -50.5t-55.5 -55t-89 -44t-124 -18.5t-122.5 18.5t-87 45t-54.5 56t-30.5 50t-8 29.5z" />
<glyph unicode="&#x45f;" horiz-adv-x="1173" d="M164 0v1075h172v-829l-8 -115h516l-6 115v829h172v-1075h-338v-317h-170v317h-338z" />
<glyph unicode="&#x490;" horiz-adv-x="993" d="M184 0v1434h580l41 284h143l-20 -428h-559v-1290h-185z" />
<glyph unicode="&#x491;" horiz-adv-x="819" d="M164 0v1075h465l35 234h112l-16 -357h-424v-952h-172z" />
<glyph unicode="&#x2000;" horiz-adv-x="941" />
<glyph unicode="&#x2001;" horiz-adv-x="1882" />
<glyph unicode="&#x2002;" horiz-adv-x="941" />
<glyph unicode="&#x2003;" horiz-adv-x="1882" />
<glyph unicode="&#x2004;" horiz-adv-x="627" />
<glyph unicode="&#x2005;" horiz-adv-x="470" />
<glyph unicode="&#x2006;" horiz-adv-x="313" />
<glyph unicode="&#x2007;" horiz-adv-x="313" />
<glyph unicode="&#x2008;" horiz-adv-x="235" />
<glyph unicode="&#x2009;" horiz-adv-x="376" />
<glyph unicode="&#x200a;" horiz-adv-x="104" />
<glyph unicode="&#x2010;" horiz-adv-x="735" d="M117 528v150h501v-150h-501z" />
<glyph unicode="&#x2011;" horiz-adv-x="735" d="M117 528v150h501v-150h-501z" />
<glyph unicode="&#x2012;" horiz-adv-x="735" d="M117 528v150h501v-150h-501z" />
<glyph unicode="&#x2013;" horiz-adv-x="1521" d="M225 549v129h1071v-129h-1071z" />
<glyph unicode="&#x2014;" horiz-adv-x="1837" d="M154 549v129h1529v-129h-1529z" />
<glyph unicode="&#x2018;" horiz-adv-x="516" d="M123 1108v14q0 92 60.5 228.5t107.5 173.5l57 -25q-63 -106 -90 -272q4 0 13.5 1t13.5 1q109 0 108 -119q0 -135 -135 -135q-76 0 -104.5 35t-30.5 98z" />
<glyph unicode="&#x2019;" horiz-adv-x="536" d="M133 1319q0 135 135 135q76 0 104.5 -35t30.5 -98v-14q0 -92 -60 -228.5t-107 -173.5l-58 25q63 106 90 272q-4 0 -13 -1t-13 -1q-109 0 -109 119z" />
<glyph unicode="&#x201a;" horiz-adv-x="425" d="M78 115q0 135 135 135q76 0 104.5 -35t30.5 -98v-15q0 -92 -60.5 -228t-107.5 -173l-57 25q63 106 90 272q-4 0 -13.5 -1t-13.5 -1q-109 0 -108 119z" />
<glyph unicode="&#x201c;" horiz-adv-x="937" d="M150 1108v14q0 92 60 228.5t107 173.5l58 -25q-63 -106 -90 -272q4 0 13 1t13 1q109 0 109 -119q0 -135 -135 -135q-76 0 -104.5 35t-30.5 98zM518 1108v14q0 92 60.5 228.5t107.5 173.5l57 -25q-63 -106 -90 -272q4 0 13.5 1t13.5 1q109 0 108 -119q0 -135 -135 -135 q-76 0 -104.5 35t-30.5 98z" />
<glyph unicode="&#x201d;" horiz-adv-x="925" d="M143 1319q0 135 136 135q76 0 104.5 -35t30.5 -98v-14q0 -92 -60.5 -228.5t-107.5 -173.5l-58 25q63 106 91 272q-4 0 -13.5 -1t-13.5 -1q-109 0 -109 119zM512 1319q0 135 135 135q76 0 104.5 -35t30.5 -98v-14q0 -92 -60 -228.5t-108 -173.5l-57 25q63 106 90 272 q-4 0 -13 -1t-13 -1q-109 0 -109 119z" />
<glyph unicode="&#x201e;" horiz-adv-x="856" d="M78 115q0 135 135 135q76 0 104.5 -35t30.5 -98v-15q0 -92 -60.5 -228t-107.5 -173l-57 25q63 106 90 272q-4 0 -13.5 -1t-13.5 -1q-109 0 -108 119zM508 115q0 135 135 135q76 0 104.5 -35t30.5 -98v-15q0 -92 -60.5 -228t-107.5 -173l-57 25q63 106 90 272q-4 0 -13 -1 t-14 -1q-109 0 -108 119z" />
<glyph unicode="&#x2022;" d="M268 717q0 121 86 208t207 87t208 -87t87 -208t-87 -207t-208 -86t-207 86t-86 207z" />
<glyph unicode="&#x2026;" horiz-adv-x="1294" d="M82 112.5q0 135.5 135 135.5t135 -135.5t-135 -135.5t-135 135.5zM510 112.5q0 135.5 135 135.5t135 -135.5t-135 -135.5t-135 135.5zM942 112.5q0 135.5 135 135.5t135 -135.5t-135 -135.5t-135 135.5z" />
<glyph unicode="&#x202f;" horiz-adv-x="376" />
<glyph unicode="&#x2039;" horiz-adv-x="649" d="M133 557l219 412h164l-199 -412l199 -420h-164z" />
<glyph unicode="&#x203a;" horiz-adv-x="649" d="M133 137l199 420l-199 412h164l219 -412l-219 -420h-164z" />
<glyph unicode="&#x205f;" horiz-adv-x="470" />
<glyph unicode="&#x20ac;" horiz-adv-x="1290" d="M23 657h178v60q0 80 4 119h-142l-40 129h196q84 494 537 493q45 0 85 -4t72.5 -12t57 -15.5t49 -20.5t37 -19.5t32 -20.5t23.5 -16l-63 -121q-4 2 -36 20.5t-49.5 26.5t-52 20.5t-73.5 18.5t-82 6q-156 0 -237 -94t-107 -262h569l-43 -129h-541q-2 -39 -2 -119v-60h484 l-43 -129h-433q20 -197 101.5 -306t251.5 -109q43 0 82 6t73.5 18.5t52 20.5t49 26.5t36.5 20.5l63 -121q-4 -2 -23.5 -16.5t-32 -20.5t-37 -19.5t-49 -20.5t-57 -15t-72.5 -12.5t-85 -4.5q-479 0 -545 553h-148z" />
<glyph unicode="&#x2122;" horiz-adv-x="1282" d="M31 1362l10 72h446l-10 -72h-170v-645h-92v645h-184zM500 717l37 717h100l194 -471l5 -35h4l6 35l184 471h94l41 -717h-94l-20 567l2 53h-2l-13 -53l-166 -422h-79l-181 424l-10 51h-2l2 -53l-12 -567h-90z" />
<glyph unicode="&#x25fc;" horiz-adv-x="1075" d="M0 0v1075h1075v-1075h-1075z" />
</font>
</defs>
</svg>
