<?xml version="1.0" standalone="no"?>
<!DOCTYPE svg PUBLIC "-//W3C//DTD SVG 1.1//EN" "http://www.w3.org/Graphics/SVG/1.1/DTD/svg11.dtd" >
<svg xmlns="http://www.w3.org/2000/svg">
<metadata></metadata>
<defs>
<font id="novotypemedium" horiz-adv-x="1728" >
<font-face units-per-em="2048" ascent="1638" descent="-410" />
<missing-glyph horiz-adv-x="512" />
<glyph horiz-adv-x="0" />
<glyph unicode="&#xd;" horiz-adv-x="682" />
<glyph unicode=" "  horiz-adv-x="512" />
<glyph unicode="&#x09;" horiz-adv-x="512" />
<glyph unicode="&#xa0;" horiz-adv-x="512" />
<glyph unicode="!" horiz-adv-x="854" d="M266 133q0 70 44.5 116t115.5 46q74 0 118 -46t44 -116q0 -69 -44.5 -114.5t-117.5 -45.5q-71 0 -115.5 45.5t-44.5 114.5zM276 1331h304l-45 -911h-218z" />
<glyph unicode="&#x22;" horiz-adv-x="894" d="M102 1430h297l-39 -523h-219zM496 1432h297l-39 -523h-219z" />
<glyph unicode="#" horiz-adv-x="1470" d="M184 326l31 211h162l41 258h-193l31 211h193l40 270h222l-41 -270h254l41 270h221l-41 -270h162l-31 -211h-162l-41 -258h193l-31 -211h-193l-41 -271h-221l41 271h-254l-41 -271h-221l41 271h-162zM598 537h254l41 258h-254z" />
<glyph unicode="$" horiz-adv-x="1361" d="M141 975q0 154 109.5 254.5t329.5 122.5v188h229v-186q194 -9 336 -60v-213q-191 36 -336 45v-376q70 -21 122 -41t109 -53t93.5 -71t60 -93.5t23.5 -122.5q0 -54 -10 -100.5t-38 -94t-72.5 -83t-118 -64t-169.5 -41.5v-195h-229v182q-111 3 -229.5 23t-194.5 49v221 q211 -58 424 -67v385q-77 22 -130 40.5t-116 52t-101.5 71.5t-65 96.5t-26.5 130.5zM387 975q0 -56 49.5 -92.5t143.5 -67.5v309q-193 -25 -193 -149zM809 209q164 32 164 158q0 53 -42.5 88.5t-121.5 62.5v-309z" />
<glyph unicode="%" horiz-adv-x="1439" d="M98 1073q0 128 81 206.5t202 78.5t201 -78.5t80 -206.5q0 -127 -80.5 -207t-200.5 -80q-121 0 -202 80t-81 207zM117 0l925 1331h283l-926 -1331h-282zM289 1073q0 -46 27 -73t65 -27t65 27t27 73t-27 73.5t-65 27.5t-65 -27.5t-27 -73.5zM778 260q0 128 81 206.5 t202 78.5t200.5 -78.5t79.5 -206.5q0 -127 -80 -207t-200 -80q-121 0 -202 80t-81 207zM969 260q0 -46 27 -73t65 -27t65 27t27 73t-27 73t-65 27t-65 -27t-27 -73z" />
<glyph unicode="&#x26;" horiz-adv-x="1505" d="M164 401q0 216 190 330q-62 36 -100.5 103t-38.5 147q0 175 122.5 276t352.5 101q220 0 385 -58v-231q-180 57 -336 57q-138 0 -194 -43t-56 -118q0 -150 191 -150h14v-217h-14q-117 0 -184.5 -47.5t-67.5 -149.5q0 -196 301 -196q285 0 285 209q0 75 -46.5 123 t-113.5 59v221h590v-221h-285q49 -32 78 -93.5t29 -131.5q0 -84 -31.5 -155t-95 -126t-168.5 -86t-242 -31q-147 0 -257.5 33t-176.5 92.5t-98.5 135.5t-32.5 167z" />
<glyph unicode="'" horiz-adv-x="614" d="M102 928q75 191 37 502h254q12 -174 -8 -295t-80 -207h-203z" />
<glyph unicode="(" horiz-adv-x="722" d="M239.5 956q29.5 299 116.5 576h224q-76 -292 -101 -589t4.5 -591.5t116.5 -552.5h-223q-99 257 -133 557.5t-4.5 599.5z" />
<glyph unicode=")" horiz-adv-x="722" d="M123 -201q87 258 116.5 552.5t4.5 591.5t-101 589h224q87 -277 116.5 -576t-4.5 -599.5t-133 -557.5h-223z" />
<glyph unicode="*" horiz-adv-x="782" d="M80 1036l57 176q145 -47 195 -141l-13 -35q-94 -47 -239 0zM141 844q90 123 195 143l31 -22q14 -103 -76 -230zM299 1331h184q0 -153 -73 -229h-37q-74 77 -74 229zM418 965l31 22q104 -20 194 -143l-149 -109q-90 127 -76 230zM453 1071q50 95 194 141l58 -176 q-146 -47 -242 0z" />
<glyph unicode="+" horiz-adv-x="1163" d="M164 545v241h297v297h241v-297h297v-241h-297v-297h-241v297h-297z" />
<glyph unicode="," horiz-adv-x="628" d="M41 -369q14 29 23.5 49.5t24.5 57t24 67.5t19 74.5t14 84.5t3 90.5t-8 99.5h275q8 -55 8 -106.5t-5.5 -92.5t-18 -82t-26 -70.5t-34 -63.5t-37 -56t-39.5 -52h-223z" />
<glyph unicode="-" horiz-adv-x="835" d="M102 545v241h631v-241h-631z" />
<glyph unicode="." horiz-adv-x="649" d="M164 133q0 70 44.5 116t115.5 46q74 0 117.5 -45.5t43.5 -116.5q0 -69 -44 -114.5t-117 -45.5q-71 0 -115.5 45.5t-44.5 114.5z" />
<glyph unicode="/" horiz-adv-x="901" d="M205 -223l250 1739h241l-250 -1739h-241z" />
<glyph unicode="0" horiz-adv-x="1490" d="M143 666q0 325 157.5 512.5t444.5 187.5q288 0 445.5 -187.5t157.5 -512.5q0 -322 -158 -511.5t-445 -189.5q-286 0 -444 189.5t-158 511.5zM403 666q0 -455 342 -455q345 0 345 455q0 229 -87.5 343.5t-257.5 114.5q-342 0 -342 -458z" />
<glyph unicode="1" horiz-adv-x="888" d="M102 969v241q165 121 410 121h111v-1331h-258v1065q-113 -3 -263 -96z" />
<glyph unicode="2" horiz-adv-x="1185" d="M61 0v129q77 60 132 103.5t130 107.5t127.5 115.5t109 115t90.5 118.5t56.5 115t22.5 114q0 92 -56.5 143t-193.5 51q-169 0 -385 -72v236q212 82 426 82q105 0 188.5 -26t136 -67.5t87 -99t48 -115t13.5 -120.5q0 -83 -29.5 -170.5t-71 -156.5t-103.5 -144.5 t-107.5 -122t-103.5 -100.5h485v-236h-1002z" />
<glyph unicode="3" horiz-adv-x="1136" d="M123 37v225q106 -30 182 -43.5t172 -13.5q131 0 191.5 45.5t60.5 150.5q0 108 -77.5 153.5t-241.5 45.5q-66 0 -168 -10v139l368 371h-487v231h831v-201l-356 -346h4q103 -6 179.5 -36.5t122 -82t67.5 -117.5t22 -147q0 -65 -16 -125.5t-52.5 -116t-90.5 -96.5 t-135 -65.5t-181 -24.5q-213 0 -395 64z" />
<glyph unicode="4" horiz-adv-x="1259" d="M102 242v147q41 215 155 446.5t288 495.5h289q-196 -298 -260 -410q-134 -233 -199 -450h352v330h258v-330h213v-229h-213v-242h-258v242h-625z" />
<glyph unicode="5" horiz-adv-x="1177" d="M164 45v217q200 -57 364 -57q127 0 184.5 59.5t57.5 151.5q0 74 -41 128.5t-119 87.5t-174.5 51t-222.5 24v624h791v-231h-543v-195q93 -6 174.5 -26t156 -58t127.5 -91.5t84 -131.5t31 -174q0 -62 -15 -123t-50 -121t-87 -105.5t-133 -73.5t-180 -28q-200 0 -405 72z " />
<glyph unicode="6" horiz-adv-x="1351" d="M143 641q0 210 77.5 371.5t227.5 253.5t351 92q152 0 274 -37v-229q-79 21 -132 28.5t-126 7.5q-165 0 -274 -89.5t-144 -250.5q148 93 330 93q233 0 357 -117t124 -328q0 -199 -141.5 -331t-353.5 -132q-90 0 -171.5 23.5t-155 75.5t-127 128t-85 189.5t-31.5 251.5z M385 549q18 -180 105.5 -261t222.5 -81q108 0 174.5 61t66.5 168q0 101 -61 158t-174 57q-177 0 -334 -102z" />
<glyph unicode="7" horiz-adv-x="1083" d="M82 1096v235h981v-170q-89 -80 -159 -159t-141 -187.5t-118 -225t-76.5 -268.5t-29.5 -321h-265q0 159 29 313.5t73 272.5t101.5 222.5t110 172.5t102.5 115h-608z" />
<glyph unicode="8" horiz-adv-x="1292" d="M143 373q0 206 179 325q-146 100 -146 283q0 169 126 273t329 104q116 0 207 -33t145 -89t81.5 -124.5t27.5 -144.5q0 -156 -109 -299q166 -102 166 -295q0 -79 -28.5 -148.5t-85.5 -127t-154.5 -91t-223.5 -33.5q-129 0 -230.5 33.5t-161.5 90.5t-91 127.5t-31 148.5z M401 387q0 -91 68.5 -144t185.5 -53q113 0 174.5 46t61.5 131q0 24 -8.5 45.5t-21.5 38t-36.5 32.5t-44 26.5t-55 24t-58.5 21.5t-65 21.5t-65 21.5q-63 -31 -99.5 -87t-36.5 -124zM438 979q0 -22 5 -41t18.5 -35.5t25 -29t36.5 -25.5t40.5 -21t49 -19.5t50.5 -17t57 -17.5 t56 -17q70 103 70 196q0 35 -11.5 66.5t-35 59t-65.5 43.5t-97 16q-96 0 -147.5 -44t-51.5 -114z" />
<glyph unicode="9" horiz-adv-x="1351" d="M143 895q0 199 141.5 331t354.5 132q90 0 171.5 -23.5t154.5 -75.5t126.5 -128.5t85 -189.5t31.5 -251q0 -210 -77.5 -371.5t-227 -253.5t-350.5 -92q-152 0 -274 37v230q80 -21 133 -29t125 -8q165 0 273 89.5t144 250.5q-146 -92 -329 -92q-233 0 -357.5 116.5 t-124.5 327.5zM397 895q0 -101 61.5 -158t174.5 -57q177 0 334 102q-18 180 -105.5 261t-222.5 81q-108 0 -175 -61t-67 -168z" />
<glyph unicode=":" horiz-adv-x="649" d="M164 133q0 70 44.5 116t115.5 46q74 0 117.5 -45.5t43.5 -116.5q0 -69 -44 -114.5t-117 -45.5q-71 0 -115.5 45.5t-44.5 114.5zM164 666q0 70 44.5 115.5t115.5 45.5q74 0 117.5 -45.5t43.5 -115.5q0 -69 -44 -114.5t-117 -45.5q-71 0 -115.5 45.5t-44.5 114.5z" />
<glyph unicode=";" horiz-adv-x="641" d="M82 -369q14 29 23.5 49.5t24.5 57t24 67.5t19 74.5t14 84.5t3 90.5t-8 99.5h275q8 -55 8 -106.5t-5.5 -92.5t-18 -82t-26 -70.5t-34 -63.5t-37 -56t-39.5 -52h-223zM156 666q0 70 44 115.5t115 45.5q74 0 118 -45.5t44 -115.5q0 -69 -44.5 -114.5t-117.5 -45.5 q-71 0 -115 45.5t-44 114.5z" />
<glyph unicode="&#x3c;" horiz-adv-x="1032" d="M164 633v61l377 463h325l-407 -493l409 -494h-327z" />
<glyph unicode="=" horiz-adv-x="1286" d="M205 334v241h876v-241h-876zM205 788v242h876v-242h-876z" />
<glyph unicode="&#x3e;" horiz-adv-x="1032" d="M164 1159h328l376 -463v-61l-376 -463h-326l407 494z" />
<glyph unicode="?" horiz-adv-x="1171" d="M205 1044v226q71 42 162.5 65t181.5 23q104 0 186 -29.5t131.5 -80.5t75 -115t25.5 -136q0 -73 -25 -137t-64.5 -110.5t-92.5 -85t-104.5 -63t-105.5 -40.5l-18 -141h-207l-14 280q47 13 82.5 25t81.5 30t79 39t62.5 46.5t45 58.5t15.5 70q0 72 -47 112.5t-143 40.5 q-141 0 -307 -78zM291 133q0 70 44.5 116t115.5 46q74 0 117.5 -45.5t43.5 -116.5q0 -69 -44 -114.5t-117 -45.5q-71 0 -115.5 45.5t-44.5 114.5z" />
<glyph unicode="@" horiz-adv-x="1972" d="M184 608q0 178 65 333t180.5 266t281 175t358.5 64q188 0 339 -54t246 -147t145 -212.5t50 -254.5q0 -257 -119.5 -408t-332.5 -151q-165 0 -215 125q-39 -52 -113 -88.5t-162 -36.5q-167 0 -259.5 104t-92.5 273q0 156 68 268.5t177.5 166.5t246.5 54q111 0 215 -34.5 t172 -89.5l-76 -388q-17 -82 -0.5 -120.5t74.5 -38.5q81 0 132.5 92t51.5 254q0 102 -29.5 184.5t-80 137.5t-121 91.5t-149 53t-167.5 16.5q-128 0 -244.5 -43t-207.5 -122t-145 -203t-54 -275q0 -283 178.5 -431.5t497.5 -148.5q211 0 395 64v-207q-189 -63 -420 -63 q-147 0 -278 30.5t-242.5 94.5t-192.5 157t-126.5 224t-45.5 288zM788 602q0 -86 42.5 -136t111.5 -50q73 0 134.5 49.5t78.5 146.5l45 236q-59 37 -153 37q-116 0 -187.5 -74.5t-71.5 -208.5z" />
<glyph unicode="A" horiz-adv-x="1605" d="M82 0l606 1341h230l606 -1341h-291l-105 242h-649l-106 -242h-291zM567 477h471l-235 561z" />
<glyph unicode="B" horiz-adv-x="1509" d="M266 39v1292h533q224 0 334 -97t110 -257q0 -172 -108 -252q190 -85 190 -319q0 -73 -14 -133t-51 -117t-97 -96.5t-157 -63t-226 -23.5q-244 0 -514 66zM524 227q125 -26 271 -26q270 0 270 196q0 79 -51.5 125.5t-155.5 46.5h-334v-342zM524 791h400q47 70 47 170 q0 66 -44 103.5t-134 37.5h-269v-311z" />
<glyph unicode="C" horiz-adv-x="1413" d="M164 666q0 168 52 299.5t147 217.5t227 130.5t295 44.5q218 0 364 -41v-240q-168 30 -301 33h-14q-251 0 -373 -102q-125 -106 -125 -342t125 -342q122 -103 373 -103h14q133 3 301 33v-240q-146 -41 -364 -41t-379 77.5t-251.5 235t-90.5 380.5z" />
<glyph unicode="D" horiz-adv-x="1617" d="M266 55v1276h514q330 0 502 -167.5t172 -508.5q0 -168 -50 -299t-140 -214t-212.5 -126t-271.5 -43q-297 0 -514 82zM524 246q115 -31 250 -31q410 0 410 440q0 237 -94.5 336t-309.5 99h-256v-844z" />
<glyph unicode="E" horiz-adv-x="1419" d="M246 453v878h968v-241h-710v-291h657v-242h-657v-111q0 -130 72 -178.5t237 -48.5q210 0 401 31v-238q-80 -14 -115.5 -20t-117.5 -12.5t-178 -6.5q-285 0 -421 111t-136 369z" />
<glyph unicode="F" horiz-adv-x="1351" d="M266 0v1331h942v-241h-684v-371h631v-242h-631v-477h-258z" />
<glyph unicode="G" horiz-adv-x="1607" d="M164 647q0 326 202 518.5t552 192.5q187 0 372 -41v-240q-207 33 -354 33q-235 0 -367.5 -120.5t-132.5 -342.5q0 -206 114 -317t296 -111q159 0 246 75q82 71 82 215v13h-379v236h622q13 -85 15 -164v-19q0 -70 -10 -141q-12 -79 -37 -146.5t-70 -126.5t-106.5 -100 t-148.5 -64.5t-194 -23.5q-323 0 -512.5 183t-189.5 491z" />
<glyph unicode="H" horiz-adv-x="1775" d="M266 0v1331h258v-534h727v534h258v-1331h-258v565h-727v-565h-258z" />
<glyph unicode="I" horiz-adv-x="790" d="M266 0v1331h258v-1331h-258z" />
<glyph unicode="J" horiz-adv-x="964" d="M102 12v238q132 -31 205 -31q86 0 121 38.5t35 129.5v944h256v-940q0 -102 -16.5 -174.5t-56 -129.5t-113 -85.5t-181.5 -28.5q-121 0 -250 39z" />
<glyph unicode="K" horiz-adv-x="1536" d="M266 0v1331h258v-1331h-258zM530 684l570 647h334l-584 -647l666 -684h-334z" />
<glyph unicode="L" horiz-adv-x="1290" d="M246 465v866h258v-870q0 -137 59 -189.5t217 -52.5q178 0 408 29v-236q-216 -39 -426 -39q-275 0 -395.5 115t-120.5 377z" />
<glyph unicode="M" horiz-adv-x="2007" d="M266 0v1331h105q86 0 156 -46.5t171 -158.5l306 -342l305 342q101 112 171 158.5t156 46.5h105v-1331h-254v963l-30 -33l-30 -33l-426 -471l-421 465q-10 12 -30 32.5t-30 32.5v-956h-254z" />
<glyph unicode="N" horiz-adv-x="1918" d="M266 0v1331h105q75 0 154.5 -43t154 -115.5t149 -162.5t149 -191t142.5 -192t141.5 -175.5t135.5 -132.5v1012h256v-1331h-103q-90 0 -179 40.5t-166.5 110t-151 155t-144 182.5t-133 184t-130 169.5t-124.5 129.5v-971h-256z" />
<glyph unicode="O" d="M164 666q0 203 84 359.5t243.5 244.5t372.5 88t373 -88t244 -244t84 -360q0 -200 -84 -357t-244 -246.5t-373 -89.5q-212 0 -372 89.5t-244 246.5t-84 357zM436 666q0 -205 111 -326t317 -121q207 0 318.5 121t111.5 326t-111.5 327.5t-318.5 122.5q-206 0 -317 -122.5 t-111 -327.5z" />
<glyph unicode="P" horiz-adv-x="1435" d="M266 0v1331h482q136 0 244.5 -38.5t178 -106t106 -156.5t36.5 -192q0 -107 -36.5 -202t-104.5 -169.5t-175 -118t-239 -43.5q-84 0 -234 21v-326h-258zM524 571q113 -22 228 -22q133 0 214 75.5t81 213.5q0 116 -81 188t-214 72h-228v-527z" />
<glyph unicode="Q" d="M164 666q0 203 84 359.5t243.5 244.5t372.5 88t373 -88t244 -244t84 -360q0 -254 -134.5 -434.5t-369.5 -235.5l252 -330h-336l-213 314q-277 30 -438.5 217.5t-161.5 468.5zM436 666q0 -205 111 -326t317 -121q207 0 318.5 121t111.5 326t-111.5 327.5t-318.5 122.5 q-206 0 -317 -122.5t-111 -327.5z" />
<glyph unicode="R" horiz-adv-x="1509" d="M266 0v1331h486q254 0 395 -116t141 -316q0 -84 -19.5 -153.5t-56.5 -121t-82.5 -89t-105.5 -68.5l393 -467h-315l-373 455h-205v-455h-258zM524 682h365q133 80 133 217q0 199 -246 199h-252v-416z" />
<glyph unicode="S" horiz-adv-x="1443" d="M184 971q0 175 139.5 281t417.5 106q263 0 445 -64v-217q-262 49 -443 49q-294 0 -294 -135q0 -52 44.5 -88t116.5 -57t158.5 -40t172.5 -47.5t158 -69.5t116.5 -115t44.5 -175q0 -53 -10.5 -100.5t-35 -97t-70 -89.5t-109.5 -72t-160 -49.5t-216 -17.5q-119 0 -249.5 20 t-212.5 52v225q257 -69 467 -69q329 0 329 161q0 46 -27.5 80t-74.5 55t-107.5 38.5t-128 33.5t-134.5 35.5t-127.5 49.5t-107.5 70.5t-74.5 103.5t-27.5 143z" />
<glyph unicode="T" horiz-adv-x="1421" d="M102 1100v231h1217v-231h-479v-1100h-258v1100h-480z" />
<glyph unicode="U" horiz-adv-x="1744" d="M225 621v710h273v-710q0 -207 85 -304.5t289 -97.5q206 0 290.5 97.5t84.5 304.5v710h273v-710q0 -307 -164 -477.5t-484 -170.5q-318 0 -482.5 170.5t-164.5 477.5z" />
<glyph unicode="V" horiz-adv-x="1581" d="M82 1331h295l411 -919l412 919h299l-649 -1341h-123z" />
<glyph unicode="W" horiz-adv-x="2228" d="M82 1331h285l344 -893l301 903h202l304 -903l344 893h284l-555 -1341h-174l-305 868l-301 -868h-176z" />
<glyph unicode="X" horiz-adv-x="1486" d="M102 0l480 680l-480 651h324l317 -467l318 467h323l-479 -651l479 -680h-309l-332 496l-331 -496h-310z" />
<glyph unicode="Y" horiz-adv-x="1427" d="M61 1120l27 226q221 -6 387 -139.5t240 -336.5q75 203 239.5 336.5t384.5 139.5l27 -226q-130 -18 -232 -83.5t-164 -164.5t-94 -220.5t-32 -258.5v-393h-258v393q0 109 -19.5 211t-62 193t-103 160t-148 112.5t-192.5 50.5z" />
<glyph unicode="Z" horiz-adv-x="1429" d="M174 0v172l713 928h-713v231h1081v-174l-733 -926h733v-231h-1081z" />
<glyph unicode="[" horiz-adv-x="753" d="M246 -201v1733h426v-225h-191v-1282h191v-226h-426z" />
<glyph unicode="\" horiz-adv-x="901" d="M205 1516h241l250 -1739h-241z" />
<glyph unicode="]" horiz-adv-x="753" d="M82 25h190v1282h-190v225h426v-1733h-426v226z" />
<glyph unicode="_" horiz-adv-x="1060" d="M0 0v242h1061v-242h-1061z" />
<glyph unicode="`" horiz-adv-x="563" d="M111 1505h276l74 -174h-230z" />
<glyph unicode="a" horiz-adv-x="1605" d="M82 0l606 1341h230l606 -1341h-291l-105 242h-649l-106 -242h-291zM567 477h471l-235 561z" />
<glyph unicode="b" horiz-adv-x="1509" d="M266 39v1292h533q224 0 334 -97t110 -257q0 -172 -108 -252q190 -85 190 -319q0 -73 -14 -133t-51 -117t-97 -96.5t-157 -63t-226 -23.5q-244 0 -514 66zM524 227q125 -26 271 -26q270 0 270 196q0 79 -51.5 125.5t-155.5 46.5h-334v-342zM524 791h400q47 70 47 170 q0 66 -44 103.5t-134 37.5h-269v-311z" />
<glyph unicode="c" horiz-adv-x="1413" d="M164 666q0 168 52 299.5t147 217.5t227 130.5t295 44.5q218 0 364 -41v-240q-168 30 -301 33h-14q-251 0 -373 -102q-125 -106 -125 -342t125 -342q122 -103 373 -103h14q133 3 301 33v-240q-146 -41 -364 -41t-379 77.5t-251.5 235t-90.5 380.5z" />
<glyph unicode="d" horiz-adv-x="1617" d="M266 55v1276h514q330 0 502 -167.5t172 -508.5q0 -168 -50 -299t-140 -214t-212.5 -126t-271.5 -43q-297 0 -514 82zM524 246q115 -31 250 -31q410 0 410 440q0 237 -94.5 336t-309.5 99h-256v-844z" />
<glyph unicode="e" horiz-adv-x="1419" d="M246 453v878h968v-241h-710v-291h657v-242h-657v-111q0 -130 72 -178.5t237 -48.5q210 0 401 31v-238q-80 -14 -115.5 -20t-117.5 -12.5t-178 -6.5q-285 0 -421 111t-136 369z" />
<glyph unicode="f" horiz-adv-x="1351" d="M266 0v1331h942v-241h-684v-371h631v-242h-631v-477h-258z" />
<glyph unicode="g" horiz-adv-x="1607" d="M164 647q0 326 202 518.5t552 192.5q187 0 372 -41v-240q-207 33 -354 33q-235 0 -367.5 -120.5t-132.5 -342.5q0 -206 114 -317t296 -111q159 0 246 75q82 71 82 215v13h-379v236h622q13 -85 15 -164v-19q0 -70 -10 -141q-12 -79 -37 -146.5t-70 -126.5t-106.5 -100 t-148.5 -64.5t-194 -23.5q-323 0 -512.5 183t-189.5 491z" />
<glyph unicode="h" horiz-adv-x="1775" d="M266 0v1331h258v-534h727v534h258v-1331h-258v565h-727v-565h-258z" />
<glyph unicode="i" horiz-adv-x="790" d="M266 0v1331h258v-1331h-258z" />
<glyph unicode="j" horiz-adv-x="964" d="M102 12v238q132 -31 205 -31q86 0 121 38.5t35 129.5v944h256v-940q0 -102 -16.5 -174.5t-56 -129.5t-113 -85.5t-181.5 -28.5q-121 0 -250 39z" />
<glyph unicode="k" horiz-adv-x="1536" d="M266 0v1331h258v-1331h-258zM530 684l570 647h334l-584 -647l666 -684h-334z" />
<glyph unicode="l" horiz-adv-x="1290" d="M246 465v866h258v-870q0 -137 59 -189.5t217 -52.5q178 0 408 29v-236q-216 -39 -426 -39q-275 0 -395.5 115t-120.5 377z" />
<glyph unicode="m" horiz-adv-x="2007" d="M266 0v1331h105q86 0 156 -46.5t171 -158.5l306 -342l305 342q101 112 171 158.5t156 46.5h105v-1331h-254v963l-30 -33l-30 -33l-426 -471l-421 465q-10 12 -30 32.5t-30 32.5v-956h-254z" />
<glyph unicode="n" horiz-adv-x="1918" d="M266 0v1331h105q75 0 154.5 -43t154 -115.5t149 -162.5t149 -191t142.5 -192t141.5 -175.5t135.5 -132.5v1012h256v-1331h-103q-90 0 -179 40.5t-166.5 110t-151 155t-144 182.5t-133 184t-130 169.5t-124.5 129.5v-971h-256z" />
<glyph unicode="o" d="M164 666q0 203 84 359.5t243.5 244.5t372.5 88t373 -88t244 -244t84 -360q0 -200 -84 -357t-244 -246.5t-373 -89.5q-212 0 -372 89.5t-244 246.5t-84 357zM436 666q0 -205 111 -326t317 -121q207 0 318.5 121t111.5 326t-111.5 327.5t-318.5 122.5q-206 0 -317 -122.5 t-111 -327.5z" />
<glyph unicode="p" horiz-adv-x="1435" d="M266 0v1331h482q136 0 244.5 -38.5t178 -106t106 -156.5t36.5 -192q0 -107 -36.5 -202t-104.5 -169.5t-175 -118t-239 -43.5q-84 0 -234 21v-326h-258zM524 571q113 -22 228 -22q133 0 214 75.5t81 213.5q0 116 -81 188t-214 72h-228v-527z" />
<glyph unicode="q" d="M164 666q0 203 84 359.5t243.5 244.5t372.5 88t373 -88t244 -244t84 -360q0 -254 -134.5 -434.5t-369.5 -235.5l252 -330h-336l-213 314q-277 30 -438.5 217.5t-161.5 468.5zM436 666q0 -205 111 -326t317 -121q207 0 318.5 121t111.5 326t-111.5 327.5t-318.5 122.5 q-206 0 -317 -122.5t-111 -327.5z" />
<glyph unicode="r" horiz-adv-x="1509" d="M266 0v1331h486q254 0 395 -116t141 -316q0 -84 -19.5 -153.5t-56.5 -121t-82.5 -89t-105.5 -68.5l393 -467h-315l-373 455h-205v-455h-258zM524 682h365q133 80 133 217q0 199 -246 199h-252v-416z" />
<glyph unicode="s" horiz-adv-x="1443" d="M184 971q0 175 139.5 281t417.5 106q263 0 445 -64v-217q-262 49 -443 49q-294 0 -294 -135q0 -52 44.5 -88t116.5 -57t158.5 -40t172.5 -47.5t158 -69.5t116.5 -115t44.5 -175q0 -53 -10.5 -100.5t-35 -97t-70 -89.5t-109.5 -72t-160 -49.5t-216 -17.5q-119 0 -249.5 20 t-212.5 52v225q257 -69 467 -69q329 0 329 161q0 46 -27.5 80t-74.5 55t-107.5 38.5t-128 33.5t-134.5 35.5t-127.5 49.5t-107.5 70.5t-74.5 103.5t-27.5 143z" />
<glyph unicode="t" horiz-adv-x="1421" d="M102 1100v231h1217v-231h-479v-1100h-258v1100h-480z" />
<glyph unicode="u" horiz-adv-x="1744" d="M225 621v710h273v-710q0 -207 85 -304.5t289 -97.5q206 0 290.5 97.5t84.5 304.5v710h273v-710q0 -307 -164 -477.5t-484 -170.5q-318 0 -482.5 170.5t-164.5 477.5z" />
<glyph unicode="v" horiz-adv-x="1581" d="M82 1331h295l411 -919l412 919h299l-649 -1341h-123z" />
<glyph unicode="w" horiz-adv-x="2228" d="M82 1331h285l344 -893l301 903h202l304 -903l344 893h284l-555 -1341h-174l-305 868l-301 -868h-176z" />
<glyph unicode="x" horiz-adv-x="1486" d="M102 0l480 680l-480 651h324l317 -467l318 467h323l-479 -651l479 -680h-309l-332 496l-331 -496h-310z" />
<glyph unicode="y" horiz-adv-x="1427" d="M61 1120l27 226q221 -6 387 -139.5t240 -336.5q75 203 239.5 336.5t384.5 139.5l27 -226q-130 -18 -232 -83.5t-164 -164.5t-94 -220.5t-32 -258.5v-393h-258v393q0 109 -19.5 211t-62 193t-103 160t-148 112.5t-192.5 50.5z" />
<glyph unicode="z" horiz-adv-x="1429" d="M174 0v172l713 928h-713v231h1081v-174l-733 -926h733v-231h-1081z" />
<glyph unicode="{" horiz-adv-x="753" d="M61 594v143q53 10 83.5 19.5t59 30.5t42 49.5t24.5 81t14 119.5t3 171q0 184 97 262.5t288 63.5v-205q-53 0 -84 -8.5t-47 -31.5t-20.5 -52t-4.5 -82q0 -118 -7 -198t-19.5 -131.5t-37 -83t-51.5 -47t-71 -29.5q56 -17 86.5 -39t55.5 -73.5t34.5 -141t9.5 -236.5 q0 -53 4.5 -82t20.5 -52t47 -31.5t84 -8.5v-205q-191 -15 -288 63.5t-97 262.5q0 104 -3 171t-14 119.5t-24.5 81t-42 49.5t-59 30.5t-83.5 19.5z" />
<glyph unicode="|" horiz-adv-x="776" d="M268 -223v1739h242v-1739h-242z" />
<glyph unicode="}" horiz-adv-x="753" d="M82 2q53 0 84 8.5t47 31.5t20.5 52t4.5 82q0 147 9.5 236.5t34.5 141t55.5 73.5t86.5 39q-44 14 -71 29.5t-51.5 47t-37 83t-19.5 131.5t-7 198q0 53 -4.5 82t-20.5 52t-47 31.5t-84 8.5v205q191 15 288 -63.5t97 -262.5q0 -104 3 -171t13.5 -119.5t24 -81t42 -49.5 t59 -30.5t83.5 -19.5v-143q-53 -10 -83.5 -19.5t-59 -30.5t-42 -49.5t-24 -81t-13.5 -119.5t-3 -171q0 -184 -97 -262.5t-288 -63.5v205z" />
<glyph unicode="~" horiz-adv-x="835" d="M178 569q-10 120 39.5 181t136.5 61q39 0 100 -25.5t81 -25.5q39 0 36 47h187q10 -120 -39.5 -181t-136.5 -61q-39 0 -100 25.5t-81 25.5q-39 0 -36 -47h-187z" />
<glyph unicode="&#xa1;" horiz-adv-x="854" d="M266 1198q0 69 44.5 114.5t117.5 45.5q71 0 115.5 -45.5t44.5 -114.5q0 -70 -44.5 -116t-115.5 -46q-74 0 -118 46t-44 116zM274 0l45 911h218l41 -911h-304z" />
<glyph unicode="&#xa3;" horiz-adv-x="1282" d="M143 0v135q123 122 179 213t65 176h-182v226h170q-19 112 -19 206q0 184 111 293t307 109q161 0 283 -43v-228q-123 29 -221 29q-114 0 -169 -47.5t-55 -146.5q0 -72 17 -172h383v-226h-365q-13 -147 -112 -288h563v-236h-955z" />
<glyph unicode="&#xa5;" horiz-adv-x="1380" d="M20 1331h285l383 -698l383 698h289l-430 -733h256v-215h-367v-383h-258v383h-375v215h265z" />
<glyph unicode="&#xa7;" horiz-adv-x="1443" d="M184 1227q0 177 130.5 282t406.5 105q212 0 383 -60v-217q-13 3 -49.5 10t-51.5 9.5t-47 8t-53 7.5t-52 5t-62 4t-66 1q-149 0 -211.5 -33.5t-62.5 -101.5q0 -41 25.5 -72.5t69 -52.5t99.5 -38t118.5 -34t124.5 -37t118 -50.5t99.5 -70t69 -100.5t25.5 -137 q0 -152 -86 -258q107 -97 107 -256q0 -53 -10.5 -100.5t-34.5 -97t-68.5 -89.5t-106.5 -72t-155.5 -49.5t-208.5 -17.5q-247 0 -418 60v227q11 -2 50 -11t53.5 -12t50.5 -10t60.5 -9.5t62 -6t77.5 -5t86 -1.5q160 0 227.5 50.5t67.5 129.5q0 42 -25.5 73.5t-69 52t-99.5 37 t-118 32.5t-123.5 35t-117.5 49t-99.5 69t-69 100t-25.5 138q0 150 98 245q-119 94 -119 269zM469 733q0 -29 11.5 -52t35 -40.5t49.5 -31t66.5 -25.5t74 -21t83 -22t83.5 -23q60 46 60 123q0 34 -17.5 60.5t-43 43.5t-70.5 33.5t-82.5 25.5t-97 24t-97.5 26 q-55 -44 -55 -121z" />
<glyph unicode="&#xa8;" horiz-adv-x="763" d="M102 1434q0 53 32.5 86.5t86.5 33.5q56 0 88.5 -33.5t32.5 -86.5q0 -52 -32.5 -85.5t-88.5 -33.5q-53 0 -86 33.5t-33 85.5zM422 1434q0 53 32.5 86.5t86.5 33.5q56 0 88.5 -33.5t32.5 -86.5q0 -52 -32.5 -85.5t-88.5 -33.5q-53 0 -86 33.5t-33 85.5z" />
<glyph unicode="&#xa9;" horiz-adv-x="1363" d="M102 664q0 123 44 230.5t120.5 184.5t184 121.5t229.5 44.5q164 0 297 -75.5t209 -208.5t76 -297q0 -247 -166.5 -412.5t-415.5 -165.5q-122 0 -229.5 44t-184 120.5t-120.5 184t-44 229.5zM256 664q0 -183 120.5 -303.5t303.5 -120.5q185 0 306.5 120t121.5 304 t-122 306t-306 122q-183 0 -303.5 -121.5t-120.5 -306.5zM401 668q0 138 84 212t224 74q52 0 149 -18v-129q-79 14 -125 14q-92 0 -135 -36t-43 -117q0 -79 43.5 -115.5t134.5 -34.5q57 0 125 12v-131q-86 -16 -149 -16q-139 0 -223.5 74.5t-84.5 210.5z" />
<glyph unicode="&#xaa;" horiz-adv-x="753" d="M102 836q0 88 67 140t173 52q69 0 164 -27v54q0 56 -31.5 83t-109.5 27q-58 0 -128 -23.5t-112 -54.5v152q45 33 114 53.5t140 20.5q122 0 197 -55.5t75 -170.5v-434h-139l8 29q-82 -45 -178 -45q-106 0 -173 54t-67 145zM254 836q0 -66 100 -66q82 0 152 39v57 q-81 31 -152 31q-100 0 -100 -61z" />
<glyph unicode="&#xab;" horiz-adv-x="1296" d="M102 637v59q76 73 143.5 188t88.5 220h291q-70 -297 -246 -438q175 -141 246 -439h-291q-21 106 -88.5 221.5t-143.5 188.5zM569 637v59q76 73 143.5 188t88.5 220h291q-70 -297 -246 -438q175 -141 246 -439h-291q-21 106 -88.5 221.5t-143.5 188.5z" />
<glyph unicode="&#xac;" horiz-adv-x="1056" d="M102 545v241h852v-497h-221v256h-631z" />
<glyph unicode="&#xad;" horiz-adv-x="835" d="M102 545v241h631v-241h-631z" />
<glyph unicode="&#xae;" horiz-adv-x="1363" d="M102 664q0 123 44 230.5t120.5 184.5t184 121.5t229.5 44.5q164 0 297 -75.5t209 -208.5t76 -297q0 -247 -166.5 -412.5t-415.5 -165.5q-122 0 -229.5 44t-184 120.5t-120.5 184t-44 229.5zM256 664q0 -183 120.5 -303.5t303.5 -120.5q185 0 306.5 120t121.5 304 t-122 306t-306 122q-183 0 -303.5 -121.5t-120.5 -306.5zM477 403v541h207q97 0 152 -47t55 -129q0 -120 -103 -174l166 -191h-163l-127 158h-54v-158h-133zM610 690h97q49 18 49 72q0 63 -80 63h-66v-135z" />
<glyph unicode="&#xaf;" horiz-adv-x="794" d="M123 1311v194h549v-194h-549z" />
<glyph unicode="&#xb0;" horiz-adv-x="612" d="M102 1112q0 90 54.5 145.5t148.5 55.5t149.5 -55.5t55.5 -145.5q0 -89 -55.5 -145t-149.5 -56t-148.5 56t-54.5 145zM209 1112q0 -46 25.5 -73t70.5 -27t70.5 27t25.5 73t-25.5 73t-70.5 27t-70.5 -27t-25.5 -73z" />
<glyph unicode="&#xb2;" horiz-adv-x="679" d="M102 641v74q158 119 216 177q106 106 106 193q0 95 -115 95q-93 0 -190 -33v125q94 41 211 41q64 0 111.5 -19t73 -51t37 -67.5t11.5 -75.5q0 -156 -196 -332h211v-127h-476z" />
<glyph unicode="&#xb3;" horiz-adv-x="675" d="M123 670v118q88 -26 176 -26q115 0 115 88q0 50 -35 71t-115 21q-41 0 -82 -8v80l172 172h-231v125h412v-101l-168 -170h2q95 -6 139.5 -56.5t44.5 -133.5q0 -86 -58.5 -148.5t-175.5 -62.5q-101 0 -196 31z" />
<glyph unicode="&#xb4;" horiz-adv-x="577" d="M117 1331l73 174h277l-121 -174h-229z" />
<glyph unicode="&#xb6;" horiz-adv-x="1396" d="M143 852q0 224 137 351.5t379 127.5h656v-233h-228v-1303h-258v613q-86 -21 -192 -21q-118 0 -212.5 37t-155.5 100.5t-93.5 147.5t-32.5 180zM401 856q0 -104 63 -168.5t191 -64.5q94 0 174 26v449h-180q-122 0 -185 -64.5t-63 -177.5z" />
<glyph unicode="&#xb7;" horiz-adv-x="731" d="M205 666q0 70 44.5 115.5t115.5 45.5q74 0 117.5 -45.5t43.5 -115.5q0 -69 -44 -114.5t-117 -45.5q-71 0 -115.5 45.5t-44.5 114.5z" />
<glyph unicode="&#xb8;" horiz-adv-x="552" d="M143 -160q8 -2 21 -2q53 0 53 60q0 42 -29 102h170q52 -73 52 -154q0 -76 -50.5 -114.5t-130.5 -38.5q-38 0 -86 10v137z" />
<glyph unicode="&#xb9;" horiz-adv-x="481" d="M102 1120v131q84 58 203 58h53v-658h-135v516q-50 0 -121 -47z" />
<glyph unicode="&#xba;" horiz-adv-x="831" d="M82 975q0 149 93 243.5t241 94.5q145 0 239.5 -94.5t94.5 -243.5q0 -147 -94.5 -242.5t-239.5 -95.5q-147 0 -240.5 95t-93.5 243zM242 975q0 -96 47.5 -146.5t126.5 -50.5q78 0 125 51t47 146q0 91 -48 143.5t-124 52.5q-78 0 -126 -52.5t-48 -143.5z" />
<glyph unicode="&#xbb;" horiz-adv-x="1296" d="M205 227q71 298 246 439q-176 141 -246 438h291q21 -106 88 -220.5t143 -187.5v-59q-76 -73 -143 -188.5t-88 -221.5h-291zM672 227q71 298 246 439q-176 141 -246 438h291q21 -106 88 -220.5t143 -187.5v-59q-76 -73 -143 -188.5t-88 -221.5h-291z" />
<glyph unicode="&#xbf;" horiz-adv-x="1171" d="M205 334q0 73 25 137t64 110.5t92 85t104.5 63t105.5 40.5l18 141h207l15 -280q-58 -16 -100 -30.5t-96 -39t-88.5 -51t-58.5 -65.5t-24 -83q0 -72 47 -112.5t143 -40.5q142 0 308 78v-226q-71 -42 -162.5 -65t-181.5 -23q-104 0 -186 29.5t-131.5 80.5t-75 115 t-25.5 136zM559 1196q0 70 44.5 116t115.5 46q74 0 118 -46t44 -116q0 -69 -44.5 -114.5t-117.5 -45.5q-71 0 -115.5 45.5t-44.5 114.5z" />
<glyph unicode="&#xc0;" horiz-adv-x="1605" d="M82 0l604 1335l-104 150h276l74 -174l592 -1311h-291l-105 242h-649l-106 -242h-291zM567 477h471l-235 561z" />
<glyph unicode="&#xc1;" horiz-adv-x="1605" d="M82 0l592 1311l74 174h276l-104 -150l604 -1335h-291l-105 242h-649l-106 -242h-291zM567 477h471l-235 561z" />
<glyph unicode="&#xc2;" horiz-adv-x="1605" d="M82 0l592 1311h-99l89 174h282l90 -174h-104l592 -1311h-291l-105 242h-649l-106 -242h-291zM567 477h471l-235 561z" />
<glyph unicode="&#xc3;" horiz-adv-x="1605" d="M82 0l584 1292h-150q-10 120 39.5 181t136.5 61q39 0 99.5 -25.5t80.5 -25.5q40 0 37 47h187q10 -112 -33.5 -173t-120.5 -67l582 -1290h-291l-105 242h-649l-106 -242h-291zM567 477h471l-235 561z" />
<glyph unicode="&#xc4;" horiz-adv-x="1605" d="M82 0l586 1296q-8 -2 -25 -2q-53 0 -86 33.5t-33 85.5q0 53 33 87t86 34q56 0 88.5 -33.5t32.5 -87.5q0 -37 -21 -72h123q-22 31 -22 72q0 53 33 87t86 34q56 0 88 -33.5t32 -87.5q0 -52 -32 -85.5t-88 -33.5q-17 0 -25 2l586 -1296h-291l-105 242h-649l-106 -242h-291z M567 477h471l-235 561z" />
<glyph unicode="&#xc5;" horiz-adv-x="1605" d="M82 0l575 1274q-41 50 -41 125q0 83 51 134.5t138 51.5t137.5 -51.5t50.5 -134.5q0 -76 -45 -127l576 -1272h-291l-105 242h-649l-106 -242h-291zM567 477h471l-235 561zM750 1399q0 -58 55 -58t55 58q0 57 -55 57t-55 -57z" />
<glyph unicode="&#xc6;" horiz-adv-x="2097" d="M82 0l686 1331h1124v-241h-710v-291h657v-242h-657v-111q0 -130 72 -178.5t237 -48.5q210 0 401 31v-238q-80 -14 -115.5 -20t-117.5 -12.5t-178 -6.5q-219 0 -349 63.5t-178 205.5h-462l-119 -242h-291zM606 477h318v641z" />
<glyph unicode="&#xc7;" horiz-adv-x="1413" d="M164 666q0 168 52 299.5t147 217.5t227 130.5t295 44.5q218 0 364 -41v-240q-168 30 -301 33q-262 3 -387 -102.5t-125 -341.5t125 -342t387 -103q133 3 301 33v-240q-109 -30 -237 -37q37 -64 37 -131q0 -76 -50.5 -114.5t-130.5 -38.5q-38 0 -86 10v137q8 -2 21 -2 q53 0 53 60q0 32 -16 75q-313 12 -494.5 191.5t-181.5 501.5z" />
<glyph unicode="&#xc8;" horiz-adv-x="1419" d="M246 453v878h387l-107 154h277l65 -154h346v-241h-710v-291h657v-242h-657v-111q0 -130 72 -178.5t237 -48.5q210 0 401 31v-238q-80 -14 -115.5 -20t-117.5 -12.5t-178 -6.5q-285 0 -421 111t-136 369z" />
<glyph unicode="&#xc9;" horiz-adv-x="1419" d="M246 453v878h387l65 154h277l-107 -154h346v-241h-710v-291h657v-242h-657v-111q0 -130 72 -178.5t237 -48.5q210 0 401 31v-238q-80 -14 -115.5 -20t-117.5 -12.5t-178 -6.5q-285 0 -421 111t-136 369z" />
<glyph unicode="&#xca;" horiz-adv-x="1419" d="M246 453v878h254l78 154h282l80 -154h274v-241h-710v-291h657v-242h-657v-111q0 -130 72 -178.5t237 -48.5q210 0 401 31v-238q-80 -14 -115.5 -20t-117.5 -12.5t-178 -6.5q-285 0 -421 111t-136 369z" />
<glyph unicode="&#xcb;" horiz-adv-x="1419" d="M246 453v878h254q-31 31 -31 82q0 53 33 87t86 34q56 0 88.5 -33.5t32.5 -87.5q0 -50 -29 -82h139q-31 31 -31 82q0 53 33 87t86 34q56 0 88.5 -33.5t32.5 -87.5q0 -50 -29 -82h215v-241h-710v-291h657v-242h-657v-111q0 -130 72 -178.5t237 -48.5q210 0 401 31v-238 q-80 -14 -115.5 -20t-117.5 -12.5t-178 -6.5q-285 0 -421 111t-136 369z" />
<glyph unicode="&#xcc;" horiz-adv-x="790" d="M160 1505h276l74 -174h14v-1331h-258v1331h15z" />
<glyph unicode="&#xcd;" horiz-adv-x="790" d="M266 0v1331h15l73 174h277l-121 -174h14v-1331h-258z" />
<glyph unicode="&#xce;" horiz-adv-x="790" d="M166 1331l88 174h283l90 -174h-103v-1331h-258v1331h-100z" />
<glyph unicode="&#xcf;" horiz-adv-x="804" d="M123 1413q0 53 33 87t86 34q56 0 88 -33.5t32 -87.5q0 -51 -28 -82h139q-31 31 -31 82q0 53 33 87t86 34q56 0 88.5 -33.5t32.5 -87.5q0 -52 -32.5 -85.5t-88.5 -33.5q-13 0 -33 4v-1298h-258v1296q-8 -2 -28 -2q-53 0 -86 33.5t-33 85.5z" />
<glyph unicode="&#xd0;" horiz-adv-x="1624" d="M61 559v221h211v551h514q330 0 502 -167.5t172 -508.5q0 -168 -50 -299t-140 -214t-212.5 -126t-271.5 -43q-297 0 -514 82v504h-211zM530 246q115 -31 250 -31q410 0 410 440q0 237 -94.5 336t-309.5 99h-256v-310h334v-221h-334v-313z" />
<glyph unicode="&#xd1;" horiz-adv-x="1918" d="M266 0v1331h105q75 0 154.5 -43t154 -115.5t149 -162.5t149 -191t142.5 -192t141.5 -175.5t135.5 -132.5v1012h256v-1331h-103q-90 0 -179 40.5t-166.5 110t-151 155t-144 182.5t-133 184t-130 169.5t-124.5 129.5v-971h-256zM739 1210q-10 120 39.5 181t136.5 61 q39 0 100 -25.5t81 -25.5q40 0 37 47h186q10 -120 -39.5 -181t-136.5 -61q-39 0 -99.5 25.5t-80.5 25.5q-40 0 -37 -47h-187z" />
<glyph unicode="&#xd2;" d="M164 666q0 279 155.5 464t425.5 220l-108 155h276l66 -153q273 -35 429.5 -220.5t156.5 -465.5q0 -200 -84 -357t-244 -246.5t-373 -89.5q-212 0 -372 89.5t-244 246.5t-84 357zM436 666q0 -205 111 -326t317 -121q207 0 318.5 121t111.5 326t-111.5 327.5t-318.5 122.5 q-206 0 -317 -122.5t-111 -327.5z" />
<glyph unicode="&#xd3;" d="M164 666q0 275 151 458.5t414 223.5l68 157h276l-106 -153q278 -31 438 -217t160 -469q0 -200 -84 -357t-244 -246.5t-373 -89.5q-212 0 -372 89.5t-244 246.5t-84 357zM436 666q0 -205 111 -326t317 -121q207 0 318.5 121t111.5 326t-111.5 327.5t-318.5 122.5 q-206 0 -317 -122.5t-111 -327.5z" />
<glyph unicode="&#xd4;" d="M164 666q0 251 127.5 427.5t353.5 237.5l78 154h283l79 -156q225 -60 352.5 -236.5t127.5 -426.5q0 -200 -84 -357t-244 -246.5t-373 -89.5q-212 0 -372 89.5t-244 246.5t-84 357zM436 666q0 -205 111 -326t317 -121q207 0 318.5 121t111.5 326t-111.5 327.5 t-318.5 122.5q-206 0 -317 -122.5t-111 -327.5z" />
<glyph unicode="&#xd5;" d="M164 666q0 230 107.5 398.5t301.5 242.5q-1 101 48.5 153.5t130.5 52.5q39 0 99.5 -25.5t80.5 -25.5q40 0 37 47h186q11 -123 -45 -186q215 -66 335 -240t120 -417q0 -200 -84 -357t-244 -246.5t-373 -89.5q-212 0 -372 89.5t-244 246.5t-84 357zM436 666 q0 -205 111 -326t317 -121q207 0 318.5 121t111.5 326t-111.5 327.5t-318.5 122.5q-206 0 -317 -122.5t-111 -327.5z" />
<glyph unicode="&#xd6;" d="M164 666q0 243 121 418t336 239q-37 37 -37 90t32.5 87t85.5 34q56 0 88.5 -33.5t32.5 -87.5q0 -33 -12 -57q16 2 53 2q35 0 51 -2q-12 24 -12 57q0 53 33 87t86 34q56 0 88.5 -33.5t32.5 -87.5q0 -58 -37 -88q217 -66 338 -240t121 -419q0 -200 -84 -357t-244 -246.5 t-373 -89.5q-212 0 -372 89.5t-244 246.5t-84 357zM436 666q0 -205 111 -326t317 -121q207 0 318.5 121t111.5 326t-111.5 327.5t-318.5 122.5q-206 0 -317 -122.5t-111 -327.5z" />
<glyph unicode="&#xd8;" d="M156 0l168 201q-160 187 -160 465q0 203 84 359.5t243.5 244.5t372.5 88q208 0 363 -82l47 55h307l-170 -203q154 -187 154 -462q0 -200 -84 -357t-244 -246.5t-373 -89.5q-199 0 -356 80l-45 -53h-307zM436 666q0 -152 62 -258l563 671q-81 37 -197 37 q-206 0 -317 -122.5t-111 -327.5zM676 254q81 -35 188 -35q207 0 318.5 121t111.5 326q0 148 -59 254z" />
<glyph unicode="&#xd9;" horiz-adv-x="1744" d="M225 621v710h273v-710q0 -207 85 -304.5t289 -97.5q206 0 290.5 97.5t84.5 304.5v710h273v-710q0 -307 -164 -477.5t-484 -170.5q-318 0 -482.5 170.5t-164.5 477.5zM692 1331h277l73 -174h-229z" />
<glyph unicode="&#xda;" horiz-adv-x="1744" d="M225 621v710h273v-710q0 -207 85 -304.5t289 -97.5q206 0 290.5 97.5t84.5 304.5v710h273v-710q0 -307 -164 -477.5t-484 -170.5q-318 0 -482.5 170.5t-164.5 477.5zM700 1157l74 174h277l-121 -174h-230z" />
<glyph unicode="&#xdb;" horiz-adv-x="1744" d="M225 621v710h273v-710q0 -207 85 -304.5t289 -97.5q206 0 290.5 97.5t84.5 304.5v710h273v-710q0 -307 -164 -477.5t-484 -170.5q-318 0 -482.5 170.5t-164.5 477.5zM643 1157l88 174h283l90 -174h-461z" />
<glyph unicode="&#xdc;" horiz-adv-x="1744" d="M225 621v710h273v-710q0 -207 85 -304.5t289 -97.5q206 0 290.5 97.5t84.5 304.5v710h273v-710q0 -307 -164 -477.5t-484 -170.5q-318 0 -482.5 170.5t-164.5 477.5zM594 1223q0 53 32.5 86.5t86.5 33.5q56 0 88.5 -33.5t32.5 -86.5q0 -52 -32.5 -85.5t-88.5 -33.5 q-53 0 -86 33.5t-33 85.5zM913 1223q0 53 32.5 86.5t86.5 33.5q56 0 88.5 -33.5t32.5 -86.5q0 -52 -32.5 -85.5t-88.5 -33.5q-53 0 -86 33.5t-33 85.5z" />
<glyph unicode="&#xdd;" horiz-adv-x="1427" d="M61 1120l27 226q221 -6 387 -139.5t240 -336.5q75 203 239.5 336.5t384.5 139.5l27 -226q-130 -18 -232 -83.5t-164 -164.5t-94 -220.5t-32 -258.5v-393h-258v393q0 109 -19.5 211t-62 193t-103 160t-148 112.5t-192.5 50.5zM586 1331l73 174h277l-121 -174h-229z" />
<glyph unicode="&#xde;" horiz-adv-x="1406" d="M266 0v1331h258v-246h271q100 0 180 -22t133.5 -59.5t89 -91t51 -114.5t15.5 -132q0 -83 -26 -156t-79.5 -133.5t-147 -95.5t-216.5 -35h-271v-246h-258zM524 477h264q114 -1 165 52t51 137t-50.5 136t-165.5 52h-264v-377z" />
<glyph unicode="&#xdf;" horiz-adv-x="2893" d="M184 971q0 175 139.5 281t417.5 106q263 0 445 -64v-217q-262 49 -443 49q-294 0 -294 -135q0 -52 44.5 -88t116.5 -57t158.5 -40t172.5 -47.5t158 -69.5t116.5 -115t44.5 -175q0 -53 -10.5 -100.5t-35 -97t-70 -89.5t-109.5 -72t-160 -49.5t-216 -17.5q-119 0 -249.5 20 t-212.5 52v225q257 -69 467 -69q329 0 329 161q0 46 -27.5 80t-74.5 55t-107.5 38.5t-128 33.5t-134.5 35.5t-127.5 49.5t-107.5 70.5t-74.5 103.5t-27.5 143zM1634 971q0 175 139.5 281t417.5 106q263 0 445 -64v-217q-262 49 -443 49q-295 0 -295 -135q0 -52 45 -88 t116.5 -57t158 -40t173 -47.5t158 -69.5t116.5 -115t45 -175q0 -53 -10.5 -100.5t-35 -97t-70 -89.5t-109.5 -72t-160 -49.5t-216 -17.5q-119 0 -249.5 20t-212.5 52v225q257 -69 467 -69q329 0 329 161q0 46 -27.5 80t-74.5 55t-107.5 38.5t-128 33.5t-134.5 35.5 t-127.5 49.5t-107.5 70.5t-74.5 103.5t-27.5 143z" />
<glyph unicode="&#xe0;" horiz-adv-x="1605" d="M82 0l604 1335l-104 150h276l74 -174l592 -1311h-291l-105 242h-649l-106 -242h-291zM567 477h471l-235 561z" />
<glyph unicode="&#xe1;" horiz-adv-x="1605" d="M82 0l592 1311l74 174h276l-104 -150l604 -1335h-291l-105 242h-649l-106 -242h-291zM567 477h471l-235 561z" />
<glyph unicode="&#xe2;" horiz-adv-x="1605" d="M82 0l592 1311h-99l89 174h282l90 -174h-104l592 -1311h-291l-105 242h-649l-106 -242h-291zM567 477h471l-235 561z" />
<glyph unicode="&#xe3;" horiz-adv-x="1605" d="M82 0l584 1292h-152q-10 120 39.5 181t136.5 61q39 0 99.5 -25.5t80.5 -25.5q40 0 37 47h187q9 -112 -33.5 -172t-120.5 -68l584 -1290h-291l-105 242h-649l-106 -242h-291zM567 477h471l-235 561z" />
<glyph unicode="&#xe4;" horiz-adv-x="1605" d="M82 0l586 1296q-8 -2 -25 -2q-53 0 -86 33.5t-33 85.5q0 53 33 87t86 34q56 0 88.5 -33.5t32.5 -87.5q0 -37 -21 -72h123q-22 31 -22 72q0 53 33 87t86 34q56 0 88 -33.5t32 -87.5q0 -52 -32 -85.5t-88 -33.5q-17 0 -25 2l586 -1296h-291l-105 242h-649l-106 -242h-291z M567 477h471l-235 561z" />
<glyph unicode="&#xe5;" horiz-adv-x="1605" d="M82 0l575 1274q-41 50 -41 125q0 83 51 134.5t138 51.5t137.5 -51.5t50.5 -134.5q0 -76 -45 -127l576 -1272h-291l-105 242h-649l-106 -242h-291zM567 477h471l-235 561zM750 1399q0 -58 55 -58t55 58q0 57 -55 57t-55 -57z" />
<glyph unicode="&#xe6;" horiz-adv-x="2097" d="M82 0l686 1331h1124v-241h-710v-291h657v-242h-657v-111q0 -130 72 -178.5t237 -48.5q210 0 401 31v-238q-80 -14 -115.5 -20t-117.5 -12.5t-178 -6.5q-219 0 -349 63.5t-178 205.5h-462l-119 -242h-291zM606 477h318v641z" />
<glyph unicode="&#xe7;" horiz-adv-x="1413" d="M164 666q0 168 52 299.5t147 217.5t227 130.5t295 44.5q218 0 364 -41v-240q-168 30 -301 33q-262 3 -387 -102.5t-125 -341.5t125 -342t387 -103q133 3 301 33v-240q-109 -30 -237 -37q37 -64 37 -131q0 -76 -50.5 -114.5t-130.5 -38.5q-38 0 -86 10v137q8 -2 21 -2 q53 0 53 60q0 32 -16 75q-313 12 -494.5 191.5t-181.5 501.5z" />
<glyph unicode="&#xe8;" horiz-adv-x="1419" d="M246 453v878h401l-121 174h277l74 -174h337v-241h-710v-291h657v-242h-657v-111q0 -130 72 -178.5t237 -48.5q210 0 401 31v-238q-80 -14 -115.5 -20t-117.5 -12.5t-178 -6.5q-285 0 -421 111t-136 369z" />
<glyph unicode="&#xe9;" horiz-adv-x="1419" d="M246 453v878h379l73 174h277l-121 -174h360v-241h-710v-291h657v-242h-657v-111q0 -130 72 -178.5t237 -48.5q210 0 401 31v-238q-80 -14 -115.5 -20t-117.5 -12.5t-178 -6.5q-285 0 -421 111t-136 369z" />
<glyph unicode="&#xea;" horiz-adv-x="1419" d="M246 453v878h254l78 154h282l80 -154h274v-241h-710v-291h657v-242h-657v-111q0 -130 72 -178.5t237 -48.5q210 0 401 31v-238q-80 -14 -115.5 -20t-117.5 -12.5t-178 -6.5q-285 0 -421 111t-136 369z" />
<glyph unicode="&#xeb;" horiz-adv-x="1419" d="M246 453v878h254q-31 31 -31 82q0 53 33 87t86 34q56 0 88.5 -33.5t32.5 -87.5q0 -50 -29 -82h139q-31 31 -31 82q0 53 33 87t86 34q56 0 88.5 -33.5t32.5 -87.5q0 -50 -29 -82h215v-241h-710v-291h657v-242h-657v-111q0 -130 72 -178.5t237 -48.5q210 0 401 31v-238 q-80 -14 -115.5 -20t-117.5 -12.5t-178 -6.5q-285 0 -421 111t-136 369z" />
<glyph unicode="&#xec;" horiz-adv-x="790" d="M160 1505h276l74 -174h14v-1331h-258v1331h15z" />
<glyph unicode="&#xed;" horiz-adv-x="790" d="M266 0v1331h15l73 174h277l-121 -174h14v-1331h-258z" />
<glyph unicode="&#xee;" horiz-adv-x="790" d="M166 1331l88 174h283l90 -174h-103v-1331h-258v1331h-100z" />
<glyph unicode="&#xef;" horiz-adv-x="804" d="M123 1413q0 53 33 87t86 34q56 0 88 -33.5t32 -87.5q0 -51 -28 -82h139q-31 31 -31 82q0 53 33 87t86 34q56 0 88.5 -33.5t32.5 -87.5q0 -52 -32.5 -85.5t-88.5 -33.5q-13 0 -33 4v-1298h-258v1296q-8 -2 -28 -2q-53 0 -86 33.5t-33 85.5z" />
<glyph unicode="&#xf0;" horiz-adv-x="1617" d="M61 559v221h205v551h514q330 0 502 -167.5t172 -508.5q0 -168 -50 -299t-140 -214t-212.5 -126t-271.5 -43q-297 0 -514 82v504h-205zM524 246q115 -31 250 -31q410 0 410 440q0 237 -94.5 336t-309.5 99h-256v-310h340v-221h-340v-313z" />
<glyph unicode="&#xf1;" horiz-adv-x="1918" d="M266 0v1331h105q75 0 154.5 -43t154 -115.5t149 -162.5t149 -191t142.5 -192t141.5 -175.5t135.5 -132.5v1012h256v-1331h-103q-90 0 -179 40.5t-166.5 110t-151 155t-144 182.5t-133 184t-130 169.5t-124.5 129.5v-971h-256zM670 1292q-10 120 39.5 181t136.5 61 q39 0 99.5 -25.5t80.5 -25.5q40 0 37 47h186q10 -120 -39.5 -181t-136.5 -61q-39 0 -99.5 25.5t-80.5 25.5q-40 0 -37 -47h-186z" />
<glyph unicode="&#xf2;" d="M164 666q0 279 155.5 464t425.5 220l-108 155h276l66 -153q273 -35 429.5 -220.5t156.5 -465.5q0 -200 -84 -357t-244 -246.5t-373 -89.5q-212 0 -372 89.5t-244 246.5t-84 357zM436 666q0 -205 111 -326t317 -121q207 0 318.5 121t111.5 326t-111.5 327.5t-318.5 122.5 q-206 0 -317 -122.5t-111 -327.5z" />
<glyph unicode="&#xf3;" d="M164 666q0 275 151 458.5t414 223.5l68 157h276l-106 -153q278 -31 438 -217t160 -469q0 -200 -84 -357t-244 -246.5t-373 -89.5q-212 0 -372 89.5t-244 246.5t-84 357zM436 666q0 -205 111 -326t317 -121q207 0 318.5 121t111.5 326t-111.5 327.5t-318.5 122.5 q-206 0 -317 -122.5t-111 -327.5z" />
<glyph unicode="&#xf4;" d="M164 666q0 250 127 426.5t352 236.5l78 156h283l79 -154q227 -60 354.5 -237t127.5 -428q0 -200 -84 -357t-244 -246.5t-373 -89.5q-212 0 -372 89.5t-244 246.5t-84 357zM436 666q0 -205 111 -326t317 -121q207 0 318.5 121t111.5 326t-111.5 327.5t-318.5 122.5 q-206 0 -317 -122.5t-111 -327.5z" />
<glyph unicode="&#xf5;" d="M164 666q0 229 107.5 398.5t299.5 242.5q-1 101 48.5 153.5t130.5 52.5q39 0 99.5 -25.5t80.5 -25.5q40 0 37 47h186q11 -122 -43 -186q215 -64 335 -238.5t120 -418.5q0 -200 -84 -357t-244 -246.5t-373 -89.5q-212 0 -372 89.5t-244 246.5t-84 357zM436 666 q0 -205 111 -326t317 -121q207 0 318.5 121t111.5 326t-111.5 327.5t-318.5 122.5q-206 0 -317 -122.5t-111 -327.5z" />
<glyph unicode="&#xf6;" d="M164 666q0 243 121 418t336 239q-37 37 -37 90t32.5 87t85.5 34q56 0 88.5 -33.5t32.5 -87.5q0 -33 -12 -57q16 2 53 2q35 0 51 -2q-12 24 -12 57q0 53 33 87t86 34q56 0 88.5 -33.5t32.5 -87.5q0 -58 -37 -88q217 -66 338 -240t121 -419q0 -200 -84 -357t-244 -246.5 t-373 -89.5q-212 0 -372 89.5t-244 246.5t-84 357zM436 666q0 -205 111 -326t317 -121q207 0 318.5 121t111.5 326t-111.5 327.5t-318.5 122.5q-206 0 -317 -122.5t-111 -327.5z" />
<glyph unicode="&#xf8;" d="M156 0l168 201q-160 187 -160 465q0 203 84 359.5t243.5 244.5t372.5 88q208 0 363 -82l47 55h307l-170 -203q154 -187 154 -462q0 -200 -84 -357t-244 -246.5t-373 -89.5q-199 0 -356 80l-45 -53h-307zM436 666q0 -152 62 -258l563 671q-81 37 -197 37 q-206 0 -317 -122.5t-111 -327.5zM676 254q81 -35 188 -35q207 0 318.5 121t111.5 326q0 148 -59 254z" />
<glyph unicode="&#xf9;" horiz-adv-x="1744" d="M225 621v710h273v-710q0 -207 85 -304.5t289 -97.5q206 0 290.5 97.5t84.5 304.5v710h273v-710q0 -307 -164 -477.5t-484 -170.5q-318 0 -482.5 170.5t-164.5 477.5zM692 1331h277l73 -174h-229z" />
<glyph unicode="&#xfa;" horiz-adv-x="1744" d="M225 621v710h273v-710q0 -207 85 -304.5t289 -97.5q206 0 290.5 97.5t84.5 304.5v710h273v-710q0 -307 -164 -477.5t-484 -170.5q-318 0 -482.5 170.5t-164.5 477.5zM700 1157l74 174h277l-121 -174h-230z" />
<glyph unicode="&#xfb;" horiz-adv-x="1744" d="M225 621v710h273v-710q0 -207 85 -304.5t289 -97.5q206 0 290.5 97.5t84.5 304.5v710h273v-710q0 -307 -164 -477.5t-484 -170.5q-318 0 -482.5 170.5t-164.5 477.5zM643 1157l88 174h283l90 -174h-461z" />
<glyph unicode="&#xfc;" horiz-adv-x="1744" d="M225 621v710h273v-710q0 -207 85 -304.5t289 -97.5q206 0 290.5 97.5t84.5 304.5v710h273v-710q0 -307 -164 -477.5t-484 -170.5q-318 0 -482.5 170.5t-164.5 477.5zM594 1223q0 53 32.5 86.5t86.5 33.5q56 0 88.5 -33.5t32.5 -86.5q0 -52 -32.5 -85.5t-88.5 -33.5 q-53 0 -86 33.5t-33 85.5zM913 1223q0 53 32.5 86.5t86.5 33.5q56 0 88.5 -33.5t32.5 -86.5q0 -52 -32.5 -85.5t-88.5 -33.5q-53 0 -86 33.5t-33 85.5z" />
<glyph unicode="&#xfd;" horiz-adv-x="1427" d="M61 1120l27 226q221 -6 387 -139.5t240 -336.5q75 203 239.5 336.5t384.5 139.5l27 -226q-130 -18 -232 -83.5t-164 -164.5t-94 -220.5t-32 -258.5v-393h-258v393q0 109 -19.5 211t-62 193t-103 160t-148 112.5t-192.5 50.5zM539 1331l73 174h277l-121 -174h-229z" />
<glyph unicode="&#xfe;" horiz-adv-x="1406" d="M266 0v1331h258v-246h271q100 0 180 -22t133.5 -59.5t89 -91t51 -114.5t15.5 -132q0 -83 -26 -156t-79.5 -133.5t-147 -95.5t-216.5 -35h-271v-246h-258zM524 477h264q114 -1 165 52t51 137t-50.5 136t-165.5 52h-264v-377z" />
<glyph unicode="&#xff;" horiz-adv-x="1427" d="M61 1120l27 226q221 -6 387 -139.5t240 -336.5q75 203 239.5 336.5t384.5 139.5l27 -226q-130 -18 -232 -83.5t-164 -164.5t-94 -220.5t-32 -258.5v-393h-258v393q0 109 -19.5 211t-62 193t-103 160t-148 112.5t-192.5 50.5zM434 1413q0 53 33 87t86 34q56 0 88.5 -33.5 t32.5 -87.5q0 -52 -32.5 -85.5t-88.5 -33.5q-53 0 -86 33.5t-33 85.5zM754 1413q0 53 32.5 87t85.5 34q56 0 88.5 -33.5t32.5 -87.5q0 -52 -32.5 -85.5t-88.5 -33.5q-53 0 -85.5 33.5t-32.5 85.5z" />
<glyph unicode="&#x152;" horiz-adv-x="2473" d="M164 666q0 203 84 359.5t243.5 244.5t372.5 88q253 0 436 -127v100h969v-241h-710v-291h657v-242h-657v-111q0 -130 72 -178.5t237 -48.5q210 0 401 31v-238q-80 -14 -115.5 -20t-117.5 -12.5t-178 -6.5q-185 0 -305.5 45t-182.5 144q-192 -189 -506 -189 q-212 0 -372 89.5t-244 246.5t-84 357zM436 666q0 -205 111 -326t317 -121q207 0 318.5 121t111.5 326t-111.5 327.5t-318.5 122.5q-206 0 -317 -122.5t-111 -327.5z" />
<glyph unicode="&#x153;" horiz-adv-x="2473" d="M164 666q0 203 84 359.5t243.5 244.5t372.5 88q253 0 436 -127v100h969v-241h-710v-291h657v-242h-657v-111q0 -130 72 -178.5t237 -48.5q210 0 401 31v-238q-80 -14 -115.5 -20t-117.5 -12.5t-178 -6.5q-185 0 -305.5 45t-182.5 144q-192 -189 -506 -189 q-212 0 -372 89.5t-244 246.5t-84 357zM436 666q0 -205 111 -326t317 -121q207 0 318.5 121t111.5 326t-111.5 327.5t-318.5 122.5q-206 0 -317 -122.5t-111 -327.5z" />
<glyph unicode="&#x178;" horiz-adv-x="1427" d="M61 1120l27 226q221 -6 387 -139.5t240 -336.5q75 203 239.5 336.5t384.5 139.5l27 -226q-130 -18 -232 -83.5t-164 -164.5t-94 -220.5t-32 -258.5v-393h-258v393q0 109 -19.5 211t-62 193t-103 160t-148 112.5t-192.5 50.5zM434 1413q0 53 33 87t86 34q56 0 88.5 -33.5 t32.5 -87.5q0 -52 -32.5 -85.5t-88.5 -33.5q-53 0 -86 33.5t-33 85.5zM754 1413q0 53 32.5 87t85.5 34q56 0 88.5 -33.5t32.5 -87.5q0 -52 -32.5 -85.5t-88.5 -33.5q-53 0 -85.5 33.5t-32.5 85.5z" />
<glyph unicode="&#x2c6;" horiz-adv-x="798" d="M170 1331l88 174h283l90 -174h-461z" />
<glyph unicode="&#x2dc;" horiz-adv-x="788" d="M104 1292q-10 120 40 181t137 61q39 0 99.5 -25.5t80.5 -25.5q40 0 37 47h186q10 -120 -39.5 -181t-136.5 -61q-39 0 -99.5 25.5t-80.5 25.5q-40 0 -37 -47h-187z" />
<glyph unicode="&#x2000;" horiz-adv-x="807" />
<glyph unicode="&#x2001;" horiz-adv-x="1614" />
<glyph unicode="&#x2002;" horiz-adv-x="807" />
<glyph unicode="&#x2003;" horiz-adv-x="1614" />
<glyph unicode="&#x2004;" horiz-adv-x="538" />
<glyph unicode="&#x2005;" horiz-adv-x="403" />
<glyph unicode="&#x2006;" horiz-adv-x="269" />
<glyph unicode="&#x2007;" horiz-adv-x="269" />
<glyph unicode="&#x2008;" horiz-adv-x="201" />
<glyph unicode="&#x2009;" horiz-adv-x="322" />
<glyph unicode="&#x200a;" horiz-adv-x="89" />
<glyph unicode="&#x2010;" horiz-adv-x="835" d="M102 545v241h631v-241h-631z" />
<glyph unicode="&#x2011;" horiz-adv-x="835" d="M102 545v241h631v-241h-631z" />
<glyph unicode="&#x2012;" horiz-adv-x="835" d="M102 545v241h631v-241h-631z" />
<glyph unicode="&#x2013;" horiz-adv-x="1138" d="M102 545v241h934v-241h-934z" />
<glyph unicode="&#x2014;" horiz-adv-x="1552" d="M102 545v241h1348v-241h-1348z" />
<glyph unicode="&#x2018;" horiz-adv-x="532" d="M129 928q-12 176 9.5 296.5t88.5 205.5h203q-75 -191 -37 -502h-264z" />
<glyph unicode="&#x2019;" horiz-adv-x="532" d="M102 928q75 191 37 502h264q12 -176 -9.5 -296.5t-88.5 -205.5h-203z" />
<glyph unicode="&#x201a;" horiz-adv-x="532" d="M102 -279q75 191 37 502h264q12 -176 -9.5 -296.5t-88.5 -205.5h-203z" />
<glyph unicode="&#x201c;" horiz-adv-x="927" d="M129 907q-12 176 9.5 296.5t88.5 205.5h203q-75 -191 -37 -502h-264zM524 907q-12 175 10 296t89 206h202q-75 -191 -37 -502h-264z" />
<glyph unicode="&#x201d;" horiz-adv-x="931" d="M102 928q75 191 37 502h264q12 -176 -9.5 -296.5t-88.5 -205.5h-203zM502 928q75 191 37 502h264q12 -176 -9.5 -296.5t-88.5 -205.5h-203z" />
<glyph unicode="&#x201e;" horiz-adv-x="931" d="M102 -256q75 191 37 502h264q12 -176 -9.5 -296.5t-88.5 -205.5h-203zM502 -256q75 191 37 502h264q12 -176 -9.5 -296.5t-88.5 -205.5h-203z" />
<glyph unicode="&#x2022;" horiz-adv-x="958" d="M205 670q0 120 75 197t197 77q127 0 202 -76.5t75 -197.5q0 -119 -75.5 -197t-201.5 -78q-121 0 -196.5 78.5t-75.5 196.5z" />
<glyph unicode="&#x2026;" horiz-adv-x="1843" d="M102 133q0 70 44.5 116t115.5 46q74 0 118 -46t44 -116q0 -69 -44.5 -114.5t-117.5 -45.5q-71 0 -115.5 45.5t-44.5 114.5zM762 133q0 70 44.5 116t115.5 46q74 0 117.5 -45.5t43.5 -116.5q0 -69 -44 -114.5t-117 -45.5q-71 0 -115.5 45.5t-44.5 114.5zM1419 133 q0 70 44.5 116t115.5 46q74 0 118 -46t44 -116q0 -69 -44.5 -114.5t-117.5 -45.5q-71 0 -115.5 45.5t-44.5 114.5z" />
<glyph unicode="&#x202f;" horiz-adv-x="322" />
<glyph unicode="&#x2039;" horiz-adv-x="727" d="M102 637v59q76 73 143.5 188t88.5 220h291q-70 -297 -246 -438q175 -141 246 -439h-291q-21 106 -88.5 221.5t-143.5 188.5z" />
<glyph unicode="&#x203a;" horiz-adv-x="727" d="M102 223q71 298 246 439q-176 141 -246 438h291q21 -106 88.5 -221.5t143.5 -188.5v-59q-76 -73 -143.5 -188t-88.5 -220h-291z" />
<glyph unicode="&#x205f;" horiz-adv-x="403" />
<glyph unicode="&#x20ac;" horiz-adv-x="1355" d="M61 543v243h175q33 279 207 425.5t446 146.5q169 0 323 -41v-240q-203 33 -292 33q-191 0 -293.5 -76.5t-126.5 -247.5h530v-243h-530q24 -169 126.5 -245.5t293.5 -76.5q88 0 292 33v-240q-154 -41 -323 -41q-272 0 -446 146t-207 424h-175z" />
<glyph unicode="&#x2122;" horiz-adv-x="1251" d="M61 1223v108h463v-108h-172v-398h-119v398h-172zM588 825v506h39q34 0 60.5 -18t64.5 -60l116 -131l117 131q38 42 64.5 60t60.5 18h39v-506h-119v318l-162 -176l-161 176v-318h-119z" />
<glyph unicode="&#x25fc;" horiz-adv-x="1330" d="M0 0v1330h1330v-1330h-1330z" />
</font>
</defs>
</svg>
