<?xml version="1.0" standalone="no"?>
<!DOCTYPE svg PUBLIC "-//W3C//DTD SVG 1.1//EN" "http://www.w3.org/Graphics/SVG/1.1/DTD/svg11.dtd" >
<svg xmlns="http://www.w3.org/2000/svg">
<metadata></metadata>
<defs>
<font id="novotype_regularregular" horiz-adv-x="1712" >
<font-face units-per-em="2048" ascent="1638" descent="-410" />
<missing-glyph horiz-adv-x="509" />
<glyph horiz-adv-x="0" />
<glyph unicode="&#xd;" horiz-adv-x="682" />
<glyph unicode=" "  horiz-adv-x="509" />
<glyph unicode="&#x09;" horiz-adv-x="509" />
<glyph unicode="&#xa0;" horiz-adv-x="509" />
<glyph unicode="!" horiz-adv-x="776" d="M266 100q0 53 34 88t87 35q56 0 89.5 -34.5t33.5 -88.5t-33.5 -88.5t-89.5 -34.5q-53 0 -87 35t-34 88zM279 1327h221l-33 -973h-158z" />
<glyph unicode="&#x22;" horiz-adv-x="745" d="M102 1425h217l-30 -520h-158zM426 1427h217l-29 -522h-157z" />
<glyph unicode="#" horiz-adv-x="1460" d="M193 350l22 154h182l47 319h-213l23 154h213l45 295h164l-45 -295h307l45 295h162l-45 -295h184l-22 -154h-185l-49 -319h215l-22 -154h-215l-45 -295h-162l45 295h-307l-45 -295h-162l45 295h-182zM559 504h307l49 319h-307z" />
<glyph unicode="$" horiz-adv-x="1353" d="M164 987q0 146 108.5 245.5t329.5 115.5v188h168v-186q195 -9 354 -60v-157q-200 44 -354 51v-451q73 -20 126 -38.5t112 -49.5t96 -68t61.5 -92.5t24.5 -122.5q0 -332 -420 -378v-193h-168v186q-118 3 -236.5 22.5t-197.5 47.5v164q212 -61 434 -68v469q-54 14 -93.5 26 t-88 31t-82.5 38.5t-69 48t-56.5 61t-35 76t-13.5 94.5zM344 987q0 -41 19 -73.5t57.5 -57t80 -41.5t101.5 -35v402q-130 -13 -194 -65.5t-64 -129.5zM770 150q125 16 182.5 72t57.5 138q0 41 -17.5 73.5t-52.5 56.5t-74.5 41t-95.5 34v-415z" />
<glyph unicode="%" horiz-adv-x="1435" d="M98 1069q0 128 80.5 206.5t200.5 78.5q121 0 199.5 -78.5t78.5 -206.5q0 -126 -79 -206.5t-199 -80.5q-119 0 -200 80.5t-81 206.5zM152 0l923 1327h207l-922 -1327h-208zM242 1069q0 -67 39 -107t98 -40q60 0 99.5 40t39.5 107q0 69 -39.5 108.5t-99.5 39.5 q-59 0 -98 -40t-39 -108zM776 258q0 128 80.5 206.5t200.5 78.5q121 0 199.5 -78.5t78.5 -206.5q0 -126 -79 -205.5t-199 -79.5q-119 0 -200 80t-81 205zM920 258q0 -67 39 -106t98 -39q60 0 99.5 39t39.5 106q0 69 -39.5 108.5t-99.5 39.5q-59 0 -98 -40t-39 -108z" />
<glyph unicode="&#x26;" horiz-adv-x="1503" d="M184 397q0 111 56 196t151 132q-69 33 -112 101.5t-43 154.5q0 174 120.5 272.5t350.5 98.5q207 0 372 -58v-170q-180 58 -340 58q-303 0 -303 -213q0 -85 56 -134t151 -49h70v-157h-62q-124 0 -199 -61t-75 -171q0 -121 93.5 -185.5t268.5 -64.5q179 0 263.5 70.5 t84.5 188.5q0 90 -56 150.5t-152 70.5v161h563v-161h-316q67 -30 106.5 -99.5t39.5 -152.5q0 -84 -31 -154.5t-93.5 -125.5t-167 -86.5t-241.5 -31.5q-143 0 -251 32t-173.5 89.5t-98 132.5t-32.5 166z" />
<glyph unicode="'" horiz-adv-x="569" d="M102 905q19 53 29.5 91t19.5 100.5t6.5 143.5t-16.5 185h215q17 -183 -6 -302t-84 -218h-164z" />
<glyph unicode="(" horiz-adv-x="659" d="M239 947q28 292 113 569h164q-76 -290 -101 -580.5t5 -578.5t117 -545h-164q-96 257 -129 550t-5 585z" />
<glyph unicode=")" horiz-adv-x="659" d="M123 -188q87 257 116.5 545t4.5 578.5t-101 580.5h164q85 -278 113.5 -569.5t-4.5 -584.5t-129 -550h-164z" />
<glyph unicode="*" horiz-adv-x="757" d="M80 1053l41 125q133 -43 201 -119l-9 -29q-99 -20 -233 23zM152 829q87 117 176 156l24 -18q-12 -104 -94 -215zM311 1317h131q0 -146 -51 -230h-31q-49 85 -49 230zM399 967l27 18q94 -43 174 -156l-106 -77q-84 118 -95 215zM430 1059q71 77 203 119l41 -125 q-134 -43 -234 -23z" />
<glyph unicode="+" horiz-adv-x="1122" d="M145 578v176h328v329h178v-329h326v-176h-326v-328h-178v328h-328z" />
<glyph unicode="," horiz-adv-x="581" d="M59 -369q14 27 22.5 45.5t22.5 49.5t23 57t19.5 61t16 69t10 73t3.5 81.5t-6 86.5h201q6 -49 6.5 -93.5t-4.5 -84t-12 -73t-20.5 -66.5t-24.5 -58t-29.5 -54t-31 -48t-32.5 -46h-164z" />
<glyph unicode="-" horiz-adv-x="833" d="M102 578v176h629v-176h-629z" />
<glyph unicode="." horiz-adv-x="509" d="M133 100q0 53 34 88t87 35q56 0 89.5 -34.5t33.5 -88.5t-33.5 -88.5t-89.5 -34.5q-53 0 -87 35t-34 88z" />
<glyph unicode="/" horiz-adv-x="835" d="M205 -223l248 1734h178l-250 -1734h-176z" />
<glyph unicode="0" horiz-adv-x="1462" d="M143 666q0 322 155 507t433 185q279 0 433.5 -185t154.5 -507q0 -319 -155 -506t-433 -187q-277 0 -432.5 187t-155.5 506zM334 666q0 -251 102 -382.5t295 -131.5q194 0 296.5 132t102.5 382q0 251 -102.5 382.5t-296.5 131.5t-295.5 -131t-101.5 -383z" />
<glyph unicode="1" horiz-adv-x="872" d="M143 1020v180q162 127 383 127h80v-1327h-188v1130q-59 0 -133 -31.5t-142 -78.5z" />
<glyph unicode="2" horiz-adv-x="1181" d="M61 0v94q89 66 152 114.5t144 116t137.5 121t115 119.5t94 123t58 120t22.5 122q0 241 -295 241q-177 0 -389 -79v172q208 88 418 88q104 0 186 -25.5t132.5 -66.5t83 -97t45 -111t12.5 -114q0 -88 -34 -179t-84 -165.5t-127 -156.5t-141.5 -139t-150.5 -126h607v-172 h-986z" />
<glyph unicode="3" horiz-adv-x="1132" d="M123 41v168q104 -32 184 -47t178 -15q312 0 312 254q0 209 -244 230q-75 8 -125 6q-78 -3 -180 -19v103l450 436h-575v170h827v-149l-432 -410q33 8 72 8q203 -9 301 -109.5t98 -265.5q0 -83 -26.5 -156t-80.5 -134.5t-148.5 -97.5t-219.5 -36q-209 0 -391 64z" />
<glyph unicode="4" horiz-adv-x="1255" d="M102 260v109q77 403 441 958h213q-179 -272 -288 -479t-165 -420h434v352h189v-352h227v-168h-227v-260h-189v260h-635z" />
<glyph unicode="5" horiz-adv-x="1183" d="M164 49v162q206 -64 368 -64q78 0 136.5 21.5t91.5 58.5t49 82t16 97q0 310 -602 329v592h772v-170h-589v-274q98 -4 184.5 -22t166.5 -54t137.5 -88.5t91.5 -131t34 -175.5q0 -63 -15 -122.5t-50 -117t-86 -100.5t-130.5 -69t-177.5 -26q-192 0 -397 72z" />
<glyph unicode="6" horiz-adv-x="1323" d="M143 639q0 209 76 370t222 252t343 91q151 0 273 -37v-168q-142 37 -260 37q-205 0 -326 -129t-141 -336q72 73 172 115.5t209 42.5q222 0 345.5 -113.5t123.5 -325.5q0 -204 -138 -332.5t-344 -128.5q-89 0 -169 23t-151 74.5t-123 127t-82 187.5t-30 250zM322 537 q21 -203 122 -295t254 -92q130 0 212.5 76t82.5 212q0 132 -76.5 200.5t-211.5 68.5q-103 0 -205.5 -44.5t-177.5 -125.5z" />
<glyph unicode="7" horiz-adv-x="1124" d="M102 1153v174h961v-127q-81 -71 -154 -152.5t-150 -197.5t-132.5 -240.5t-91 -284t-35.5 -325.5h-195q0 162 35.5 324t89 287.5t121 238t125.5 184.5t110 119h-684z" />
<glyph unicode="8" horiz-adv-x="1232" d="M131 369q0 223 207 344q-166 97 -166 278q0 160 120 260.5t320 100.5q110 0 196 -31.5t138 -85t78.5 -118.5t26.5 -138q0 -163 -142 -315q92 -48 144.5 -118.5t52.5 -180.5q0 -78 -28.5 -146.5t-84.5 -123.5t-149 -86.5t-213 -31.5q-123 0 -220 32t-157 87t-91.5 125 t-31.5 148zM319 379q0 -108 84.5 -175t225.5 -67q135 0 210.5 60t75.5 163q0 42 -18.5 77t-44.5 57t-73.5 44.5t-84 34.5t-99 31.5t-97.5 32.5q-85 -38 -132 -105.5t-47 -152.5zM365 991q0 -31 10 -58t24 -46.5t41 -38t49.5 -30t61 -25.5t64.5 -22t71 -21t70 -21 q114 121 114 240q0 92 -64.5 156.5t-189.5 64.5q-121 0 -186 -56t-65 -143z" />
<glyph unicode="9" horiz-adv-x="1323" d="M143 891q0 204 138 332.5t344 128.5q89 0 169 -23t151 -74.5t123 -127t82 -187.5t30 -250q0 -209 -76 -370t-222 -252t-343 -91q-151 0 -273 37v168q142 -37 260 -37q205 0 326 129t141 336q-72 -73 -172 -115t-209 -42q-222 0 -345.5 113t-123.5 325zM330 891 q0 -132 76.5 -200t211.5 -68q103 0 205.5 44.5t177.5 125.5q-21 203 -122 295t-254 92q-130 0 -212.5 -76.5t-82.5 -212.5z" />
<glyph unicode=":" horiz-adv-x="661" d="M205 104q0 53 34 88t87 35q56 0 89.5 -34.5t33.5 -88.5q0 -53 -33.5 -87.5t-89.5 -34.5q-54 0 -87.5 34.5t-33.5 87.5zM213 666q0 53 33.5 87.5t87.5 34.5q56 0 89.5 -34.5t33.5 -87.5q0 -54 -33.5 -88.5t-89.5 -34.5q-53 0 -87 35t-34 88z" />
<glyph unicode=";" horiz-adv-x="737" d="M205 -369q16 31 26 52.5t25.5 58.5t25 67.5t20 73t14.5 83t4.5 89.5t-5.5 99h201q6 -49 6.5 -93.5t-4.5 -84t-12 -73t-20 -66.5t-24.5 -58t-29.5 -54t-30.5 -48t-32.5 -46h-164zM289 666q0 53 33.5 87.5t87.5 34.5q56 0 89 -34t33 -88t-33 -88.5t-89 -34.5q-53 0 -87 35 t-34 88z" />
<glyph unicode="&#x3c;" horiz-adv-x="911" d="M139 639v45l381 469h238l-404 -491l406 -492h-240z" />
<glyph unicode="=" horiz-adv-x="1222" d="M174 371v176h875v-176h-875zM174 827v177h875v-177h-875z" />
<glyph unicode="&#x3e;" horiz-adv-x="911" d="M152 1155h239l381 -469v-45l-381 -469h-237l403 492z" />
<glyph unicode="?" horiz-adv-x="1169" d="M205 1100v166q72 42 163 65t179 23q104 0 186 -30t131.5 -81.5t75 -115.5t25.5 -136q0 -77 -28 -145t-70.5 -115t-101.5 -86.5t-110.5 -62.5t-107.5 -41l-17 -187h-151l-10 289q61 18 106 34.5t104.5 46t98 62t65.5 81t27 104.5q0 93 -62 151t-186 58q-83 0 -155.5 -19 t-161.5 -61zM330 100q0 53 34 88t89 35q56 0 89 -34.5t33 -88.5t-33 -88.5t-89 -34.5q-55 0 -89 35t-34 88z" />
<glyph unicode="@" horiz-adv-x="1966" d="M184 606q0 239 109 429t308 298.5t454 108.5q187 0 337 -55t242.5 -149t141.5 -214t49 -256q0 -249 -121.5 -402t-319.5 -153q-85 0 -130.5 37.5t-57.5 97.5q-40 -54 -116 -94.5t-175 -40.5q-163 0 -256.5 102.5t-93.5 270.5q0 227 138 358t354 131q106 0 206 -33.5 t164 -85.5l-88 -440q-15 -79 1.5 -119.5t78.5 -40.5q104 0 174 110t70 290q0 253 -165 394.5t-433 141.5q-144 0 -271 -48.5t-222 -136t-150.5 -219t-55.5 -288.5q0 -207 89.5 -350.5t250 -213t381.5 -69.5q213 0 402 64v-154q-189 -63 -420 -63q-185 0 -342.5 49.5 t-277 145t-187.5 249t-68 348.5zM727 590q0 -107 56 -169.5t147 -62.5q96 0 166.5 58.5t87.5 152.5l59 305q-80 54 -196 54q-146 0 -233 -91t-87 -247z" />
<glyph unicode="A" horiz-adv-x="1566" d="M92 0l610 1339h162l611 -1339h-213l-125 279h-707l-125 -279h-213zM496 453h573l-287 655z" />
<glyph unicode="B" horiz-adv-x="1464" d="M266 41v1286h506q217 0 321.5 -92.5t104.5 -249.5q0 -179 -127 -264q103 -37 156 -122t53 -202q0 -420 -526 -420q-222 0 -488 64zM455 180q152 -35 309 -35q174 0 250 68t76 178q0 93 -60.5 155t-185.5 62h-389v-428zM455 772h428q18 0 28 -2q39 33 63.5 89t24.5 116 q0 86 -56.5 135t-174.5 49h-313v-387z" />
<glyph unicode="C" horiz-adv-x="1370" d="M164 666q0 221 88 377t245.5 232.5t372.5 76.5q200 0 357 -41v-176q-164 34 -314 34h-13q-538 0 -538 -503q0 -256 140 -382q138 -124 403 -124h8q134 3 314 35v-177q-157 -41 -357 -41q-325 0 -515.5 180t-190.5 509z" />
<glyph unicode="D" horiz-adv-x="1589" d="M266 59v1268h492q336 0 501.5 -165.5t165.5 -508.5q0 -332 -175.5 -504t-479.5 -172q-277 0 -504 82zM455 199q150 -43 311 -43q463 0 463 497q0 265 -109 380.5t-362 115.5h-303v-950z" />
<glyph unicode="E" horiz-adv-x="1384" d="M246 436v891h934v-178h-746v-377h692v-176h-692v-164q0 -157 86.5 -215.5t274.5 -58.5q191 0 385 35v-177q-81 -15 -113 -20t-111 -12t-170 -7q-275 0 -407.5 104.5t-132.5 354.5z" />
<glyph unicode="F" horiz-adv-x="1304" d="M266 0v1327h895v-178h-706v-447h647v-176h-647v-526h-189z" />
<glyph unicode="G" horiz-adv-x="1591" d="M164 651q0 321 197.5 511t541.5 190q198 0 373 -43v-176q-200 36 -358 36q-261 0 -408.5 -137.5t-147.5 -380.5q0 -233 129 -363t343 -130q203 0 301 106q87 94 87 253q0 20 -1 40h-437v172h615q12 -83 13 -159v-12q0 -71 -12 -141q-12 -76 -37.5 -140.5t-70.5 -120.5 t-106 -95t-147 -61.5t-191 -22.5q-316 0 -500 182t-184 492z" />
<glyph unicode="H" horiz-adv-x="1714" d="M266 0v1327h189v-569h805v569h188v-1327h-188v588h-805v-588h-189z" />
<glyph unicode="I" horiz-adv-x="720" d="M266 0v1327h189v-1327h-189z" />
<glyph unicode="J" horiz-adv-x="933" d="M102 16v177q144 -35 220 -35q97 0 137.5 47t40.5 157v965h188v-962q0 -96 -15.5 -164.5t-53 -120.5t-104 -77.5t-163.5 -25.5q-116 0 -250 39z" />
<glyph unicode="K" horiz-adv-x="1462" d="M266 0v1327h189v-1327h-189zM461 678l635 649h247l-645 -649l703 -678h-248z" />
<glyph unicode="L" horiz-adv-x="1241" d="M246 451v876h188v-878q0 -165 69.5 -228t244.5 -63q163 0 369 29q14 2 22 3v-174q-76 -14 -115 -20t-119 -12.5t-170 -6.5q-261 0 -375 109.5t-114 364.5z" />
<glyph unicode="M" horiz-adv-x="1964" d="M266 0v1327h78q74 0 135.5 -41t149.5 -139l352 -389l352 389q90 98 151.5 139t135.5 41h78v-1327h-187v1061q-28 -16 -88 -80l-442 -487l-440 483q-60 64 -88 80v-1057h-187z" />
<glyph unicode="N" horiz-adv-x="1880" d="M266 0v1327h82q75 0 158 -51.5t161.5 -136.5t158 -189t158.5 -216t152 -210t149.5 -178.5t139.5 -114.5v1096h189v-1327h-80q-85 0 -174 50t-168.5 132.5t-158.5 183.5t-155 209.5t-146 204.5t-142.5 174t-134.5 111v-1065h-189z" />
<glyph unicode="O" d="M164 664q0 203 83.5 358.5t241 242.5t367.5 87t367.5 -87t241 -242.5t83.5 -358.5q0 -200 -83.5 -355.5t-241.5 -243.5t-367 -88t-367 88t-241.5 243.5t-83.5 355.5zM362 664q0 -229 131.5 -367.5t362.5 -138.5q232 0 363 138t131 368q0 231 -131 370.5t-363 139.5 q-231 0 -362.5 -139.5t-131.5 -370.5z" />
<glyph unicode="P" horiz-adv-x="1409" d="M266 0v1327h443q262 0 403 -133t141 -350q0 -106 -34 -197.5t-98.5 -162t-167 -110.5t-230.5 -40q-92 0 -268 28v-362h-189zM455 545q131 -31 264 -31q160 0 250 87.5t90 242.5q0 144 -92 227.5t-256 83.5h-256v-610z" />
<glyph unicode="Q" d="M164 664q0 203 83.5 358.5t241 242.5t367.5 87t367.5 -87t241 -242.5t83.5 -358.5q0 -264 -145.5 -445.5t-394.5 -224.5l229 -311h-246l-203 299q-287 22 -455.5 208t-168.5 474zM362 664q0 -229 131.5 -367.5t362.5 -138.5q232 0 363 138t131 368q0 231 -131 370.5 t-363 139.5q-231 0 -362.5 -139.5t-131.5 -370.5z" />
<glyph unicode="R" horiz-adv-x="1470" d="M266 0v1327h447q244 0 378 -111.5t134 -306.5q0 -293 -267 -426l396 -483h-232l-379 473h-288v-473h-189zM455 639h403q172 88 172 270q0 125 -78.5 185.5t-222.5 60.5h-274v-516z" />
<glyph unicode="S" horiz-adv-x="1353" d="M164 985q0 77 29 141t89 116t162.5 81t239.5 29q245 0 438 -62v-162q-233 54 -436 54q-172 0 -251 -51.5t-79 -131.5q0 -50 28.5 -87t77 -60.5t111 -41.5t131.5 -35t138 -35.5t131.5 -48t111 -68.5t77 -100t28.5 -140q0 -62 -14 -116t-53 -108.5t-100.5 -93.5 t-164.5 -63.5t-237 -24.5q-120 0 -244 20t-211 50v166q247 -68 457 -68q370 0 370 213q0 54 -28.5 93.5t-76.5 64.5t-110 44t-131 36t-137.5 35.5t-130.5 47t-110 67t-76.5 99.5t-28.5 140z" />
<glyph unicode="T" horiz-adv-x="1390" d="M102 1157v170h1186v-170h-497v-1157h-191v1157h-498z" />
<glyph unicode="U" horiz-adv-x="1720" d="M246 588v739h198v-739q0 -212 99 -321t317 -109q219 0 317.5 108.5t98.5 321.5v739h199v-739q0 -287 -155.5 -449t-459.5 -162q-302 0 -458 162t-156 449z" />
<glyph unicode="V" horiz-adv-x="1548" d="M92 1327h215l465 -1026l465 1026h219l-639 -1341h-88z" />
<glyph unicode="W" horiz-adv-x="2193" d="M92 1327h209l401 -1003l320 1015h147l322 -1015l401 1003h209l-559 -1337h-125l-321 993l-320 -993h-127z" />
<glyph unicode="X" horiz-adv-x="1474" d="M121 0l497 686l-483 641h238l364 -506l363 506h237l-481 -641l498 -686h-228l-389 551l-389 -551h-227z" />
<glyph unicode="Y" horiz-adv-x="1402" d="M72 1178l18 165q221 -6 383 -140t229 -345q65 211 227.5 345t383.5 140l18 -165q-133 -13 -238 -77t-168 -160.5t-95.5 -211.5t-32.5 -240v-489h-189v489q0 99 -19.5 194t-62.5 183t-104.5 155t-151.5 109.5t-198 47.5z" />
<glyph unicode="Z" horiz-adv-x="1474" d="M205 0v125l788 1032h-776v170h1047v-127l-803 -1030h809v-170h-1065z" />
<glyph unicode="[" horiz-adv-x="710" d="M252 -188v1704h383v-168h-209v-1371h209v-165h-383z" />
<glyph unicode="\" horiz-adv-x="835" d="M205 1511h178l248 -1734h-176z" />
<glyph unicode="]" horiz-adv-x="710" d="M76 -20h209v1370h-209v166h383v-1704h-383v168z" />
<glyph unicode="_" horiz-adv-x="1056" d="M0 0v176h1057v-176h-1057z" />
<glyph unicode="`" horiz-adv-x="499" d="M96 1509h205l78 -182h-168z" />
<glyph unicode="a" horiz-adv-x="1566" d="M92 0l610 1339h162l611 -1339h-213l-125 279h-707l-125 -279h-213zM496 453h573l-287 655z" />
<glyph unicode="b" horiz-adv-x="1464" d="M266 41v1286h506q217 0 321.5 -92.5t104.5 -249.5q0 -179 -127 -264q103 -37 156 -122t53 -202q0 -420 -526 -420q-222 0 -488 64zM455 180q152 -35 309 -35q174 0 250 68t76 178q0 93 -60.5 155t-185.5 62h-389v-428zM455 772h428q18 0 28 -2q39 33 63.5 89t24.5 116 q0 86 -56.5 135t-174.5 49h-313v-387z" />
<glyph unicode="c" horiz-adv-x="1370" d="M164 666q0 221 88 377t245.5 232.5t372.5 76.5q200 0 357 -41v-176q-164 34 -314 34h-13q-538 0 -538 -503q0 -256 140 -382q138 -124 403 -124h8q134 3 314 35v-177q-157 -41 -357 -41q-325 0 -515.5 180t-190.5 509z" />
<glyph unicode="d" horiz-adv-x="1589" d="M266 59v1268h492q336 0 501.5 -165.5t165.5 -508.5q0 -332 -175.5 -504t-479.5 -172q-277 0 -504 82zM455 199q150 -43 311 -43q463 0 463 497q0 265 -109 380.5t-362 115.5h-303v-950z" />
<glyph unicode="e" horiz-adv-x="1384" d="M246 436v891h934v-178h-746v-377h692v-176h-692v-164q0 -157 86.5 -215.5t274.5 -58.5q191 0 385 35v-177q-81 -15 -113 -20t-111 -12t-170 -7q-275 0 -407.5 104.5t-132.5 354.5z" />
<glyph unicode="f" horiz-adv-x="1304" d="M266 0v1327h895v-178h-706v-447h647v-176h-647v-526h-189z" />
<glyph unicode="g" horiz-adv-x="1591" d="M164 651q0 321 197.5 511t541.5 190q198 0 373 -43v-176q-200 36 -358 36q-261 0 -408.5 -137.5t-147.5 -380.5q0 -233 129 -363t343 -130q203 0 301 106q87 94 87 253q0 20 -1 40h-437v172h615q12 -83 13 -159v-12q0 -71 -12 -141q-12 -76 -37.5 -140.5t-70.5 -120.5 t-106 -95t-147 -61.5t-191 -22.5q-316 0 -500 182t-184 492z" />
<glyph unicode="h" horiz-adv-x="1714" d="M266 0v1327h189v-569h805v569h188v-1327h-188v588h-805v-588h-189z" />
<glyph unicode="i" horiz-adv-x="720" d="M266 0v1327h189v-1327h-189z" />
<glyph unicode="j" horiz-adv-x="933" d="M102 16v177q144 -35 220 -35q97 0 137.5 47t40.5 157v965h188v-962q0 -96 -15.5 -164.5t-53 -120.5t-104 -77.5t-163.5 -25.5q-116 0 -250 39z" />
<glyph unicode="k" horiz-adv-x="1462" d="M266 0v1327h189v-1327h-189zM461 678l635 649h247l-645 -649l703 -678h-248z" />
<glyph unicode="l" horiz-adv-x="1241" d="M246 451v876h188v-878q0 -165 69.5 -228t244.5 -63q163 0 369 29q14 2 22 3v-174q-76 -14 -115 -20t-119 -12.5t-170 -6.5q-261 0 -375 109.5t-114 364.5z" />
<glyph unicode="m" horiz-adv-x="1964" d="M266 0v1327h78q74 0 135.5 -41t149.5 -139l352 -389l352 389q90 98 151.5 139t135.5 41h78v-1327h-187v1061q-28 -16 -88 -80l-442 -487l-440 483q-60 64 -88 80v-1057h-187z" />
<glyph unicode="n" horiz-adv-x="1880" d="M266 0v1327h82q75 0 158 -51.5t161.5 -136.5t158 -189t158.5 -216t152 -210t149.5 -178.5t139.5 -114.5v1096h189v-1327h-80q-85 0 -174 50t-168.5 132.5t-158.5 183.5t-155 209.5t-146 204.5t-142.5 174t-134.5 111v-1065h-189z" />
<glyph unicode="o" d="M164 664q0 203 83.5 358.5t241 242.5t367.5 87t367.5 -87t241 -242.5t83.5 -358.5q0 -200 -83.5 -355.5t-241.5 -243.5t-367 -88t-367 88t-241.5 243.5t-83.5 355.5zM362 664q0 -229 131.5 -367.5t362.5 -138.5q232 0 363 138t131 368q0 231 -131 370.5t-363 139.5 q-231 0 -362.5 -139.5t-131.5 -370.5z" />
<glyph unicode="p" horiz-adv-x="1409" d="M266 0v1327h443q262 0 403 -133t141 -350q0 -106 -34 -197.5t-98.5 -162t-167 -110.5t-230.5 -40q-92 0 -268 28v-362h-189zM455 545q131 -31 264 -31q160 0 250 87.5t90 242.5q0 144 -92 227.5t-256 83.5h-256v-610z" />
<glyph unicode="q" d="M164 664q0 203 83.5 358.5t241 242.5t367.5 87t367.5 -87t241 -242.5t83.5 -358.5q0 -264 -145.5 -445.5t-394.5 -224.5l229 -311h-246l-203 299q-287 22 -455.5 208t-168.5 474zM362 664q0 -229 131.5 -367.5t362.5 -138.5q232 0 363 138t131 368q0 231 -131 370.5 t-363 139.5q-231 0 -362.5 -139.5t-131.5 -370.5z" />
<glyph unicode="r" horiz-adv-x="1470" d="M266 0v1327h447q244 0 378 -111.5t134 -306.5q0 -293 -267 -426l396 -483h-232l-379 473h-288v-473h-189zM455 639h403q172 88 172 270q0 125 -78.5 185.5t-222.5 60.5h-274v-516z" />
<glyph unicode="s" horiz-adv-x="1353" d="M164 985q0 77 29 141t89 116t162.5 81t239.5 29q245 0 438 -62v-162q-233 54 -436 54q-172 0 -251 -51.5t-79 -131.5q0 -50 28.5 -87t77 -60.5t111 -41.5t131.5 -35t138 -35.5t131.5 -48t111 -68.5t77 -100t28.5 -140q0 -62 -14 -116t-53 -108.5t-100.5 -93.5 t-164.5 -63.5t-237 -24.5q-120 0 -244 20t-211 50v166q247 -68 457 -68q370 0 370 213q0 54 -28.5 93.5t-76.5 64.5t-110 44t-131 36t-137.5 35.5t-130.5 47t-110 67t-76.5 99.5t-28.5 140z" />
<glyph unicode="t" horiz-adv-x="1390" d="M102 1157v170h1186v-170h-497v-1157h-191v1157h-498z" />
<glyph unicode="u" horiz-adv-x="1720" d="M246 588v739h198v-739q0 -212 99 -321t317 -109q219 0 317.5 108.5t98.5 321.5v739h199v-739q0 -287 -155.5 -449t-459.5 -162q-302 0 -458 162t-156 449z" />
<glyph unicode="v" horiz-adv-x="1548" d="M92 1327h215l465 -1026l465 1026h219l-639 -1341h-88z" />
<glyph unicode="w" horiz-adv-x="2193" d="M92 1327h209l401 -1003l320 1015h147l322 -1015l401 1003h209l-559 -1337h-125l-321 993l-320 -993h-127z" />
<glyph unicode="x" horiz-adv-x="1474" d="M121 0l497 686l-483 641h238l364 -506l363 506h237l-481 -641l498 -686h-228l-389 551l-389 -551h-227z" />
<glyph unicode="y" horiz-adv-x="1402" d="M72 1178l18 165q221 -6 383 -140t229 -345q65 211 227.5 345t383.5 140l18 -165q-133 -13 -238 -77t-168 -160.5t-95.5 -211.5t-32.5 -240v-489h-189v489q0 99 -19.5 194t-62.5 183t-104.5 155t-151.5 109.5t-198 47.5z" />
<glyph unicode="z" horiz-adv-x="1474" d="M205 0v125l788 1032h-776v170h1047v-127l-803 -1030h809v-170h-1065z" />
<glyph unicode="{" horiz-adv-x="714" d="M61 610v105q40 8 64 14.5t49 19.5t38 26.5t26.5 40.5t18.5 56.5t10 79.5t6 104.5t1 135.5q0 187 92 263t279 61v-152q-122 4 -161.5 -41.5t-39.5 -177.5q0 -119 -6 -197.5t-17 -130t-34 -81.5t-48 -44.5t-69 -27.5q55 -17 83.5 -37.5t51.5 -72t31 -138t8 -234.5 q0 -132 39.5 -178t161.5 -43v-151q-186 -15 -278.5 61t-92.5 262q0 81 -1 135.5t-6 104.5t-10 79.5t-18.5 56.5t-26.5 40.5t-38 26.5t-49 19.5t-64 14.5z" />
<glyph unicode="|" horiz-adv-x="612" d="M219 -223v1734h176v-1734h-176z" />
<glyph unicode="}" horiz-adv-x="714" d="M70 -39q122 -3 161 43t39 178q0 148 8 234.5t31 138t51.5 72t83.5 37.5q-44 13 -69 27.5t-48 44.5t-34 81.5t-17 130t-6 197.5q0 132 -39 177.5t-161 41.5v152q186 15 278 -60.5t92 -263.5q0 -81 1 -135.5t6 -104.5t10 -79.5t18.5 -56.5t26.5 -40.5t38 -26.5t49 -19.5 t64 -14.5v-105q-40 -8 -64 -14.5t-49 -19.5t-38 -26.5t-26.5 -40.5t-18.5 -56.5t-10 -79.5t-6 -104.5t-1 -135.5q0 -186 -92 -262t-278 -61v151z" />
<glyph unicode="~" horiz-adv-x="780" d="M154 584q-7 98 35.5 148t115.5 50q41 0 105.5 -28.5t89.5 -28.5q48 0 45 55h149q7 -98 -35.5 -148t-115.5 -50q-41 0 -105.5 28.5t-89.5 28.5q-45 0 -45 -55h-149z" />
<glyph unicode="&#xa1;" horiz-adv-x="729" d="M244 1227q0 53 34 88t87 35q56 0 89 -34.5t33 -88.5q0 -53 -33 -87t-89 -34q-54 0 -87.5 34t-33.5 87zM254 0l33 973h157l31 -973h-221z" />
<glyph unicode="&#xa3;" horiz-adv-x="1277" d="M147 0v98q134 134 189.5 236t56.5 217h-196v166h186q-1 10 -7 52t-8.5 60.5t-5 54t-2.5 68.5q0 184 108 292t302 108q161 0 283 -43v-166q-127 33 -240 33q-132 0 -198 -63t-66 -183q0 -42 2.5 -75t9 -78.5l8.5 -59.5h432v-166h-417q0 -105 -34.5 -192.5t-111.5 -186.5 h662v-172h-953z" />
<glyph unicode="&#xa5;" horiz-adv-x="1392" d="M41 1327h209l444 -743l445 743h213l-478 -770h316v-158h-399v-399h-189v399h-407v158h321z" />
<glyph unicode="&#xa7;" horiz-adv-x="1325" d="M164 1241q0 78 27 142t84 115.5t157.5 80.5t237.5 29q215 0 395 -58v-161q-91 20 -126 27t-112 15.5t-155 8.5q-316 0 -316 -185q0 -63 43.5 -107.5t113.5 -70t154 -48t168.5 -51t154.5 -68t113.5 -110t43.5 -167.5q0 -159 -98 -260q112 -93 112 -250q0 -63 -14 -117 t-52.5 -109t-99 -93.5t-161 -62.5t-232.5 -24q-242 0 -422 60v168q88 -21 128.5 -30t126 -18.5t183.5 -9.5t168.5 18.5t108.5 51.5t55 71.5t17 84.5q0 51 -27 89t-72.5 62.5t-105 43.5t-125 36t-130.5 36.5t-124.5 48t-105 66.5t-72.5 98t-27 136q0 159 113 250 q-127 92 -127 262zM371 743q0 -55 30 -94t86.5 -64t113.5 -41t138 -38t133 -43q80 58 80 162q0 46 -22.5 82t-57.5 58t-89 41.5t-103 31t-114.5 29.5t-110.5 34q-84 -54 -84 -158z" />
<glyph unicode="&#xa8;" horiz-adv-x="661" d="M102 1425q0 40 25.5 66.5t65.5 26.5q42 0 67 -26t25 -67q0 -39 -25 -64.5t-67 -25.5q-39 0 -65 25.5t-26 64.5zM377 1425q0 40 25.5 66.5t64.5 26.5q42 0 67 -26t25 -67q0 -39 -25 -64.5t-67 -25.5q-39 0 -64.5 25.5t-25.5 64.5z" />
<glyph unicode="&#xa9;" horiz-adv-x="1361" d="M102 662q0 164 75 297t207 208.5t294 75.5q164 0 297 -75.5t209 -208.5t76 -297q0 -121 -44.5 -228t-121.5 -183.5t-185 -120.5t-231 -44q-121 0 -228 44t-183.5 120.5t-120.5 183.5t-44 228zM231 662q0 -194 127 -321.5t320 -127.5q195 0 323.5 127t128.5 322 t-128.5 323.5t-323.5 128.5q-193 0 -320 -128.5t-127 -323.5zM401 666q0 139 84.5 214.5t223.5 75.5q52 0 149 -18v-109q-84 15 -131 15q-197 0 -197 -178q0 -177 197 -174q63 0 131 12v-111q-86 -16 -149 -16q-139 0 -223.5 75.5t-84.5 213.5z" />
<glyph unicode="&#xaa;" horiz-adv-x="733" d="M102 844q0 87 64 138.5t168 51.5q86 0 176 -33v62q0 64 -36 94.5t-116 30.5q-59 0 -126 -22.5t-107 -53.5v127q43 33 109 52.5t137 19.5q75 0 131.5 -20.5t92.5 -71.5t36 -129v-424h-117l8 36q-79 -53 -186 -53q-105 0 -169.5 53t-64.5 142zM229 844q0 -40 30.5 -61 t86.5 -21q86 0 164 45v80q-82 37 -166 37q-55 0 -85 -21t-30 -59z" />
<glyph unicode="&#xab;" horiz-adv-x="1187" d="M96 641v45q83 70 153 187t91 227h213q-70 -294 -254 -436q183 -141 254 -437h-213q-21 110 -91 227t-153 187zM551 641v45q83 70 153 187t91 227h213q-70 -294 -254 -436q183 -141 254 -437h-213q-21 110 -91 227t-153 187z" />
<glyph unicode="&#xac;" horiz-adv-x="1054" d="M102 578v176h850v-459h-172v283h-678z" />
<glyph unicode="&#xad;" horiz-adv-x="833" d="M102 578v176h629v-176h-629z" />
<glyph unicode="&#xae;" horiz-adv-x="1361" d="M102 662q0 164 75 297t207 208.5t294 75.5q164 0 297 -75.5t209 -208.5t76 -297q0 -121 -44.5 -228t-121.5 -183.5t-185 -120.5t-231 -44q-121 0 -228 44t-183.5 120.5t-120.5 183.5t-44 228zM231 662q0 -193 127.5 -321t319.5 -128q195 0 323.5 127t128.5 322 t-128.5 323.5t-323.5 128.5q-192 0 -319.5 -128.5t-127.5 -323.5zM485 397v549h199q96 0 150.5 -46t54.5 -128q0 -119 -105 -178l166 -197h-137l-135 170h-82v-170h-111zM596 676h119q26 10 42.5 33t16.5 57q0 82 -96 82h-82v-172z" />
<glyph unicode="&#xaf;" horiz-adv-x="743" d="M117 1315v143h510v-143h-510z" />
<glyph unicode="&#xb0;" horiz-adv-x="563" d="M82 1114q0 87 54 142t145 55t145.5 -55t54.5 -142q0 -88 -54.5 -143.5t-145.5 -55.5t-145 55.5t-54 143.5zM178 1114q0 -48 28 -77t75 -29t74.5 29t27.5 77q0 46 -27.5 75.5t-74.5 29.5t-75 -29.5t-28 -75.5z" />
<glyph unicode="&#xb2;" horiz-adv-x="661" d="M102 655v70q154 114 205 162q115 108 115 203q0 48 -29 76t-88 28q-83 0 -186 -35v113q103 39 203 39q61 0 106 -18t69.5 -48t36 -64.5t11.5 -72.5q0 -60 -17 -111t-50 -92.5t-65.5 -71.5t-80.5 -65h227v-113h-457z" />
<glyph unicode="&#xb3;" horiz-adv-x="653" d="M119 682v104q93 -26 172 -26q121 0 121 98q0 51 -33 72.5t-100 21.5q-54 0 -103 -10v82l184 172h-241v113h397v-95l-184 -174q8 2 18 2q94 -4 139.5 -53.5t45.5 -130.5q0 -86 -59 -145.5t-179 -59.5q-82 0 -178 29z" />
<glyph unicode="&#xb4;" horiz-adv-x="509" d="M113 1327l80 182h202l-114 -182h-168z" />
<glyph unicode="&#xb6;" horiz-adv-x="1368" d="M156 864q0 217 135.5 340t374.5 123h614v-172h-227v-1360h-189v643q-107 -28 -233 -28q-225 0 -350 127.5t-125 326.5zM344 866q0 -128 76 -206t225 -78q108 0 219 34v539h-207q-150 0 -231.5 -77t-81.5 -212z" />
<glyph unicode="&#xb7;" horiz-adv-x="653" d="M205 666q0 53 33.5 87.5t87.5 34.5q56 0 89.5 -34.5t33.5 -87.5q0 -54 -33.5 -88.5t-89.5 -34.5q-53 0 -87 35t-34 88z" />
<glyph unicode="&#xb8;" horiz-adv-x="501" d="M131 -188q12 -2 31 -2q63 0 63 65q0 52 -47 125h137q54 -82 54 -162q0 -66 -42 -102.5t-118 -36.5q-42 0 -78 8v105z" />
<glyph unicode="&#xb9;" horiz-adv-x="450" d="M94 1126v125q82 58 189 58h45v-645h-125v512q-50 -9 -109 -50z" />
<glyph unicode="&#xba;" horiz-adv-x="817" d="M82 981q0 146 90.5 238t235.5 92q144 0 235.5 -92.5t91.5 -237.5q0 -144 -91.5 -238t-235.5 -94q-145 0 -235.5 94t-90.5 238zM215 981q0 -100 52 -156.5t141 -56.5t140.5 56.5t51.5 156.5q0 96 -52.5 154.5t-139.5 58.5t-140 -58.5t-53 -154.5z" />
<glyph unicode="&#xbb;" horiz-adv-x="1187" d="M180 227q71 296 254 437q-184 142 -254 436h213q21 -110 91 -227t153 -187v-45q-83 -70 -153 -187t-91 -227h-213zM635 227q71 296 254 437q-184 142 -254 436h213q21 -110 91 -227t153 -187v-45q-83 -70 -153 -187t-91 -227h-213z" />
<glyph unicode="&#xbf;" horiz-adv-x="1169" d="M205 340q0 77 28 145t70 115t100.5 87t110.5 63t109 41l16 188h149l11 -291q-49 -15 -86.5 -28.5t-88 -35t-87 -46.5t-70 -57t-51 -73t-17.5 -88q0 -92 62 -150t186 -58q150 0 318 79v-165q-153 -89 -344 -89q-103 0 -184.5 30.5t-131 82t-75 115t-25.5 135.5zM594 1229 q0 53 34 88t87 35q56 0 89.5 -34.5t33.5 -88.5t-33.5 -88.5t-89.5 -34.5q-53 0 -87 35t-34 88z" />
<glyph unicode="&#xc0;" horiz-adv-x="1566" d="M92 0l606 1329l-104 166h205l78 -182l598 -1313h-213l-125 279h-707l-125 -279h-213zM496 453h573l-287 655z" />
<glyph unicode="&#xc1;" horiz-adv-x="1566" d="M92 0l598 1313h-2l80 182h203l-103 -164l607 -1331h-213l-125 279h-707l-125 -279h-213zM496 453h573l-287 655z" />
<glyph unicode="&#xc2;" horiz-adv-x="1566" d="M92 0l580 1272h-82l96 168h197l98 -168h-86l580 -1272h-213l-125 279h-707l-125 -279h-213zM496 453h573l-287 655z" />
<glyph unicode="&#xc3;" horiz-adv-x="1566" d="M92 0l608 1337q-36 -6 -36 -55h-150q-7 98 36 148.5t116 50.5q41 0 105 -29t89 -29q48 0 45 56h150q7 -98 -36 -148.5t-116 -50.5h-12l584 -1280h-213l-125 279h-707l-125 -279h-213zM496 453h573l-287 655z" />
<glyph unicode="&#xc4;" horiz-adv-x="1566" d="M92 0l596 1309q-27 -9 -43 -9q-39 0 -64.5 26t-25.5 65q0 40 25 66t65 26q42 0 67 -26t25 -66q0 -32 -14 -52h121q-15 26 -15 52q0 40 25.5 66t65.5 26q42 0 67 -26t25 -66q0 -39 -25 -65t-67 -26q-19 0 -41 11l596 -1311h-213l-125 279h-707l-125 -279h-213zM496 453 h573l-287 655z" />
<glyph unicode="&#xc5;" horiz-adv-x="1566" d="M92 0l586 1284q-55 46 -55 125q0 69 43.5 113.5t115.5 44.5q74 0 118 -44.5t44 -113.5q0 -79 -55 -125l586 -1284h-213l-125 279h-707l-125 -279h-213zM496 453h573l-287 655zM723 1409q0 -29 15.5 -46t43.5 -17q29 0 45.5 17t16.5 46q0 27 -16.5 44t-45.5 17 q-27 0 -43 -17t-16 -44z" />
<glyph unicode="&#xc6;" horiz-adv-x="2068" d="M88 0l731 1327h1045v-178h-746v-377h692v-178h-692v-162q0 -157 85.5 -214.5t273.5 -57.5q204 0 387 33v-177q-79 -15 -112.5 -20.5t-112.5 -12t-169 -6.5q-227 0 -356 70t-164 234h-495l-154 -281h-213zM541 455h387v708z" />
<glyph unicode="&#xc7;" horiz-adv-x="1370" d="M164 666q0 221 88 377t245.5 232.5t372.5 76.5q200 0 357 -41v-176q-164 34 -314 34q-551 6 -551 -503q0 -257 140.5 -382.5t410.5 -123.5q134 3 314 35v-177q-118 -30 -264 -38q41 -67 41 -142q0 -66 -42 -102.5t-118 -36.5q-42 0 -78 8v105q12 -2 31 -2q63 0 63 65 q0 49 -35 102q-305 12 -483 192t-178 497z" />
<glyph unicode="&#xc8;" horiz-adv-x="1384" d="M246 436v891h416l-107 168h205l71 -168h349v-178h-746v-377h692v-176h-692v-164q0 -157 86.5 -215.5t274.5 -58.5q191 0 385 35v-177q-81 -15 -113 -20t-111 -12t-170 -7q-275 0 -407.5 104.5t-132.5 354.5z" />
<glyph unicode="&#xc9;" horiz-adv-x="1384" d="M246 436v891h395l74 168h203l-107 -168h369v-178h-746v-377h692v-176h-692v-164q0 -157 86.5 -215.5t274.5 -58.5q191 0 385 35v-177q-81 -15 -113 -20t-111 -12t-170 -7q-275 0 -407.5 104.5t-132.5 354.5z" />
<glyph unicode="&#xca;" horiz-adv-x="1384" d="M246 436v891h282l76 131h197l76 -131h303v-178h-746v-377h692v-176h-692v-164q0 -157 86.5 -215.5t274.5 -58.5q191 0 385 35v-177q-81 -15 -113 -20t-111 -12t-170 -7q-275 0 -407.5 104.5t-132.5 354.5z" />
<glyph unicode="&#xcb;" horiz-adv-x="1384" d="M246 436v891h278q-24 24 -24 64t25 66t65 26q42 0 67 -26t25 -66q0 -39 -25 -64h142q-25 25 -25 64q0 40 25 66t65 26q42 0 67 -26t25 -66t-24 -64h248v-178h-746v-377h692v-176h-692v-164q0 -157 86.5 -215.5t274.5 -58.5q191 0 385 35v-177q-81 -15 -113 -20t-111 -12 t-170 -7q-275 0 -407.5 104.5t-132.5 354.5z" />
<glyph unicode="&#xcc;" horiz-adv-x="720" d="M162 1509h205l77 -182h11v-1327h-189v1327h10z" />
<glyph unicode="&#xcd;" horiz-adv-x="720" d="M266 0v1327h10l80 182h203l-115 -182h11v-1327h-189z" />
<glyph unicode="&#xce;" horiz-adv-x="720" d="M166 1286l96 168h197l98 -168h-102v-1286h-189v1286h-100z" />
<glyph unicode="&#xcf;" horiz-adv-x="731" d="M137 1391q0 40 25 66t65 26q42 0 67 -26t25 -66t-24 -64h141q-24 24 -24 64t25 66t65 26q42 0 67 -26t25 -66q0 -39 -25 -65t-67 -26q-23 0 -45 11v-1311h-189v1309q-18 -9 -41 -9q-39 0 -64.5 26t-25.5 65z" />
<glyph unicode="&#xd0;" horiz-adv-x="1595" d="M61 590v164h211v573h492q336 0 502 -165.5t166 -508.5q0 -332 -176 -504t-480 -172q-281 0 -504 82v531h-211zM461 199q150 -43 311 -43q461 0 461 497q0 265 -109 380.5t-360 115.5h-303v-395h377v-164h-377v-391z" />
<glyph unicode="&#xd1;" horiz-adv-x="1878" d="M266 0v1327h82q75 0 158 -51.5t161.5 -136.5t158 -189t158.5 -216t152 -210t149.5 -178.5t139.5 -114.5v1096h189v-1327h-80q-85 0 -174 50t-168.5 132.5t-158.5 183.5t-155 209.5t-146 204.5t-142.5 174t-134.5 111v-1065h-189zM762 1151q-7 98 35.5 148.5t115.5 50.5 q41 0 105.5 -29t89.5 -29q48 0 45 56h150q7 -98 -36 -148.5t-116 -50.5q-41 0 -105.5 28.5t-89.5 28.5q-45 0 -45 -55h-149z" />
<glyph unicode="&#xd2;" d="M164 664q0 286 162 471t442 213l-102 161h204l70 -161q281 -26 444.5 -211.5t163.5 -472.5q0 -200 -83.5 -355.5t-241.5 -243.5t-367 -88t-367 88t-241.5 243.5t-83.5 355.5zM362 664q0 -229 131.5 -367.5t362.5 -138.5q232 0 363 138t131 368q0 231 -131 370.5 t-363 139.5q-231 0 -362.5 -139.5t-131.5 -370.5z" />
<glyph unicode="&#xd3;" d="M164 664q0 284 160.5 469.5t437.5 214.5l72 161h202l-100 -161q283 -25 447.5 -211t164.5 -473q0 -200 -83.5 -355.5t-241.5 -243.5t-367 -88t-367 88t-241.5 243.5t-83.5 355.5zM362 664q0 -229 131.5 -367.5t362.5 -138.5q232 0 363 138t131 368q0 231 -131 370.5 t-363 139.5q-231 0 -362.5 -139.5t-131.5 -370.5z" />
<glyph unicode="&#xd4;" d="M164 664q0 264 139.5 444t384.5 227l70 123h196l72 -123q244 -49 383 -228.5t139 -442.5q0 -200 -83.5 -355.5t-241.5 -243.5t-367 -88t-367 88t-241.5 243.5t-83.5 355.5zM362 664q0 -229 131.5 -367.5t362.5 -138.5q232 0 363 138t131 368q0 231 -131 370.5t-363 139.5 q-231 0 -362.5 -139.5t-131.5 -370.5z" />
<glyph unicode="&#xd5;" d="M164 664q0 234 111.5 404t310.5 239q-3 90 39 135t112 45q41 0 105.5 -28.5t89.5 -28.5q48 0 45 55h149q8 -110 -47 -162q220 -62 344.5 -236t124.5 -423q0 -200 -83.5 -355.5t-241.5 -243.5t-367 -88t-367 88t-241.5 243.5t-83.5 355.5zM362 664q0 -229 131.5 -367.5 t362.5 -138.5q232 0 363 138t131 368q0 231 -131 370.5t-363 139.5q-231 0 -362.5 -139.5t-131.5 -370.5z" />
<glyph unicode="&#xd6;" d="M164 664q0 258 135 436.5t373 232.5q-45 22 -45 78q0 40 25 66t65 26q42 0 67 -26t25 -66q0 -35 -23 -61q23 2 70 2q45 0 68 -2q-23 23 -23 61q0 40 25 66t65 26q42 0 67 -26t25 -66q0 -56 -43 -78q238 -52 373 -230.5t135 -438.5q0 -200 -83.5 -355.5t-241.5 -243.5 t-367 -88t-367 88t-241.5 243.5t-83.5 355.5zM362 664q0 -229 131.5 -367.5t362.5 -138.5q232 0 363 138t131 368q0 231 -131 370.5t-363 139.5q-231 0 -362.5 -139.5t-131.5 -370.5z" />
<glyph unicode="&#xd8;" d="M164 664q0 203 83.5 358.5t241 242.5t367.5 87q215 0 377 -92l55 67h228l-146 -176q178 -187 178 -487q0 -200 -83.5 -355.5t-241.5 -243.5t-367 -88q-211 0 -375 93l-57 -70h-225l145 176q-180 186 -180 488zM362 664q0 -202 105 -338l647 788q-111 60 -258 60 q-231 0 -362.5 -139.5t-131.5 -370.5zM600 215q111 -57 256 -57q232 0 363 138t131 368q0 204 -103 337z" />
<glyph unicode="&#xd9;" horiz-adv-x="1720" d="M246 588v739h198v-739q0 -212 99 -321t317 -109q219 0 317.5 108.5t98.5 321.5v739h199v-739q0 -287 -155.5 -449t-459.5 -162q-302 0 -458 162t-156 449zM715 1327h205l77 -182h-168z" />
<glyph unicode="&#xda;" horiz-adv-x="1720" d="M246 588v739h198v-739q0 -212 99 -321t317 -109q219 0 317.5 108.5t98.5 321.5v739h199v-739q0 -287 -155.5 -449t-459.5 -162q-302 0 -458 162t-156 449zM721 1145l80 182h203l-115 -182h-168z" />
<glyph unicode="&#xdb;" horiz-adv-x="1720" d="M246 588v739h198v-739q0 -212 99 -321t317 -109q219 0 317.5 108.5t98.5 321.5v739h199v-739q0 -287 -155.5 -449t-459.5 -162q-302 0 -458 162t-156 449zM666 1159l96 168h196l99 -168h-391z" />
<glyph unicode="&#xdc;" horiz-adv-x="1720" d="M246 588v739h198v-739q0 -212 99 -321t317 -109q219 0 317.5 108.5t98.5 321.5v739h199v-739q0 -287 -155.5 -449t-459.5 -162q-302 0 -458 162t-156 449zM633 1249q0 40 25 66t65 26q42 0 67 -26t25 -66q0 -39 -25 -64.5t-67 -25.5q-39 0 -64.5 25.5t-25.5 64.5z M907 1249q0 40 25 66t65 26q42 0 67.5 -26t25.5 -66q0 -39 -25.5 -64.5t-67.5 -25.5q-39 0 -64.5 25.5t-25.5 64.5z" />
<glyph unicode="&#xdd;" horiz-adv-x="1402" d="M72 1178l18 165q221 -6 383 -140t229 -345q65 211 227.5 345t383.5 140l18 -165q-133 -13 -238 -77t-168 -160.5t-95.5 -211.5t-32.5 -240v-489h-189v489q0 99 -19.5 194t-62.5 183t-104.5 155t-151.5 109.5t-198 47.5zM608 1327l80 182h203l-115 -182h-168z" />
<glyph unicode="&#xde;" horiz-adv-x="1320" d="M266 0v1327h189v-262h288q114 0 199.5 -32t136 -88t75 -126t24.5 -153q0 -62 -15 -118.5t-48.5 -108t-83 -89.5t-123.5 -60t-165 -22h-288v-268h-189zM455 438h282q130 0 190 65t60 163t-60 162.5t-190 64.5h-282v-455z" />
<glyph unicode="&#xdf;" horiz-adv-x="2639" d="M164 985q0 77 29 141t89 116t162.5 81t239.5 29q245 0 438 -62v-162q-233 54 -436 54q-172 0 -251 -51.5t-79 -131.5q0 -50 28.5 -87t77 -60.5t111 -41.5t131.5 -35t138 -35.5t131.5 -48t111 -68.5t77 -100t28.5 -140q0 -62 -14 -116t-53 -108.5t-100.5 -93.5 t-164.5 -63.5t-237 -24.5q-120 0 -244 20t-211 50v166q247 -68 457 -68q370 0 370 213q0 54 -28.5 93.5t-76.5 64.5t-110 44t-131 36t-137.5 35.5t-130.5 47t-110 67t-76.5 99.5t-28.5 140zM1450 985q0 77 29 141t89 116t162.5 81t239.5 29q245 0 438 -62v-162 q-233 54 -436 54q-172 0 -251 -51.5t-79 -131.5q0 -50 28.5 -87t77 -60.5t111 -41.5t131.5 -35t138 -35.5t131.5 -48t111 -68.5t77 -100t28.5 -140q0 -62 -14 -116t-53 -108.5t-100.5 -93.5t-164.5 -63.5t-237 -24.5q-120 0 -244 20t-211 50v166q247 -68 457 -68 q370 0 370 213q0 54 -28.5 93.5t-76.5 64.5t-110 44t-130.5 36t-137.5 35.5t-131 47t-110 67t-76.5 99.5t-28.5 140z" />
<glyph unicode="&#xe0;" horiz-adv-x="1566" d="M92 0l606 1329l-104 166h205l78 -182l598 -1313h-213l-125 279h-707l-125 -279h-213zM496 453h573l-287 655z" />
<glyph unicode="&#xe1;" horiz-adv-x="1566" d="M92 0l598 1313l80 182h203l-105 -166l607 -1329h-213l-125 279h-707l-125 -279h-213zM496 453h573l-287 655z" />
<glyph unicode="&#xe2;" horiz-adv-x="1566" d="M92 0l580 1272h-82l96 168h197l98 -168h-86l580 -1272h-213l-125 279h-707l-125 -279h-213zM496 453h573l-287 655z" />
<glyph unicode="&#xe3;" horiz-adv-x="1566" d="M92 0l608 1337q-36 -6 -36 -55h-150q-7 98 36 148.5t116 50.5q41 0 105 -29t89 -29q48 0 45 56h150q7 -98 -36 -148.5t-116 -50.5h-12l584 -1280h-213l-125 279h-707l-125 -279h-213zM496 453h573l-287 655z" />
<glyph unicode="&#xe4;" horiz-adv-x="1566" d="M92 0l596 1309q-27 -9 -43 -9q-39 0 -64.5 26t-25.5 65q0 40 25 66t65 26q42 0 67 -26t25 -66q0 -32 -14 -52h121q-15 26 -15 52q0 40 25.5 66t65.5 26q42 0 67 -26t25 -66q0 -39 -25 -65t-67 -26q-19 0 -41 11l596 -1311h-213l-125 279h-707l-125 -279h-213zM496 453 h573l-287 655z" />
<glyph unicode="&#xe5;" horiz-adv-x="1566" d="M92 0l586 1284q-55 46 -55 125q0 69 43.5 113.5t115.5 44.5q74 0 118 -44.5t44 -113.5q0 -79 -55 -125l586 -1284h-213l-125 279h-707l-125 -279h-213zM496 453h573l-287 655zM723 1409q0 -29 15.5 -46t43.5 -17q29 0 45.5 17t16.5 46q0 27 -16.5 44t-45.5 17 q-27 0 -43 -17t-16 -44z" />
<glyph unicode="&#xe6;" horiz-adv-x="2068" d="M88 0l731 1327h1045v-178h-746v-377h692v-178h-692v-162q0 -157 85.5 -214.5t273.5 -57.5q204 0 387 33v-177q-79 -15 -112.5 -20.5t-112.5 -12t-169 -6.5q-227 0 -356 70t-164 234h-495l-154 -281h-213zM541 455h387v708z" />
<glyph unicode="&#xe7;" horiz-adv-x="1370" d="M164 666q0 221 88 377t245.5 232.5t372.5 76.5q200 0 357 -41v-176q-164 34 -314 34q-551 6 -551 -503q0 -257 140.5 -382.5t410.5 -123.5q134 3 314 35v-177q-118 -30 -264 -38q41 -67 41 -142q0 -66 -42 -102.5t-118 -36.5q-42 0 -78 8v105q12 -2 31 -2q63 0 63 65 q0 49 -35 102q-305 12 -483 192t-178 497z" />
<glyph unicode="&#xe8;" horiz-adv-x="1384" d="M246 436v891h424l-115 182h205l78 -182h342v-178h-746v-377h692v-176h-692v-164q0 -157 86.5 -215.5t274.5 -58.5q191 0 385 35v-177q-81 -15 -113 -20t-111 -12t-170 -7q-275 0 -407.5 104.5t-132.5 354.5z" />
<glyph unicode="&#xe9;" horiz-adv-x="1384" d="M246 436v891h389l80 182h203l-115 -182h377v-178h-746v-377h692v-176h-692v-164q0 -157 86.5 -215.5t274.5 -58.5q191 0 385 35v-177q-81 -15 -113 -20t-111 -12t-170 -7q-275 0 -407.5 104.5t-132.5 354.5z" />
<glyph unicode="&#xea;" horiz-adv-x="1384" d="M246 436v891h282l76 131h197l76 -131h303v-178h-746v-377h692v-176h-692v-164q0 -157 86.5 -215.5t274.5 -58.5q191 0 385 35v-177q-81 -15 -113 -20t-111 -12t-170 -7q-275 0 -407.5 104.5t-132.5 354.5z" />
<glyph unicode="&#xeb;" horiz-adv-x="1384" d="M246 436v891h278q-24 24 -24 64t25 66t65 26q42 0 67 -26t25 -66q0 -39 -25 -64h142q-25 25 -25 64q0 40 25 66t65 26q42 0 67 -26t25 -66t-24 -64h248v-178h-746v-377h692v-176h-692v-164q0 -157 86.5 -215.5t274.5 -58.5q191 0 385 35v-177q-81 -15 -113 -20t-111 -12 t-170 -7q-275 0 -407.5 104.5t-132.5 354.5z" />
<glyph unicode="&#xec;" horiz-adv-x="720" d="M162 1509h205l77 -182h11v-1327h-189v1327h10z" />
<glyph unicode="&#xed;" horiz-adv-x="720" d="M266 0v1327h10l80 182h203l-115 -182h11v-1327h-189z" />
<glyph unicode="&#xee;" horiz-adv-x="720" d="M168 1286l96 168h197l98 -168h-104v-1286h-189v1286h-98z" />
<glyph unicode="&#xef;" horiz-adv-x="731" d="M137 1391q0 40 25 66t65 26q42 0 67 -26t25 -66t-24 -64h141q-24 24 -24 64t25 66t65 26q42 0 67 -26t25 -66q0 -39 -25 -65t-67 -26q-23 0 -45 11v-1311h-189v1309q-18 -9 -41 -9q-39 0 -64.5 26t-25.5 65z" />
<glyph unicode="&#xf0;" horiz-adv-x="1589" d="M61 590v164h205v573h492q336 0 501.5 -165.5t165.5 -508.5q0 -332 -175.5 -504t-479.5 -172q-281 0 -504 82v531h-205zM455 199q150 -43 311 -43q461 0 461 497q0 265 -109 380.5t-360 115.5h-303v-395h389v-164h-389v-391z" />
<glyph unicode="&#xf1;" horiz-adv-x="1878" d="M266 0v1327h82q75 0 158 -51.5t161.5 -136.5t158 -189t158.5 -216t152 -210t149.5 -178.5t139.5 -114.5v1096h189v-1327h-80q-85 0 -174 50t-168.5 132.5t-158.5 183.5t-155 209.5t-146 204.5t-142.5 174t-134.5 111v-1065h-189zM762 1151q-7 98 35.5 148.5t115.5 50.5 q41 0 105.5 -29t89.5 -29q48 0 45 56h150q7 -98 -36 -148.5t-116 -50.5q-41 0 -105.5 28.5t-89.5 28.5q-45 0 -45 -55h-149z" />
<glyph unicode="&#xf2;" d="M164 664q0 279 156 463.5t425 218.5l-102 163h205l67 -159q291 -19 462 -206.5t171 -479.5q0 -200 -83.5 -355.5t-241.5 -243.5t-367 -88t-367 88t-241.5 243.5t-83.5 355.5zM362 664q0 -229 131.5 -367.5t362.5 -138.5q232 0 363 138t131 368q0 231 -131 370.5 t-363 139.5q-231 0 -362.5 -139.5t-131.5 -370.5z" />
<glyph unicode="&#xf3;" d="M164 664q0 284 160.5 469.5t437.5 214.5l72 161h202l-100 -161q283 -25 447.5 -211t164.5 -473q0 -200 -83.5 -355.5t-241.5 -243.5t-367 -88t-367 88t-241.5 243.5t-83.5 355.5zM362 664q0 -229 131.5 -367.5t362.5 -138.5q232 0 363 138t131 368q0 231 -131 370.5 t-363 139.5q-231 0 -362.5 -139.5t-131.5 -370.5z" />
<glyph unicode="&#xf4;" d="M164 664q0 263 139 442.5t383 228.5l70 123h196l72 -123q245 -47 384.5 -227t139.5 -444q0 -200 -83.5 -355.5t-241.5 -243.5t-367 -88t-367 88t-241.5 243.5t-83.5 355.5zM362 664q0 -229 131.5 -367.5t362.5 -138.5q232 0 363 138t131 368q0 231 -131 370.5t-363 139.5 q-231 0 -362.5 -139.5t-131.5 -370.5z" />
<glyph unicode="&#xf5;" d="M164 664q0 233 111 402.5t309 240.5q-3 88 39 134t112 46q41 0 105.5 -28.5t89.5 -28.5q48 0 45 55h149q8 -107 -47 -162q221 -60 346 -235t125 -424q0 -200 -83.5 -355.5t-241.5 -243.5t-367 -88t-367 88t-241.5 243.5t-83.5 355.5zM362 664q0 -229 131.5 -367.5 t362.5 -138.5q232 0 363 138t131 368q0 231 -131 370.5t-363 139.5q-231 0 -362.5 -139.5t-131.5 -370.5z" />
<glyph unicode="&#xf6;" d="M164 664q0 258 135 436.5t373 232.5q-45 22 -45 78q0 40 25 66t65 26q42 0 67 -26t25 -66q0 -35 -23 -61q23 2 70 2q45 0 68 -2q-23 23 -23 61q0 40 25 66t65 26q42 0 67 -26t25 -66q0 -56 -43 -78q238 -52 373 -230.5t135 -438.5q0 -200 -83.5 -355.5t-241.5 -243.5 t-367 -88t-367 88t-241.5 243.5t-83.5 355.5zM362 664q0 -229 131.5 -367.5t362.5 -138.5q232 0 363 138t131 368q0 231 -131 370.5t-363 139.5q-231 0 -362.5 -139.5t-131.5 -370.5z" />
<glyph unicode="&#xf8;" d="M164 664q0 203 83.5 358.5t241 242.5t367.5 87q215 0 377 -92l55 67h228l-146 -176q178 -187 178 -487q0 -200 -83.5 -355.5t-241.5 -243.5t-367 -88q-211 0 -375 93l-57 -70h-225l145 176q-180 186 -180 488zM362 664q0 -202 105 -338l647 788q-111 60 -258 60 q-231 0 -362.5 -139.5t-131.5 -370.5zM600 215q111 -57 256 -57q232 0 363 138t131 368q0 204 -103 337z" />
<glyph unicode="&#xf9;" horiz-adv-x="1720" d="M246 588v739h198v-739q0 -212 99 -321t317 -109q219 0 317.5 108.5t98.5 321.5v739h199v-739q0 -287 -155.5 -449t-459.5 -162q-302 0 -458 162t-156 449zM715 1327h205l77 -182h-168z" />
<glyph unicode="&#xfa;" horiz-adv-x="1720" d="M246 588v739h198v-739q0 -212 99 -321t317 -109q219 0 317.5 108.5t98.5 321.5v739h199v-739q0 -287 -155.5 -449t-459.5 -162q-302 0 -458 162t-156 449zM741 1145l80 182h203l-115 -182h-168z" />
<glyph unicode="&#xfb;" horiz-adv-x="1720" d="M246 588v739h198v-739q0 -212 99 -321t317 -109q219 0 317.5 108.5t98.5 321.5v739h199v-739q0 -287 -155.5 -449t-459.5 -162q-302 0 -458 162t-156 449zM666 1159l96 168h196l99 -168h-391z" />
<glyph unicode="&#xfc;" horiz-adv-x="1720" d="M246 588v739h198v-739q0 -212 99 -321t317 -109q219 0 317.5 108.5t98.5 321.5v739h199v-739q0 -287 -155.5 -449t-459.5 -162q-302 0 -458 162t-156 449zM633 1249q0 40 25 66t65 26q42 0 67 -26t25 -66q0 -39 -25 -64.5t-67 -25.5q-39 0 -64.5 25.5t-25.5 64.5z M907 1249q0 40 25 66t65 26q42 0 67.5 -26t25.5 -66q0 -39 -25.5 -64.5t-67.5 -25.5q-39 0 -64.5 25.5t-25.5 64.5z" />
<glyph unicode="&#xfd;" horiz-adv-x="1406" d="M74 1178l18 165q221 -6 383.5 -140t229.5 -345q65 211 227 345t383 140l18 -165q-133 -13 -238 -77t-168 -160.5t-95.5 -211.5t-32.5 -240v-489h-189v489q0 99 -19.5 194t-62.5 183t-104.5 155t-151.5 109.5t-198 47.5zM578 1327l79 182h203l-115 -182h-167z" />
<glyph unicode="&#xfe;" horiz-adv-x="1320" d="M266 0v1327h189v-262h288q114 0 199.5 -32t136 -88t75 -126t24.5 -153q0 -62 -15 -118.5t-48.5 -108t-83 -89.5t-123.5 -60t-165 -22h-288v-268h-189zM455 438h282q130 0 190 65t60 163t-60 162.5t-190 64.5h-282v-455z" />
<glyph unicode="&#xff;" horiz-adv-x="1406" d="M74 1178l18 165q221 -6 383.5 -140t229.5 -345q65 211 227 345t383 140l18 -165q-133 -13 -238 -77t-168 -160.5t-95.5 -211.5t-32.5 -240v-489h-189v489q0 99 -19.5 194t-62.5 183t-104.5 155t-151.5 109.5t-198 47.5zM475 1364q0 40 25 66t65 26q42 0 67 -26t25 -66 q0 -39 -25 -64.5t-67 -25.5q-39 0 -64.5 25.5t-25.5 64.5zM750 1364q0 40 25 66t65 26q42 0 67 -26t25 -66q0 -39 -25 -64.5t-67 -25.5q-39 0 -64.5 25.5t-25.5 64.5z" />
<glyph unicode="&#x152;" horiz-adv-x="2494" d="M164 664q0 203 83.5 358.5t241 242.5t367.5 87q309 0 498 -183v158h934v-178h-746v-377h692v-176h-688q-1 -6 -2 -18t-2 -17v-129q0 -157 86.5 -215.5t274.5 -58.5q191 0 385 35v-177q-81 -15 -113 -20t-111 -12t-170 -7q-200 0 -323.5 53.5t-175.5 174.5 q-93 -108 -230.5 -168t-308.5 -60q-209 0 -367 88t-241.5 243.5t-83.5 355.5zM362 664q0 -229 131.5 -367.5t362.5 -138.5q232 0 363 138t131 368q0 231 -131 370.5t-363 139.5q-231 0 -362.5 -139.5t-131.5 -370.5z" />
<glyph unicode="&#x153;" horiz-adv-x="2494" d="M164 664q0 203 83.5 358.5t241 242.5t367.5 87q309 0 498 -183v158h934v-178h-746v-377h692v-176h-688q-1 -6 -2 -18t-2 -17v-129q0 -157 86.5 -215.5t274.5 -58.5q191 0 385 35v-177q-81 -15 -113 -20t-111 -12t-170 -7q-200 0 -323.5 53.5t-175.5 174.5 q-93 -108 -230.5 -168t-308.5 -60q-209 0 -367 88t-241.5 243.5t-83.5 355.5zM362 664q0 -229 131.5 -367.5t362.5 -138.5q232 0 363 138t131 368q0 231 -131 370.5t-363 139.5q-231 0 -362.5 -139.5t-131.5 -370.5z" />
<glyph unicode="&#x178;" horiz-adv-x="1402" d="M72 1178l18 165q221 -6 383 -140t229 -345q65 211 227.5 345t383.5 140l18 -165q-133 -13 -238 -77t-168 -160.5t-95.5 -211.5t-32.5 -240v-489h-189v489q0 99 -19.5 194t-62.5 183t-104.5 155t-151.5 109.5t-198 47.5zM473 1364q0 40 25 66t65 26q42 0 67 -26t25 -66 q0 -39 -25 -64.5t-67 -25.5q-39 0 -64.5 25.5t-25.5 64.5zM748 1364q0 40 25 66t65 26q42 0 67 -26t25 -66q0 -39 -25 -64.5t-67 -25.5q-39 0 -64.5 25.5t-25.5 64.5z" />
<glyph unicode="&#x2c6;" horiz-adv-x="729" d="M170 1286l96 168h197l98 -168h-391z" />
<glyph unicode="&#x2dc;" horiz-adv-x="745" d="M102 1323q-7 98 36 148.5t116 50.5q41 0 105.5 -29t89.5 -29q48 0 45 56h149q7 -98 -35.5 -148.5t-115.5 -50.5q-41 0 -105.5 28.5t-89.5 28.5q-45 0 -45 -55h-150z" />
<glyph unicode="&#x2000;" horiz-adv-x="804" />
<glyph unicode="&#x2001;" horiz-adv-x="1608" />
<glyph unicode="&#x2002;" horiz-adv-x="804" />
<glyph unicode="&#x2003;" horiz-adv-x="1608" />
<glyph unicode="&#x2004;" horiz-adv-x="536" />
<glyph unicode="&#x2005;" horiz-adv-x="402" />
<glyph unicode="&#x2006;" horiz-adv-x="268" />
<glyph unicode="&#x2007;" horiz-adv-x="268" />
<glyph unicode="&#x2008;" horiz-adv-x="201" />
<glyph unicode="&#x2009;" horiz-adv-x="321" />
<glyph unicode="&#x200a;" horiz-adv-x="89" />
<glyph unicode="&#x2010;" horiz-adv-x="833" d="M102 578v176h629v-176h-629z" />
<glyph unicode="&#x2011;" horiz-adv-x="833" d="M102 578v176h629v-176h-629z" />
<glyph unicode="&#x2012;" horiz-adv-x="833" d="M102 578v176h629v-176h-629z" />
<glyph unicode="&#x2013;" horiz-adv-x="1134" d="M102 578v176h930v-176h-930z" />
<glyph unicode="&#x2014;" horiz-adv-x="1523" d="M102 578v176h1319v-176h-1319z" />
<glyph unicode="&#x2018;" horiz-adv-x="471" d="M109 903q-18 191 7 307t93 213h158q-22 -53 -33 -86t-23.5 -96t-11 -146t15.5 -192h-206z" />
<glyph unicode="&#x2019;" horiz-adv-x="471" d="M102 905q22 53 33 86t23.5 96t11 146t-15.5 192h206q18 -191 -7 -307t-93 -213h-158z" />
<glyph unicode="&#x201a;" horiz-adv-x="471" d="M102 -297q22 53 33 86t23.5 96t11 146t-15.5 192h206q18 -191 -7 -307t-93 -213h-158z" />
<glyph unicode="&#x201c;" horiz-adv-x="800" d="M111 903q-18 191 7 307t93 213h158q-22 -53 -33 -86t-23.5 -96t-11 -146t15.5 -192h-206zM440 903q-18 190 7.5 306t93.5 214h157q-22 -52 -33 -86t-23 -96.5t-10.5 -145.5t15.5 -192h-207z" />
<glyph unicode="&#x201d;" horiz-adv-x="804" d="M102 905q22 53 33 86t23.5 96t11 146t-15.5 192h206q18 -191 -7 -307t-93 -213h-158zM436 905q22 52 33 86t23 96.5t10.5 145.5t-15.5 192h207q18 -191 -7 -307t-93 -213h-158z" />
<glyph unicode="&#x201e;" horiz-adv-x="804" d="M102 -281q22 53 33 86.5t23.5 96.5t11 146t-15.5 192h206q18 -191 -7 -307.5t-93 -213.5h-158zM436 -281q22 52 33 86t23 97t10.5 146t-15.5 192h207q18 -191 -7 -307.5t-93 -213.5h-158z" />
<glyph unicode="&#x2022;" horiz-adv-x="841" d="M211 668q0 91 58 150t151 59q96 0 153.5 -58.5t57.5 -150.5q0 -91 -58 -150t-153 -59q-93 0 -151 59.5t-58 149.5z" />
<glyph unicode="&#x2026;" horiz-adv-x="1751" d="M195 106q0 53 33.5 88t86.5 35q56 0 89.5 -34.5t33.5 -88.5q0 -53 -33.5 -87.5t-89.5 -34.5q-53 0 -86.5 34.5t-33.5 87.5zM754 106q0 53 33.5 88t86.5 35q56 0 89.5 -34.5t33.5 -88.5q0 -53 -33.5 -87.5t-89.5 -34.5q-53 0 -86.5 34.5t-33.5 87.5zM1313 106q0 53 34 88 t87 35q56 0 89 -34.5t33 -88.5t-33 -88t-89 -34q-54 0 -87.5 34.5t-33.5 87.5z" />
<glyph unicode="&#x202f;" horiz-adv-x="321" />
<glyph unicode="&#x2039;" horiz-adv-x="661" d="M96 641v45q83 70 153 187t91 227h213q-70 -294 -254 -436q183 -141 254 -437h-213q-21 110 -91 227t-153 187z" />
<glyph unicode="&#x203a;" horiz-adv-x="661" d="M109 223q71 295 253 436q-182 140 -253 437h213q21 -111 90.5 -227.5t152.5 -186.5v-45q-83 -70 -152.5 -186.5t-90.5 -227.5h-213z" />
<glyph unicode="&#x205f;" horiz-adv-x="402" />
<glyph unicode="&#x20ac;" horiz-adv-x="1361" d="M61 573v179h175q24 288 200 444t455 156q171 0 328 -41v-176q-185 34 -308 34q-435 0 -475 -417h596v-179h-596q43 -413 475 -413q117 0 308 35v-177q-157 -41 -328 -41q-278 0 -453.5 155t-201.5 441h-175z" />
<glyph unicode="&#x2122;" horiz-adv-x="1247" d="M61 1243v84h461v-84h-184v-420h-92v420h-185zM586 823v504h30q28 0 51 -15t58 -55l133 -139l133 139q37 41 59 55.5t50 14.5h33v-504h-93v363l-182 -189l-180 189v-363h-92z" />
<glyph unicode="&#x25fc;" horiz-adv-x="1325" d="M0 0v1325h1325v-1325h-1325z" />
</font>
</defs>
</svg>
